<?xml version="1.0" encoding="utf-8"?>
<!-- Generator: Adobe Illustrator 19.0.0, SVG Export Plug-In . SVG Version: 6.00 Build 0)  -->
<svg version="1.1" id="Layer_1" xmlns="http://www.w3.org/2000/svg" xmlns:xlink="http://www.w3.org/1999/xlink" x="0px" y="0px"
	 viewBox="0 0 400 400" style="enable-background:new 0 0 400 400;" xml:space="preserve">
<style type="text/css">
	.st0{fill:#E01B22;}
	.st1{fill:#FFFFFF;}
</style>
<g id="XMLID_16_">
	<path id="XMLID_1_" class="st0" d="M375,391.2H25.4c-8.9,0-16.2-7.2-16.2-16.2V25.4c0-8.9,7.2-16.2,16.2-16.2H375
		c8.9,0,16.2,7.2,16.2,16.2V375C391.2,383.9,383.9,391.2,375,391.2z"/>
	<path id="XMLID_100_" class="st1" d="M212.1,370.5c-7.9,0-15.9,0-23.8,0c0.4-0.9-0.4-0.6-0.7-0.6c-1.9-0.2-3.8-0.3-5.8-0.5
		c-21.1-2.3-41.2-8.1-59.9-18.1c-41.6-22.2-69.8-55.7-84.2-100.7c-4.7-14.7-7.1-29.8-7.5-45.2c0-0.5,0.5-1.3-0.6-1.3
		c0-2.6,0-5.1,0-7.7c1.1,0,0.6-0.9,0.6-1.3c0-4.4,0.4-8.7,0.9-13.1c2.3-21.2,8.2-41.4,18.2-60.2C71.4,80.1,105,52,149.9,37.6
		c14.6-4.7,29.7-7.1,45.1-7.5c0.5,0,1.3,0.5,1.3-0.6c2.6,0,5.1,0,7.7,0c0.5,0.6,0.5,0.6,1.3,0.6c16.4,0.4,32.5,3.2,48.1,8.4
		c32.9,11,60.1,30.2,81.4,57.6c17.1,22,28.1,46.9,33,74.4c1,5.5,1.7,11.1,2.1,16.7c0,0.3-0.5,1.3,0.6,1.1c0,7.9,0,15.9,0,23.8
		c-0.6,0.4-0.6,0.4-0.7,1.2c-1,13.7-3.7,27.2-8,40.2c-10.8,32.4-29.6,59.2-56.4,80.4c-22.4,17.7-47.6,28.9-75.7,33.9
		c-5.4,1-10.8,1.6-16.3,2.1C212.9,369.9,212.1,369.5,212.1,370.5z"/>
	<polygon id="XMLID_15_" class="st0" points="323.5,160.5 240.5,160.5 240.5,77.5 160.5,77.5 160.5,160.5 77.5,160.5 77.5,240.5 
		160.5,240.5 160.5,323.5 240.5,323.5 240.5,240.5 323.5,240.5 	"/>
</g>
</svg>
