<?xml version="1.0" encoding="utf-8"?>
<!-- Generator: Adobe Illustrator 19.0.0, SVG Export Plug-In . SVG Version: 6.00 Build 0)  -->
<svg version="1.1" id="Layer_1" xmlns="http://www.w3.org/2000/svg" xmlns:xlink="http://www.w3.org/1999/xlink" x="0px" y="0px"
	 viewBox="-412.2 215.9 124.1 130.6" style="enable-background:new -412.2 215.9 124.1 130.6;" xml:space="preserve">
<style type="text/css">
	.st0{fill:#8E8E8E;}
	.st1{fill:#FFFFFF;}
	.st2{fill:#337C23;}
</style>
<g>
	<path class="st0" d="M-291.6,252.9l0-0.6l-0.1-0.6c-0.5-5.8-1.6-12.7-5.3-19.3c-3.8-6.7-9-7.7-11.8-7.7c-2.2,0-7.8,0.8-11.6,7.6
		c-1.2-0.4-2.4-0.6-3.7-0.6c-4.4,0-8.4,2.5-11,7c-3,5.2-3.8,10.6-4.3,15.7l-0.1,0.8l0.1,1c0,0.3,0,0.6,0.1,0.8
		c-0.4-0.9-0.9-1.7-1.4-2.6c-4.3-7.5-9.9-8.6-12.9-8.6c-2.6,0-7.3,0.9-11.4,6.1c-0.8-1.6-1.6-3.1-2.6-4.6c-4.6-7.4-10.2-9-14-9
		c-3.6,0-8.9,1.4-13.6,8.1c-1.2,1.7-2.1,3.2-2.8,4.7c-4.5,9.3-6.9,19.5-7.4,31.3l0,0.2v0.2c0,0.3,0,0.7,0,1c0,1.2-0.1,2.7,0.1,4.3
		c0.5,4,1.9,14.5,11.8,18.6c0,0.6,0,1,0,1.3l0,0c0.2,6.3,4.7,11,10.7,11.5c-1.6,3-2.8,6.3-3.6,9.8c-0.5,2.3-1.6,7.2,1.8,11.4
		c3.3,4.2,8.3,4.2,10.7,4.2h0c11.4,0,22.8,0,34.2,0l10.3,0l8.4,0c1.3,0,2.6,0,3.9,0h0.1c5.3,0,8.1-2.6,9.5-4.7
		c1.1-1.8,2.7-5.4,0.4-10.4c-2-4.3-1.7-8.7,1.1-14.1c1.3-2.6,2.7-5.2,4.2-7.9c1.8-3.3,3.7-6.7,5.4-10.2c4.6-9.5,3.6-18.3-2.6-25.2
		c1.2-1.6,2.1-3.7,2.4-6.3C-292,261.5-291.7,255.4-291.6,252.9z"/>
	<path class="st1" d="M-294.9,247.9l0-0.6l-0.1-0.6c-0.5-5.8-1.6-12.7-5.3-19.3c-3.8-6.7-9-7.7-11.8-7.7c-2.2,0-7.8,0.8-11.6,7.6
		c-1.2-0.4-2.4-0.6-3.7-0.6c-4.4,0-8.4,2.5-11,7c-3,5.2-3.8,10.6-4.3,15.7l-0.1,0.8l0.1,1c0,0.3,0,0.6,0.1,0.8
		c-0.4-0.9-0.9-1.7-1.4-2.6c-4.3-7.5-9.9-8.6-12.9-8.6c-2.6,0-7.3,0.9-11.4,6.1c-0.8-1.6-1.6-3.1-2.6-4.6c-4.6-7.4-10.2-9-14-9
		c-3.6,0-8.9,1.4-13.6,8.1c-1.2,1.7-2.1,3.2-2.8,4.7c-4.5,9.3-6.9,19.5-7.4,31.3l0,0.2v0.2c0,0.3,0,0.7,0,1c0,1.2-0.1,2.7,0.1,4.3
		c0.5,4,1.9,14.5,11.8,18.6c0,0.6,0,1,0,1.3l0,0c0.2,6.3,4.7,11,10.7,11.5c-1.6,3-2.8,6.3-3.6,9.8c-0.5,2.3-1.6,7.2,1.8,11.4
		c3.3,4.2,8.3,4.2,10.7,4.2h0c11.4,0,22.8,0,34.2,0l10.3,0l8.4,0c1.3,0,2.6,0,3.9,0h0.1c5.3,0,8.1-2.6,9.5-4.7
		c1.1-1.8,2.7-5.4,0.4-10.4c-2-4.3-1.7-8.7,1.1-14.1c1.3-2.6,2.7-5.2,4.2-7.9c1.8-3.3,3.7-6.7,5.4-10.2c4.6-9.5,3.6-18.3-2.6-25.2
		c1.2-1.6,2.1-3.7,2.4-6.3C-295.3,256.5-295,250.4-294.9,247.9z"/>
	<path class="st0" d="M-343.4,263c4.7-0.4,9.4-0.4,14.1,0.8c5.5,1.4,11,3,15.9,6.1c7.5,4.7,9.4,10.7,5.5,18.7
		c-3,6.1-6.5,11.9-9.6,18c-3.6,7.1-4.7,14.4-1.2,21.9c0.9,1.9-0.1,2.3-1.7,2.3c-4.1,0-8.2,0-12.3,0c-14.8,0-29.6,0-44.4,0
		c-4,0-4.6-0.6-3.7-4.6c2.5-11.5,10.4-18.1,20.5-22.6c8-3.6,16.6-5.9,24.5-9.8c4.5-2.2,8.9-4.6,12.5-8.1c3.8-3.8,3.9-7.3,0.2-11.3
		c-3.6-4-8.6-5.7-13.3-7.9c-2.3-1-4.8-1.8-7.2-2.8C-343.4,263.6-343.4,263.3-343.4,263z"/>
	<path class="st2" d="M-399.6,277.7c0.4-9.7,2.3-19,6.5-27.8c0.6-1.2,1.3-2.3,2-3.3c4.2-5.9,8.8-5.8,12.7,0.4
		c4.7,7.5,6.7,16,7.9,24.7c0.6,4.1,0.8,8.1,0,12.2c-1.1,5.3-3.6,9.3-9.1,10.8c-1.8,0.5-2.5,1.4-2.4,3.2c0.1,1.6,0.1,3.2-0.1,4.8
		c-0.1,1.7-1.1,2.8-2.9,2.8c-1.8,0-2.7-1.1-2.8-2.9c0-0.4-0.1-0.8,0-1.2c0.6-4-0.5-6.4-4.9-7.9c-5.2-1.7-6.4-6.8-7-11.7
		C-399.7,280.5-399.6,279.1-399.6,277.7z"/>
	<path class="st2" d="M-367.9,276c0.3-7.7,1.9-15,5.7-21.8c3.2-5.7,7.3-6,10.5-0.4c4.9,8.5,6.9,17.8,5.7,27.7c-0.4,3.2-2,6-5.2,7.2
		c-2.1,0.8-2.7,2-2.6,4.1c0.1,2.3,0.4,5.2-2.9,5.3c-3.6,0.1-3-3-3.1-5.3c-0.1-1.4,0.2-2.9-1.6-3.5c-5.2-1.9-6.4-6.2-6.5-11.1
		C-367.9,277.4-367.9,276.7-367.9,276z"/>
	<path class="st2" d="M-303.9,247.4c-0.2,3.4-0.7,6.4-3.7,8.3c-1.4,0.9-1.2,2.4-1.3,3.8c-0.2,1.8-0.6,3.5-2.9,3.5
		c-2.4,0.1-3.1-1.6-3.1-3.6c0-2-0.6-3.3-2.3-4.5c-1.8-1.3-2.5-3.3-2.6-5.5c-0.3-6.2,0.9-12.1,3.9-17.6c2.3-4.2,5.4-4.2,7.8,0
		C-305.3,236.7-304.4,242.1-303.9,247.4z"/>
	<path class="st2" d="M-333.6,250.1c0.4-4.1,1-8.3,3.2-12c1.9-3.3,4.4-3.3,6.3,0c2.2,3.8,3,8,3.2,12.4c0.1,2-0.3,4.1-1.9,5.5
		c-1.1,1.1-1.5,2.2-1.5,3.7c0.1,1.8-0.5,3.3-2.6,3.4c-2.1,0.1-3.1-1.2-3.1-3.2c0-1.6-0.6-2.8-1.7-3.9
		C-333.3,254.4-333.4,252.2-333.6,250.1z"/>
</g>
</svg>
