<?xml version="1.0" encoding="utf-8"?>
<!-- Generator: Adobe Illustrator 19.0.0, SVG Export Plug-In . SVG Version: 6.00 Build 0)  -->
<svg version="1.1" id="Layer_1" xmlns="http://www.w3.org/2000/svg" xmlns:xlink="http://www.w3.org/1999/xlink" x="0px" y="0px"
	 viewBox="-418 211.1 122 138.9" style="enable-background:new -418 211.1 122 138.9;" xml:space="preserve">
<style type="text/css">
	.st0{fill:#BFBFBF;}
	.st1{fill:#FFFFFF;}
	.st2{fill:#820000;}
	.st3{fill:#D50000;}
	.st4{fill:#FDDA03;}
</style>
<g>
	<path class="st0" d="M-289.6,315.4v-11.8c0-1-0.8-1.8-1.8-1.8h-15.4c-1,0-1.8-0.8-1.8-1.8v-4.6c0-1-0.8-1.8-1.8-1.8h-5.1
		c-1,0-1.8-0.8-1.8-1.8v-16.5c0-0.3,0.1-0.7,0.3-0.9l14.6-25.4c0.7-1.2-0.1-2.7-1.6-2.7h-14.4c-1,0-1.8-0.8-1.8-1.8v-1
		c0-1-0.8-1.8-1.8-1.8h-1.7c-1,0-1.8-0.8-1.8-1.8v-25.4c0-0.7-0.4-1.3-1-1.6l-4.8-2.4c-1.6-0.8-2.9-1.2-3.7-1.3
		c-0.9-0.3-2.4-0.5-4.1-0.5h-2h-0.5c-1.3,0.1-2.5,0.4-3.5,0.5c-0.1,0-0.3,0-0.4,0h-19.6c-1,0-1.8,0.8-1.8,1.8v23.7
		c0,1-0.8,1.8-1.8,1.8h-11.2c-1,0-1.8,0.8-1.8,1.8v2.2c0,1-0.8,1.8-1.8,1.8h-5.6c-1,0-1.8,0.8-1.8,1.8v1c0,1-0.8,1.8-1.8,1.8h-14.5
		c-1.4,0-2.2,1.4-1.6,2.7l14.6,25.4c0.1,0.3,0.3,0.5,0.3,0.9v16.5c0,1-0.8,1.8-1.8,1.8h-5.2c-1,0-1.8,0.8-1.8,1.8v4.6
		c0,1-0.8,1.8-1.8,1.8h-15.3c-1,0-1.8,0.8-1.8,1.8v11.8c0,1-0.8,1.8-1.8,1.8h-6.5c-1,0-1.8,0.8-1.8,1.8v33.5c0,1,0.8,1.8,1.8,1.8
		h148.1c1,0,1.8-0.8,1.8-1.8v-33.5c0-1-0.8-1.8-1.8-1.8h-6.5C-288.9,317.2-289.6,316.4-289.6,315.4z"/>
</g>
<g>
	<path class="st1" d="M-293.6,312.8V301c0-1-0.8-1.8-1.8-1.8h-15.4c-1,0-1.8-0.8-1.8-1.8v-4.6c0-1-0.8-1.8-1.8-1.8h-5.1
		c-1,0-1.8-0.8-1.8-1.8v-16.5c0-0.3,0.1-0.7,0.3-0.9l14.6-25.4c0.7-1.2-0.1-2.7-1.6-2.7h-14.4c-1,0-1.8-0.8-1.8-1.8v-1
		c0-1-0.8-1.8-1.8-1.8h-1.7c-1,0-1.8-0.8-1.8-1.8v-25.4c0-0.7-0.4-1.3-1-1.6l-4.8-2.4c-1.6-0.8-2.9-1.2-3.7-1.3
		c-0.9-0.3-2.4-0.5-4.1-0.5h-2h-0.5c-1.3,0.1-2.5,0.4-3.5,0.5c-0.1,0-0.3,0-0.4,0h-19.6c-1,0-1.8,0.8-1.8,1.8V232
		c0,1-0.8,1.8-1.8,1.8h-11.2c-1,0-1.8,0.8-1.8,1.8v2.2c0,1-0.8,1.8-1.8,1.8h-5.6c-1,0-1.8,0.8-1.8,1.8v1c0,1-0.8,1.8-1.8,1.8h-14.5
		c-1.4,0-2.2,1.4-1.6,2.7l14.6,25.4c0.1,0.3,0.3,0.5,0.3,0.9v16.5c0,1-0.8,1.8-1.8,1.8h-5.2c-1,0-1.8,0.8-1.8,1.8v4.6
		c0,1-0.8,1.8-1.8,1.8h-15.3c-1,0-1.8,0.8-1.8,1.8v11.8c0,1-0.8,1.8-1.8,1.8h-6.5c-1,0-1.8,0.8-1.8,1.8v33.5c0,1,0.8,1.8,1.8,1.8
		h148.1c1,0,1.8-0.8,1.8-1.8v-33.5c0-1-0.8-1.8-1.8-1.8h-6.5C-292.8,314.6-293.6,313.8-293.6,312.8z"/>
</g>
<g id="XMLID_16_">
	<g id="XMLID_2_">
		<rect id="XMLID_1_" x="-424.6" y="325" class="st0" width="130.7" height="16.1"/>
		<rect id="XMLID_3_" x="-414.6" y="309.8" class="st0" width="110.6" height="16.1"/>
		<rect id="XMLID_4_" x="-395.8" y="301.7" class="st0" width="72.8" height="16.1"/>
		<rect id="XMLID_7_" x="-384" y="249.9" class="st0" width="49.5" height="9.7"/>
		<rect id="XMLID_8_" x="-374.8" y="244.2" class="st0" width="31" height="9.7"/>
		<polygon id="XMLID_6_" class="st0" points="-329.9,266.8 -388.7,266.8 -395.8,254.5 -322.8,254.5 		"/>
		<rect id="XMLID_5_" x="-387" y="266" class="st0" width="55.4" height="37.2"/>
	</g>
	<rect id="XMLID_9_" x="-369.5" y="330.9" class="st2" width="20.9" height="10.2"/>
	<rect id="XMLID_10_" x="-409.3" y="324.4" class="st2" width="101.8" height="1.4"/>
	<rect id="XMLID_12_" x="-391.3" y="309.8" class="st2" width="65.7" height="1.4"/>
	<rect id="XMLID_13_" x="-384" y="265.3" class="st2" width="51.1" height="1.4"/>
	<rect id="XMLID_14_" x="-380.6" y="253.7" class="st2" width="44.3" height="1.4"/>
	<rect id="XMLID_15_" x="-372.1" y="248.9" class="st2" width="27.2" height="1.4"/>
	<rect id="XMLID_88_" x="-360.1" y="217" class="st2" width="1.4" height="27.2"/>
	<rect id="XMLID_11_" x="-379" y="269.6" class="st2" width="4.7" height="31.6"/>
	<rect id="XMLID_17_" x="-366.9" y="269.6" class="st2" width="4.7" height="31.6"/>
	<rect id="XMLID_18_" x="-354.9" y="269.6" class="st2" width="4.7" height="31.6"/>
	<rect id="XMLID_19_" x="-342.8" y="269.6" class="st2" width="4.7" height="31.6"/>
	<g id="XMLID_85_">
		<path id="XMLID_114_" class="st3" d="M-344.3,216.3c0.5,0,1,0,1.4,0l0,0c0.5,0,1,0.1,1.6,0.3c0.5,0.1,1,0.3,1.6,0.5
			c0,4.1,0,8.1,0,12.3h-0.1c-1-0.4-2.1-0.7-3.3-0.7c-1.3,0-2.5,0.1-3.7,0.4c-1.2,0.3-2.2,0.4-3.4,0.7c-0.9,0.1-2,0.4-3,0.4
			c0,0,0,0-0.1,0c-0.4,0-0.8,0-1.2,0h-0.1c-0.5,0-1.2-0.1-1.7-0.3c-0.5-0.1-0.9-0.3-1.3-0.4c0-4.1,0-8.1,0-12.3c0,0,0,0,0.1,0
			c1,0.3,2.1,0.4,3.1,0.5c1.2,0.1,2.4,0,3.5-0.3c1-0.1,2-0.4,3-0.5C-346.8,216.7-345.6,216.5-344.3,216.3
			C-344.4,216.3-344.3,216.3-344.3,216.3z M-350.8,227L-350.8,227L-350.8,227c0.8-0.8,1.6-1.4,2.2-2.1c0,0,0.1-0.1,0.1,0
			c0.7,0.4,1.3,0.7,2,1c0,0,0.1,0.1,0.3,0.1c0,0,0,0,0-0.1c-0.3-0.8-0.5-1.6-0.9-2.4c0-0.1,0-0.1,0-0.1c0.7-0.5,1.3-1.2,2-1.7
			c0.1,0,0.3-0.1,0.4-0.3c-0.1,0-0.1,0-0.1,0c-0.3,0-0.5,0.1-0.9,0.1c-0.7,0.1-1.2,0.3-1.8,0.4c-0.1,0-0.1,0-0.1-0.1
			c-0.3-0.7-0.4-1.3-0.7-2.1c0-0.1-0.1-0.3-0.1-0.5v0.1c-0.3,0.9-0.5,1.7-0.7,2.6c0,0.3-0.1,0.4-0.4,0.4c-0.8,0.1-1.4,0.3-2.2,0.3
			c-0.1,0-0.3,0-0.4,0c0,0,0.1,0,0.1,0.1c0.7,0.5,1.3,0.9,2.1,1.3c0.1,0,0.1,0.1,0,0.1c-0.3,0.7-0.4,1.3-0.7,2.1
			C-350.7,226.5-350.8,226.8-350.8,227z"/>
		<path id="XMLID_109_" class="st4" d="M-350.8,227c0.1-0.3,0.1-0.5,0.3-0.7c0.3-0.7,0.4-1.3,0.7-2.1c0-0.1,0-0.1,0-0.1
			c-0.9-0.4-1.6-0.8-2.4-1.3c0,0-0.1,0-0.1-0.1c0.1,0,0.3,0,0.4,0c0.8,0,1.4-0.1,2.2-0.3c0.3,0,0.4-0.1,0.4-0.4
			c0.3-0.9,0.5-1.7,0.7-2.6c0,0,0,0,0-0.1c0,0.1,0.1,0.4,0.1,0.5c0.3,0.7,0.4,1.3,0.7,2.1c0,0.1,0,0.1,0.1,0.1
			c0.7-0.1,1.2-0.3,1.8-0.4c0.3,0,0.5-0.1,0.9-0.1c0,0,0,0,0.1,0c-0.1,0.1-0.3,0.3-0.4,0.3c-0.7,0.5-1.3,1-2,1.7v0.1
			c0.3,0.8,0.5,1.6,0.9,2.4c0,0,0,0,0,0.1c-0.1,0-0.1,0-0.3-0.1c-0.7-0.4-1.3-0.8-2-1c-0.1,0-0.1,0-0.1,0
			C-349.4,225.6-350,226.3-350.8,227L-350.8,227L-350.8,227z"/>
	</g>
</g>
</svg>
