<?xml version="1.0" encoding="utf-8"?>
<!-- Generator: Adobe Illustrator 19.0.0, SVG Export Plug-In . SVG Version: 6.00 Build 0)  -->
<svg version="1.1" id="Layer_1" xmlns="http://www.w3.org/2000/svg" xmlns:xlink="http://www.w3.org/1999/xlink" x="0px" y="0px"
	 viewBox="0 0 100 100" style="enable-background:new 0 0 100 100;" xml:space="preserve">
<style type="text/css">
	.st0{fill:#19317C;}
	.st1{fill:#FFFFFF;}
</style>
<g id="XMLID_3_">
	<path id="XMLID_2_" class="st0" d="M93.3,100H6.7C3,100,0,97,0,93.3V6.7C0,3,3,0,6.7,0h86.6C97,0,100,3,100,6.7v86.6
		C100,97,97,100,93.3,100z"/>
	<path id="XMLID_1_" class="st1" d="M84.4,75.2H16.5c-2,0-3.5-1.6-3.5-3.5V24.1c0-2,1.6-3.5,3.5-3.5h67.9c2,0,3.5,1.6,3.5,3.5v47.6
		C87.9,73.6,86.3,75.2,84.4,75.2z"/>
	<path id="XMLID_14_" class="st0" d="M81.6,71H19.2c-0.9,0-1.7-0.8-1.7-1.7V26.4c0-0.9,0.8-1.7,1.7-1.7h62.4c0.9,0,1.7,0.8,1.7,1.7
		v42.9C83.3,70.2,82.6,71,81.6,71z M19.2,25.7c-0.4,0-0.7,0.3-0.7,0.7v42.9c0,0.4,0.3,0.7,0.7,0.7h62.4c0.4,0,0.7-0.3,0.7-0.7V26.4
		c0-0.4-0.3-0.7-0.7-0.7H19.2z"/>
	<g id="XMLID_5_">
		<path id="XMLID_6_" class="st0" d="M30.4,39.5v13.9h8.3v3.1h-12v-17H30.4z"/>
		<path id="XMLID_8_" class="st0" d="M54.9,39.5v3.1h-9v3.6h8.2v2.9H46v4.2h9.2v3.1H42.2v-17H54.9z"/>
		<path id="XMLID_10_" class="st0" d="M66.4,39.5c4.4,0,7.7,2.8,7.7,8.4c0,4.9-2.5,8.6-7.7,8.6h-7.3v-17H66.4z M66.2,53.4
			c2.2,0,4.2-1.3,4.2-5.1c0-3.4-1.2-5.6-4.9-5.6h-2.7v10.7H66.2z"/>
	</g>
	<rect id="XMLID_4_" x="35.8" y="78.6" class="st1" width="29.3" height="4.3"/>
</g>
</svg>
