<svg xmlns="http://www.w3.org/2000/svg" xmlns:xlink="http://www.w3.org/1999/xlink" width="500" zoomAndPan="magnify" viewBox="0 0 375 374.999991" height="500" preserveAspectRatio="xMidYMid meet" version="1.2"><defs><clipPath id="403405a65a"><path d="M 112.5 45 L 135 45 L 135 130.453125 L 112.5 130.453125 Z M 112.5 45 "/></clipPath><clipPath id="020c457f3b"><path d="M 240 45 L 262.5 45 L 262.5 130 L 240 130 Z M 240 45 "/></clipPath><clipPath id="432dd17cf9"><path d="M 53.269531 130.453125 L 321.769531 130.453125 L 321.769531 244.453125 L 53.269531 244.453125 Z M 53.269531 130.453125 "/></clipPath></defs><g id="6d3306b5ab"><rect x="0" width="375" y="0" height="374.999991" style="fill:#ffffff;fill-opacity:1;stroke:none;"/><rect x="0" width="375" y="0" height="374.999991" style="fill:#ffffff;fill-opacity:1;stroke:none;"/><g clip-rule="nonzero" clip-path="url(#403405a65a)"><path style=" stroke:none;fill-rule:nonzero;fill:#ff0000;fill-opacity:1;" d="M 119.179688 87.664062 C 119.179688 73.449219 124.539062 60.492188 133.347656 50.695312 C 134.492188 49.421875 134.410156 47.460938 133.199219 46.25 C 131.894531 44.945312 129.746094 44.96875 128.511719 46.34375 C 118.664062 57.292969 112.671875 71.777344 112.671875 87.664062 C 112.671875 103.578125 118.6875 118.089844 128.570312 129.046875 C 129.808594 130.417969 131.953125 130.441406 133.257812 129.136719 L 133.320312 129.078125 C 134.523438 127.871094 134.542969 125.949219 133.402344 124.6875 C 124.5625 114.882812 119.179688 101.902344 119.179688 87.664062 "/></g><path style=" stroke:none;fill-rule:nonzero;fill:#ff0000;fill-opacity:1;" d="M 132.191406 87.664062 C 132.191406 77.03125 136.113281 67.316406 142.59375 59.886719 C 143.707031 58.605469 143.625 56.675781 142.421875 55.472656 C 141.09375 54.140625 138.90625 54.210938 137.671875 55.628906 C 130.207031 64.199219 125.683594 75.402344 125.683594 87.664062 C 125.683594 99.957031 130.230469 111.183594 137.734375 119.765625 C 138.96875 121.179688 141.152344 121.246094 142.480469 119.914062 C 143.683594 118.710938 143.765625 116.777344 142.644531 115.496094 C 136.136719 108.058594 132.191406 98.324219 132.191406 87.664062 "/><path style=" stroke:none;fill-rule:nonzero;fill:#ff0000;fill-opacity:1;" d="M 145.203125 87.664062 C 145.203125 80.605469 147.703125 74.136719 151.855469 69.082031 C 152.921875 67.785156 152.84375 65.894531 151.65625 64.707031 L 151.65625 64.703125 C 150.285156 63.335938 148.046875 63.46875 146.816406 64.96875 C 141.742188 71.144531 138.699219 79.046875 138.699219 87.664062 C 138.699219 96.3125 141.769531 104.242188 146.875 110.429688 C 148.109375 111.917969 150.34375 112.054688 151.710938 110.6875 L 151.714844 110.683594 C 152.902344 109.492188 152.980469 107.597656 151.90625 106.300781 C 147.722656 101.238281 145.203125 94.746094 145.203125 87.664062 "/><path style=" stroke:none;fill-rule:nonzero;fill:#ff0000;fill-opacity:1;" d="M 158.21875 87.664062 C 158.21875 84.121094 159.351562 80.847656 161.269531 78.175781 C 162.203125 76.882812 162.058594 75.109375 160.933594 73.980469 L 160.929688 73.980469 C 159.527344 72.578125 157.179688 72.726562 156.019531 74.335938 C 153.308594 78.082031 151.710938 82.683594 151.710938 87.664062 C 151.710938 92.675781 153.332031 97.304688 156.078125 101.066406 C 157.242188 102.664062 159.582031 102.8125 160.980469 101.414062 L 160.984375 101.410156 C 162.113281 100.28125 162.253906 98.5 161.316406 97.207031 C 159.367188 94.527344 158.21875 91.230469 158.21875 87.664062 "/><g clip-rule="nonzero" clip-path="url(#020c457f3b)"><path style=" stroke:none;fill-rule:nonzero;fill:#ff0000;fill-opacity:1;" d="M 255.820312 87.664062 C 255.820312 101.8125 250.507812 114.722656 241.761719 124.503906 C 240.625 125.777344 240.710938 127.730469 241.917969 128.941406 C 243.253906 130.273438 245.417969 130.183594 246.671875 128.777344 C 256.410156 117.851562 262.328125 103.449219 262.328125 87.664062 C 262.328125 71.90625 256.4375 57.53125 246.734375 46.617188 C 245.480469 45.207031 243.308594 45.113281 241.976562 46.449219 L 241.972656 46.453125 C 240.765625 47.65625 240.679688 49.609375 241.816406 50.878906 C 250.527344 60.65625 255.820312 73.539062 255.820312 87.664062 "/></g><path style=" stroke:none;fill-rule:nonzero;fill:#ff0000;fill-opacity:1;" d="M 242.808594 87.664062 C 242.808594 98.234375 238.929688 107.898438 232.515625 115.3125 C 231.410156 116.59375 231.496094 118.519531 232.695312 119.714844 C 234.027344 121.050781 236.21875 120.980469 237.453125 119.554688 C 244.84375 111 249.316406 99.855469 249.316406 87.664062 C 249.316406 75.503906 244.867188 64.382812 237.511719 55.839844 C 236.277344 54.410156 234.085938 54.339844 232.75 55.675781 L 232.746094 55.675781 C 231.550781 56.871094 231.464844 58.792969 232.566406 60.074219 C 238.949219 67.480469 242.808594 77.117188 242.808594 87.664062 "/><path style=" stroke:none;fill-rule:nonzero;fill:#ff0000;fill-opacity:1;" d="M 229.796875 87.664062 C 229.796875 94.660156 227.339844 101.082031 223.246094 106.117188 C 222.1875 107.417969 222.273438 109.296875 223.457031 110.476562 L 223.457031 110.480469 C 224.832031 111.855469 227.082031 111.714844 228.304688 110.207031 C 233.304688 104.054688 236.300781 96.207031 236.300781 87.664062 C 236.300781 79.148438 233.328125 71.332031 228.363281 65.191406 C 227.140625 63.675781 224.886719 63.535156 223.511719 64.910156 L 223.507812 64.914062 C 222.328125 66.09375 222.242188 67.96875 223.292969 69.269531 C 227.359375 74.292969 229.796875 80.695312 229.796875 87.664062 "/><path style=" stroke:none;fill-rule:nonzero;fill:#ff0000;fill-opacity:1;" d="M 216.78125 87.664062 C 216.78125 91.148438 215.683594 94.375 213.816406 97.023438 C 212.90625 98.316406 213.050781 100.074219 214.171875 101.195312 L 214.175781 101.199219 C 215.585938 102.605469 217.945312 102.449219 219.097656 100.828125 C 221.734375 97.109375 223.289062 92.566406 223.289062 87.664062 C 223.289062 82.792969 221.757812 78.28125 219.152344 74.578125 C 218.003906 72.945312 215.636719 72.785156 214.226562 74.199219 L 214.222656 74.203125 C 213.105469 75.316406 212.957031 77.070312 213.859375 78.363281 C 215.699219 81 216.78125 84.203125 216.78125 87.664062 "/><path style=" stroke:none;fill-rule:nonzero;fill:#ff0000;fill-opacity:1;" d="M 199.125 76.285156 C 196.167969 73.269531 192.054688 71.394531 187.5 71.394531 C 183.039062 71.394531 179 73.191406 176.0625 76.097656 C 173.082031 79.046875 171.234375 83.136719 171.234375 87.664062 C 171.234375 92.214844 173.105469 96.332031 176.125 99.285156 C 179.058594 102.15625 183.070312 103.929688 187.5 103.929688 C 192.023438 103.929688 196.117188 102.082031 199.0625 99.101562 C 201.96875 96.160156 203.769531 92.121094 203.769531 87.664062 C 203.769531 83.234375 201.996094 79.21875 199.125 76.285156 "/><g clip-rule="nonzero" clip-path="url(#432dd17cf9)"><path style=" stroke:none;fill-rule:nonzero;fill:#ff0000;fill-opacity:1;" d="M 70.640625 130.457031 L 304.394531 130.457031 C 304.957031 130.457031 305.519531 130.484375 306.078125 130.539062 C 306.636719 130.597656 307.195312 130.679688 307.746094 130.789062 C 308.296875 130.898438 308.839844 131.035156 309.378906 131.195312 C 309.917969 131.359375 310.445312 131.546875 310.964844 131.761719 C 311.484375 131.980469 311.992188 132.21875 312.488281 132.484375 C 312.984375 132.75 313.464844 133.035156 313.933594 133.347656 C 314.402344 133.660156 314.851562 133.996094 315.289062 134.351562 C 315.722656 134.707031 316.136719 135.085938 316.535156 135.480469 C 316.933594 135.878906 317.308594 136.292969 317.667969 136.730469 C 318.023438 137.164062 318.359375 137.613281 318.671875 138.082031 C 318.984375 138.546875 319.273438 139.027344 319.535156 139.523438 C 319.800781 140.019531 320.042969 140.527344 320.257812 141.046875 C 320.472656 141.566406 320.660156 142.09375 320.824219 142.628906 C 320.988281 143.167969 321.125 143.710938 321.234375 144.261719 C 321.34375 144.816406 321.425781 145.371094 321.480469 145.929688 C 321.535156 146.488281 321.5625 147.046875 321.5625 147.609375 L 321.5625 227.304688 C 321.5625 227.867188 321.535156 228.425781 321.480469 228.984375 C 321.425781 229.546875 321.34375 230.101562 321.234375 230.652344 C 321.125 231.203125 320.988281 231.746094 320.824219 232.285156 C 320.660156 232.820312 320.472656 233.351562 320.257812 233.867188 C 320.042969 234.386719 319.800781 234.894531 319.535156 235.390625 C 319.273438 235.886719 318.984375 236.367188 318.671875 236.835938 C 318.359375 237.300781 318.023438 237.75 317.667969 238.1875 C 317.308594 238.621094 316.933594 239.035156 316.535156 239.433594 C 316.136719 239.832031 315.722656 240.207031 315.289062 240.5625 C 314.851562 240.917969 314.402344 241.253906 313.933594 241.566406 C 313.464844 241.878906 312.984375 242.167969 312.488281 242.429688 C 311.992188 242.695312 311.484375 242.9375 310.964844 243.152344 C 310.445312 243.367188 309.917969 243.554688 309.378906 243.71875 C 308.839844 243.882812 308.296875 244.015625 307.746094 244.128906 C 307.195312 244.238281 306.636719 244.320312 306.078125 244.375 C 305.519531 244.429688 304.957031 244.457031 304.394531 244.457031 L 70.640625 244.457031 C 70.078125 244.457031 69.515625 244.429688 68.957031 244.375 C 68.398438 244.320312 67.84375 244.238281 67.289062 244.128906 C 66.738281 244.015625 66.195312 243.882812 65.65625 243.71875 C 65.117188 243.554688 64.589844 243.367188 64.070312 243.152344 C 63.550781 242.9375 63.042969 242.695312 62.546875 242.429688 C 62.050781 242.167969 61.570312 241.878906 61.101562 241.566406 C 60.632812 241.253906 60.183594 240.917969 59.75 240.5625 C 59.3125 240.207031 58.898438 239.832031 58.5 239.433594 C 58.101562 239.035156 57.726562 238.621094 57.367188 238.1875 C 57.011719 237.75 56.675781 237.300781 56.363281 236.835938 C 56.050781 236.367188 55.765625 235.886719 55.5 235.390625 C 55.234375 234.894531 54.992188 234.386719 54.777344 233.867188 C 54.5625 233.351562 54.375 232.820312 54.210938 232.285156 C 54.046875 231.746094 53.910156 231.203125 53.800781 230.652344 C 53.691406 230.101562 53.609375 229.546875 53.554688 228.984375 C 53.5 228.425781 53.472656 227.867188 53.472656 227.304688 L 53.472656 147.609375 C 53.472656 147.046875 53.5 146.488281 53.554688 145.929688 C 53.609375 145.371094 53.691406 144.816406 53.800781 144.261719 C 53.910156 143.710938 54.046875 143.167969 54.210938 142.628906 C 54.375 142.09375 54.5625 141.566406 54.777344 141.046875 C 54.992188 140.527344 55.234375 140.019531 55.5 139.523438 C 55.765625 139.027344 56.050781 138.546875 56.363281 138.082031 C 56.675781 137.613281 57.011719 137.164062 57.367188 136.730469 C 57.726562 136.292969 58.101562 135.878906 58.5 135.480469 C 58.898438 135.085938 59.3125 134.707031 59.75 134.351562 C 60.183594 133.996094 60.632812 133.660156 61.101562 133.347656 C 61.570312 133.035156 62.050781 132.75 62.546875 132.484375 C 63.042969 132.21875 63.550781 131.980469 64.070312 131.761719 C 64.589844 131.546875 65.117188 131.359375 65.65625 131.195312 C 66.195312 131.035156 66.738281 130.898438 67.289062 130.789062 C 67.84375 130.679688 68.398438 130.597656 68.957031 130.539062 C 69.515625 130.484375 70.078125 130.457031 70.640625 130.457031 Z M 70.640625 130.457031 "/></g><path style=" stroke:none;fill-rule:nonzero;fill:#ffffff;fill-opacity:1;" d="M 165.027344 161.339844 L 157.140625 161.339844 L 157.140625 213.578125 L 188.71875 213.578125 L 188.71875 206.792969 L 165.027344 206.792969 Z M 165.027344 161.339844 "/><path style=" stroke:none;fill-rule:nonzero;fill:#ffffff;fill-opacity:1;" d="M 197.707031 161.339844 L 205.597656 161.339844 L 205.597656 213.574219 L 197.707031 213.574219 Z M 197.707031 161.339844 "/><path style=" stroke:none;fill-rule:nonzero;fill:#ffffff;fill-opacity:1;" d="M 236.796875 203.882812 L 236.207031 203.882812 L 221.65625 161.339844 L 213.128906 161.339844 L 231.945312 213.578125 L 241.058594 213.578125 L 259.875 161.339844 L 251.347656 161.339844 Z M 236.796875 203.882812 "/><path style=" stroke:none;fill-rule:nonzero;fill:#ffffff;fill-opacity:1;" d="M 275.296875 206.792969 L 275.296875 190.800781 L 298.480469 190.800781 L 298.480469 184.039062 L 275.296875 184.039062 L 275.296875 168.125 L 300.1875 168.125 L 300.1875 161.339844 L 267.40625 161.339844 L 267.40625 213.578125 L 300.496094 213.578125 L 300.496094 206.792969 Z M 275.296875 206.792969 "/><path style=" stroke:none;fill-rule:nonzero;fill:#ffffff;fill-opacity:1;" d="M 119.171875 168.992188 C 119.777344 169.59375 120.351562 170.226562 120.894531 170.890625 C 121.4375 171.550781 121.945312 172.238281 122.421875 172.949219 C 122.898438 173.660156 123.339844 174.390625 123.742188 175.148438 C 124.144531 175.902344 124.511719 176.671875 124.839844 177.464844 C 125.167969 178.253906 125.453125 179.058594 125.703125 179.878906 C 125.953125 180.695312 126.160156 181.523438 126.328125 182.363281 C 126.492188 183.203125 126.617188 184.046875 126.703125 184.898438 C 126.785156 185.75 126.828125 186.605469 126.828125 187.457031 C 126.828125 188.3125 126.785156 189.167969 126.703125 190.019531 C 126.617188 190.871094 126.492188 191.714844 126.328125 192.554688 C 126.160156 193.394531 125.953125 194.222656 125.703125 195.039062 C 125.453125 195.859375 125.167969 196.664062 124.839844 197.453125 C 124.511719 198.246094 124.144531 199.015625 123.742188 199.769531 C 123.339844 200.527344 122.898438 201.257812 122.421875 201.96875 C 121.945312 202.679688 121.4375 203.367188 120.894531 204.027344 C 120.351562 204.691406 119.777344 205.324219 119.171875 205.925781 C 118.566406 206.53125 117.933594 207.105469 117.269531 207.648438 C 116.609375 208.191406 115.921875 208.699219 115.210938 209.175781 C 114.496094 209.652344 113.765625 210.089844 113.007812 210.492188 C 112.253906 210.898438 111.480469 211.261719 110.691406 211.589844 C 109.898438 211.917969 109.09375 212.203125 108.273438 212.453125 C 107.453125 212.699219 106.625 212.910156 105.785156 213.074219 C 104.945312 213.242188 104.097656 213.367188 103.246094 213.453125 C 102.394531 213.535156 101.539062 213.578125 100.683594 213.578125 C 99.828125 213.578125 98.972656 213.535156 98.121094 213.453125 C 97.269531 213.367188 96.421875 213.242188 95.585938 213.074219 C 94.746094 212.910156 93.914062 212.699219 93.09375 212.453125 C 92.277344 212.203125 91.46875 211.917969 90.679688 211.589844 C 89.886719 211.261719 89.117188 210.898438 88.359375 210.492188 C 87.605469 210.089844 86.871094 209.652344 86.160156 209.175781 C 85.449219 208.699219 84.761719 208.191406 84.097656 207.648438 C 83.4375 207.105469 82.804688 206.53125 82.199219 205.925781 C 81.59375 205.324219 81.019531 204.691406 80.476562 204.027344 C 79.929688 203.367188 79.421875 202.679688 78.945312 201.96875 C 78.46875 201.257812 78.03125 200.527344 77.628906 199.769531 C 77.222656 199.015625 76.859375 198.246094 76.53125 197.453125 C 76.203125 196.664062 75.914062 195.859375 75.664062 195.039062 C 75.417969 194.222656 75.210938 193.394531 75.042969 192.554688 C 74.875 191.714844 74.75 190.871094 74.667969 190.019531 C 74.582031 189.167969 74.539062 188.3125 74.539062 187.457031 C 74.539062 186.605469 74.582031 185.75 74.667969 184.898438 C 74.75 184.046875 74.875 183.203125 75.042969 182.363281 C 75.210938 181.523438 75.417969 180.695312 75.664062 179.878906 C 75.914062 179.058594 76.203125 178.253906 76.53125 177.464844 C 76.859375 176.671875 77.222656 175.902344 77.628906 175.148438 C 78.03125 174.390625 78.46875 173.660156 78.945312 172.949219 C 79.421875 172.238281 79.929688 171.550781 80.476562 170.890625 C 81.019531 170.226562 81.59375 169.59375 82.199219 168.992188 C 82.804688 168.386719 83.4375 167.8125 84.097656 167.269531 C 84.761719 166.726562 85.449219 166.21875 86.160156 165.742188 C 86.871094 165.265625 87.605469 164.828125 88.359375 164.425781 C 89.117188 164.019531 89.886719 163.65625 90.679688 163.328125 C 91.46875 163 92.277344 162.714844 93.09375 162.464844 C 93.914062 162.21875 94.746094 162.007812 95.585938 161.84375 C 96.425781 161.675781 97.269531 161.550781 98.121094 161.464844 C 98.972656 161.382812 99.828125 161.339844 100.683594 161.339844 C 101.539062 161.339844 102.394531 161.382812 103.246094 161.464844 C 104.097656 161.550781 104.945312 161.675781 105.785156 161.84375 C 106.625 162.007812 107.453125 162.21875 108.273438 162.464844 C 109.09375 162.714844 109.898438 163 110.691406 163.328125 C 111.480469 163.65625 112.253906 164.019531 113.007812 164.425781 C 113.765625 164.828125 114.496094 165.265625 115.210938 165.742188 C 115.921875 166.21875 116.609375 166.726562 117.269531 167.269531 C 117.933594 167.8125 118.566406 168.386719 119.171875 168.992188 Z M 119.171875 168.992188 "/></g></svg>