<?xml version="1.0" encoding="utf-8"?>
<!-- Generator: Adobe Illustrator 19.0.0, SVG Export Plug-In . SVG Version: 6.00 Build 0)  -->
<svg version="1.1" id="Layer_1" xmlns="http://www.w3.org/2000/svg" xmlns:xlink="http://www.w3.org/1999/xlink" x="0px" y="0px"
	 viewBox="0 0 120 120.2" style="enable-background:new 0 0 120 120.2;" xml:space="preserve">
<style type="text/css">
	.st0{fill:#0168B7;}
	.st1{fill:#FFFFFF;}
</style>
<g id="XMLID_2_">
	<path id="XMLID_92_" class="st0" d="M119.9,60.3c0,15.8-0.2,31.6,0.1,47.4c0.1,7.4-5.5,12.5-12.4,12.5c-31.7-0.1-63.4-0.1-95.1,0
		c-7.3,0-12.6-5.3-12.5-12.4C0.2,76,0.2,44.2,0,12.4C0,5.2,5.4,0,12.3,0c31.8,0.1,63.5,0.1,95.3,0c6.9,0,12.5,5.1,12.4,12.5
		C119.7,28.4,119.9,44.4,119.9,60.3z M60,114c14.3,0,28.6,0,42.9,0c6.7,0,11-4.2,11-10.9c0-28.6,0-57.3,0-85.9
		c0-6.7-4.3-10.9-11-10.9c-28.6,0-57.1,0-85.7,0c-6.7,0-11,4.2-11,10.9c0,28.6,0,57.3,0,85.9c0,6.7,4.3,10.9,11,10.9
		C31.4,114,45.7,114,60,114z"/>
	<path id="XMLID_89_" class="st1" d="M60,114c-14.3,0-28.6,0-42.9,0c-6.7,0-11-4.2-11-10.9c0-28.6,0-57.3,0-85.9
		c0-6.7,4.3-10.9,11-10.9c28.6,0,57.1,0,85.7,0c6.7,0,11,4.2,11,10.9c0,28.6,0,57.3,0,85.9c0,6.7-4.3,10.9-11,10.9
		C88.6,114,74.3,114,60,114z M110.8,60.3c0-14.3,0-28.6,0-42.9c0-5.4-2.8-8.3-8.3-8.3c-28.4,0-56.7,0-85.1,0c-5.4,0-8.3,2.8-8.3,8.3
		c0,28.4,0,56.9,0,85.3c0,5.5,2.8,8.3,8.3,8.3c28.4,0,56.7,0,85.1,0c5.5,0,8.3-2.8,8.3-8.3C110.8,88.6,110.8,74.5,110.8,60.3z"/>
	<path id="XMLID_85_" class="st0" d="M110.8,60.3c0,14.1,0,28.3,0,42.4c0,5.4-2.8,8.3-8.3,8.3c-28.4,0-56.7,0-85.1,0
		c-5.5,0-8.3-2.8-8.3-8.3c0-28.4,0-56.9,0-85.3c0-5.4,2.8-8.3,8.3-8.3c28.4,0,56.7,0,85.1,0c5.4,0,8.2,2.8,8.3,8.3
		C110.8,31.8,110.8,46,110.8,60.3z M30.3,54.6c1.4,0,2.5,0,3.5,0c4.8-0.1,9.6,0.1,14.3-0.5c9.9-1.3,15.9-8.9,15.6-19.1
		c-0.3-10.2-7.1-17.5-17.2-17.9c-8.9-0.4-17.7-0.2-26.6-0.3c-3,0-3,0-3,3c0,17.5,0,35.1,0,52.6c0,0.4,0,0.7,0,1.1
		c-0.1,1.4,0.5,1.9,1.9,1.9c2.8-0.1,5.6,0,8.4,0c3,0,3,0,3-3.1C30.3,66.5,30.3,60.7,30.3,54.6z M93.1,102c-0.1,0.2-0.1,0.3-0.2,0.5
		c0.8,0.8,1.6,2.1,2.6,2.3c1.8,0.4,3.7,0.2,5.6,0.1c0.6,0,1.3-0.5,1.6-1c0.7-1.3,1.7-2.7,1.9-4.1c0.8-6.8,2.2-13.6-1.1-20.2
		c-0.8-1.6-1.4-3.3-2-4.9c1.1-0.3,2-0.3,2.7-0.7c0.7-0.5,1.5-1.3,1.6-2c0-0.5-0.9-1.4-1.6-1.7c-1-0.4-2.1-0.6-3.2-0.5
		c-1.5,0.2-1.8-0.6-2.5-1.6c-2-3-4.2-5.8-6.6-8.5c-0.6-0.7-1.8-1-2.7-1.1c-5.8-0.1-11.7,0.4-17.5-0.2c-5.9-0.6-9.1,2.6-11.9,6.8
		c-0.7,1.1-1.2,2.3-1.9,3.4c-0.4,0.6-1.2,1-1.9,1.2c-1.2,0.3-2.5,0.2-3.6,0.6c-0.7,0.2-1.6,1.2-1.5,1.7c0.1,0.7,0.9,1.5,1.6,2
		c0.7,0.4,1.6,0.5,2.5,0.7c0,0.2,0,0.3,0,0.4c-0.1,0.3-0.1,0.6-0.3,0.8c-3.2,6-4.2,12.4-3.5,19.2c0.3,3.1,1.7,5.7,2.5,8.6
		c0.1,0.4,0.6,0.9,0.9,0.9c2.2,0.1,4.5,0.5,6.6,0.1c0.9-0.1,1.6-1.7,2.4-2.7C73.1,102,83.1,102,93.1,102z"/>
	<path id="XMLID_82_" class="st1" d="M30.3,54.6c0,6.1,0,11.9,0,17.7c0,3.1,0,3.1-3,3.1c-2.8,0-5.6-0.1-8.4,0c-1.4,0-2-0.5-1.9-1.9
		c0-0.4,0-0.7,0-1.1c0-17.5,0-35.1,0-52.6c0-3,0-3,3-3c8.9,0.1,17.8-0.1,26.6,0.3c10.1,0.4,16.8,7.7,17.2,17.9
		c0.3,10.2-5.7,17.8-15.6,19.1c-4.7,0.6-9.5,0.3-14.3,0.5C32.8,54.6,31.7,54.6,30.3,54.6z M37.5,44.1c0,0,0-0.1,0-0.1c2,0,4,0.2,6,0
		c4.7-0.4,7.1-3.1,7.3-7.8c0.2-4.9-2-7.9-6.8-8.4c-4.1-0.4-8.2-0.3-12.3-0.4c-0.5,0-1.3,0.9-1.3,1.3c-0.1,4.6-0.1,9.2,0,13.8
		c0,0.5,0.9,1.4,1.5,1.5C33.7,44.2,35.6,44.1,37.5,44.1z"/>
	<path id="XMLID_75_" class="st1" d="M93.1,102c-10,0-20,0-29.8,0c-0.8,1-1.5,2.6-2.4,2.7c-2.1,0.3-4.4,0-6.6-0.1
		c-0.3,0-0.8-0.5-0.9-0.9c-0.8-2.9-2.2-5.5-2.5-8.6c-0.7-6.8,0.2-13.2,3.5-19.2c0.1-0.3,0.2-0.5,0.3-0.8c0-0.1,0-0.3,0-0.4
		c-0.8-0.2-1.8-0.2-2.5-0.7c-0.7-0.4-1.5-1.3-1.6-2c-0.1-0.5,0.9-1.5,1.5-1.7c1.1-0.4,2.4-0.3,3.6-0.6c0.7-0.2,1.5-0.6,1.9-1.2
		c0.8-1,1.2-2.3,1.9-3.4c2.8-4.2,6-7.4,11.9-6.8c5.8,0.6,11.7,0.1,17.5,0.2c0.9,0,2.1,0.4,2.7,1.1c2.3,2.7,4.5,5.6,6.6,8.5
		c0.7,1,1.1,1.8,2.5,1.6c1-0.1,2.2,0.1,3.2,0.5c0.7,0.3,1.7,1.2,1.6,1.7c-0.1,0.7-0.9,1.6-1.6,2c-0.7,0.4-1.6,0.4-2.7,0.7
		c0.7,1.7,1.2,3.3,2,4.9c3.3,6.6,1.9,13.4,1.1,20.2c-0.2,1.4-1.1,2.8-1.9,4.1c-0.3,0.5-1,0.9-1.6,1c-1.9,0.1-3.8,0.3-5.6-0.1
		c-1-0.2-1.7-1.5-2.6-2.3C92.9,102.3,93,102.2,93.1,102z M98.2,71.4c-1.9-3.2-3.5-6-5.3-8.6c-0.5-0.7-1.8-1.3-2.7-1.3
		c-8.2-0.1-16.4-0.1-24.6,0c-0.5,0-1.3,0-1.6,0.3c-2.6,2.7-4.5,5.8-5.6,9.6C71.6,71.4,84.5,71.4,98.2,71.4z M78,99.8
		c4.6-0.4,9.3-0.8,13.9-1.2c1.1-0.1,2.2-0.1,2.1-1.8c-0.1-1.6-1-1.6-2.2-1.6c-6.5,0.2-13,0.4-19.4,0.4c-2.9,0-5.8-0.2-8.6-0.4
		c-1.3-0.1-1.8,0.6-1.6,1.7c0.1,0.6,0.9,1.5,1.4,1.6C68.3,99,73.1,99.4,78,99.8z M64.8,86.4c4.6,3.1,23.4,2.9,26,0
		C82.3,86.4,73.6,86.4,64.8,86.4z M62.4,87c0.1-0.2,0.3-0.4,0.4-0.6c-1.4-2-2.7-4-4.3-5.8c-0.5-0.5-1.9-0.7-2.6-0.4
		c-1,0.5-1.9,1.4-2.5,2.4c-0.2,0.3,1,1.7,1.8,2C57.5,85.6,60,86.2,62.4,87z M93.2,86.4c0.2,0.2,0.3,0.4,0.5,0.6
		c2.5-0.8,5-1.5,7.4-2.5c0.7-0.3,1.5-1.6,1.4-2.3c-0.3-2-4-3-5.3-1.4C95.7,82.6,94.5,84.5,93.2,86.4z"/>
	<path id="XMLID_74_" class="st0" d="M37.5,44.1c-1.9,0-3.8,0.1-5.6-0.1c-0.6-0.1-1.5-1-1.5-1.5c-0.1-4.6-0.1-9.2,0-13.8
		c0-0.5,0.9-1.3,1.3-1.3c4.1,0,8.2-0.1,12.3,0.4c4.8,0.5,6.9,3.5,6.8,8.4c-0.2,4.7-2.6,7.4-7.3,7.8c-2,0.2-4,0-6,0
		C37.5,44,37.5,44,37.5,44.1z"/>
	<path id="XMLID_73_" class="st0" d="M98.2,71.4c-13.7,0-26.6,0-39.8,0c1-3.8,2.9-6.9,5.6-9.6c0.3-0.3,1.1-0.3,1.6-0.3
		c8.2,0,16.4-0.1,24.6,0c0.9,0,2.2,0.6,2.7,1.3C94.7,65.5,96.3,68.3,98.2,71.4z"/>
	<path id="XMLID_72_" class="st0" d="M78,99.8c-4.9-0.4-9.7-0.8-14.5-1.3c-0.5-0.1-1.3-0.9-1.4-1.6c-0.2-1.1,0.4-1.7,1.6-1.7
		c2.9,0.2,5.8,0.4,8.6,0.4c6.5,0,13-0.2,19.4-0.4c1.2,0,2.1,0,2.2,1.6c0.1,1.7-0.9,1.7-2.1,1.8C87.3,99,82.6,99.4,78,99.8z"/>
	<path id="XMLID_71_" class="st0" d="M64.8,86.4c8.8,0,17.5,0,26,0C88.2,89.3,69.4,89.5,64.8,86.4z"/>
	<path id="XMLID_70_" class="st0" d="M62.4,87c-2.4-0.7-4.9-1.4-7.2-2.3c-0.8-0.3-1.9-1.7-1.8-2c0.5-1,1.5-1.9,2.5-2.4
		c0.7-0.3,2.2-0.2,2.6,0.4c1.6,1.8,2.9,3.8,4.3,5.8C62.6,86.6,62.5,86.8,62.4,87z"/>
	<path id="XMLID_69_" class="st0" d="M93.2,86.4c1.3-1.9,2.5-3.8,3.9-5.6c1.3-1.6,5-0.7,5.3,1.4c0.1,0.7-0.7,2-1.4,2.3
		c-2.4,1-4.9,1.7-7.4,2.5C93.5,86.8,93.4,86.6,93.2,86.4z"/>
</g>
</svg>
