<?xml version="1.0" encoding="utf-8"?>
<!-- Generator: Adobe Illustrator 19.0.0, SVG Export Plug-In . SVG Version: 6.00 Build 0)  -->
<svg version="1.1" id="Layer_1" xmlns="http://www.w3.org/2000/svg" xmlns:xlink="http://www.w3.org/1999/xlink" x="0px" y="0px"
	 viewBox="0 0 359.2 321" style="enable-background:new 0 0 359.2 321;" xml:space="preserve">
<style type="text/css">
	.st0{fill:#FFFFFF;}
	.st1{fill:#DA55F4;}
	.st2{fill:#F6B04F;}
	.st3{fill:#E92A4E;}
	.st4{fill:#3369C7;}
	.st5{fill:#62C6DE;}
</style>
<g id="XMLID_3_">
	<path id="XMLID_18_" class="st0" d="M60,193.8c-0.1,0-0.1-0.1-0.2-0.1c0,0,1.2,0.7,3.2,0.7c3.3,0,5.7-2,6.6-3.4c0,0,0,0-0.1,0
		c0,0,0,0,0.1,0c0.2-0.3,0.3-0.5,0.4-0.7L50.6,186c0.1,0.8,0.5,2.6,2.1,4.3c1.7,1.7,3.7,2.3,5.1,2.3c0.2,0,0.4,0,0.4,0l-36.1,5.5
		l25.3-20.8l-0.7-1.5l4.4-5.1c2-2.3,4.8-3.6,7.8-3.6c0.3,0,0.6,0,0.9,0l4.5-3.2l5.8,4.2c1.5,1.1,2.6,2.4,3.3,4
		c1.4,0.9,2.5,2.2,3.3,3.7l2.6,4.9l-2.7,4.8c-0.3,0.4-0.5,0.8-0.8,1.2l-1.9,16.9L60,193.8z"/>
	<path id="XMLID_21_" class="st0" d="M38.7,208.6l-8.9,5.2l-3.9-9.9l-20.3-4.5l17.5-11.5c0.2-1.1,0.5-2.2,0.7-2.8l2.6-6.3h6.3
		c0.1,0,0.3,0,0.4,0h0.2l4.7-5.1l7.2,6.8c1.1,0.9,1.8,1.9,2.4,2.9l14.4,3.1l-11.5,12.4L50.6,215L38.7,208.6z"/>
	<path id="XMLID_20_" class="st0" d="M38,197.1l-11-2.2l7.7-11.7l-5.9-13.4l16.5,2.6l15.6-19.7v24.8l3.7,1.2l0,7.2
		c0,1.6-0.4,3.5-1.4,5.2l7.9,27.9l-18-14.8l-9.1,21.1L38,197.1z"/>
	<path id="XMLID_17_" class="st0" d="M64.7,186.4L47.6,174l10.4-2.7l-3.5-4.7l15.8-2.7l8.4-21.2l8.1,25.2l33.4,9.7l-36.3,8.9
		c0.7-0.2,3-1.3,4.1-4.2c1.2-2.9,0.3-5.3-0.1-5.9l-14.9,13c0,0,1.4,1.1,3.8,1.1c3.9,0,6.3-2.6,6.7-3.8l-12.5,31.7L64.7,186.4z"/>
	<polygon id="XMLID_16_" class="st0" points="78.9,185.3 57.9,181 76.5,169.7 75.4,158.5 87.9,161.4 97.2,157.4 100.4,165.3 
		120,169.5 103,181.2 98,201.4 92.4,194.5 83,213.1 	"/>
	<path id="XMLID_15_" class="st0" d="M93.2,185l-21.4-2.5l18.3-12.8l-0.5-1.5l4.5-4.3c2-1.9,4.5-2.9,7.2-2.9c0.1,0,0.1,0,0.2,0
		c1-0.5,2.2-0.8,3.7-0.9l12.5-1.1l-1.8,12.7c0.1-0.9-0.2-3.3-2.1-5.3c-1.7-1.9-3.9-2.6-5.4-2.6c0.1,0.1,0.2,0.2,0.3,0.2l-0.5,0.6
		l5,18.2c0.7-0.3,2.6-1.9,3.2-4.8c0.6-2.8-0.5-5.1-1.1-5.9l14.7,18.4l-22.7-2.1l-12.1,10.3L93.2,185z"/>
	<polygon id="XMLID_14_" class="st0" points="107.5,185.4 78.8,179.1 100.8,170.6 83.5,149.4 115.1,161.5 129,146.1 129.7,165.8 
		143.3,168 131.3,180.5 131.8,190.6 120.5,189.2 109,195.2 	"/>
	<path id="XMLID_13_" class="st0" d="M121.9,187.9l-24-6.5l17.1-7.6l-4.5-5.5l17.1-2.7c0.6-0.1,1.3,0,1.9,0c0,0,0.1,0,0.1,0
		c0.1,0,0.3-0.3,0.4-0.4l13.4-5.6l0.4,14.4c0,0.3,0,0.5,0,0.7c-0.2-2.7-2.4-5.7-5-6.8l0.5,19.4c0.8-0.2,3.3-1.5,4.5-4.6
		c1.2-3.1,0.2-5.8-0.5-6.8l11.4,16.1l-19.8-0.4c-0.2,0-0.4,0-0.5,0l-9.6,4.8L121.9,187.9z"/>
	<path id="XMLID_12_" class="st0" d="M149.4,194.6c2.1-0.9,3.6-2.5,4.1-3.8l-6.6-0.9l-2,2.2l-6-3.3l-4.3-0.6
		c0.1,0.2,0.1,0.3,0.2,0.5c1.6,3.2,4.8,4.8,7.3,5c-1-0.1-3.9-0.3-6.8-2.4L118,178.5l13.1-3l-5.5-16.6l15.7,8.5l6.2-5.9l1,3l11.5-9.8
		l-3,25.4c0.1-0.7-0.1-3.1-2-5.3c-1.1-1.2-2.5-2.1-3.9-2.5l3.1,9.4l-2,2.2l2.1,6.9c0.6-0.4,1.4-1.2,2.1-2.3l3.9,11.9L149.4,194.6z"
		/>
	<polygon id="XMLID_7_" class="st0" points="136,186.8 148.5,171.3 158.9,178.3 149.8,186.9 142.9,193.5 	"/>
	<path id="XMLID_25_" class="st0" d="M171.4,262.9l-9.6-2.1c0,0,3.6-10.7,3.7-10.8l-15.8-22.2l24.4,7.7l5.7-13.2l9.6,14.9l26.8-2.9
		l-18.7,17.6l16,21.2l-26.4-7.9L175.8,280L171.4,262.9z"/>
	<path id="XMLID_23_" class="st0" d="M171.2,245.1l-11.3,1.1l5.4-14.5l-8.3-11.4l16.3-1.6l6.1-13.2l9.2,13.6l14.1-1.2l-6.9,14.6
		l5,7.1l-10.6,5c-0.8,0.4-1.6,0.7-2.4,0.9l-11,24.1L171.2,245.1z"/>
	<path id="XMLID_34_" class="st0" d="M296.5,214.7c-9.8,0-17.6-7.6-17.8-17.4c-0.1-4.7,1.8-9.3,5.1-12.7c3.4-3.4,7.9-5.3,12.6-5.3
		c0.2,0,0.3,0,0.5,0c4.9,0.1,9.4,2.1,12.6,5.6c3.1,3.3,4.8,7.7,4.7,12.2c0,4.7-1.8,9.1-5,12.4c-3.3,3.4-7.8,5.2-12.7,5.2H296.5z"/>
	<path id="XMLID_32_" class="st0" d="M280.8,205.9c-9.4,0-17.2-7.6-17.2-17c-0.1-9.6,7.4-17.3,16.9-17.3h0.1
		c9.6,0,17.2,7.4,17.2,16.9c0,9.5-7.3,17.1-16.6,17.3C281.1,205.9,280.9,205.9,280.8,205.9z"/>
	<path id="XMLID_31_" class="st0" d="M265,199.7c-9.1,0-16.2-7.1-16.3-16.3c0-4.3,1.7-8.3,4.7-11.4c3.1-3.1,7.4-4.9,11.8-4.9
		c4.8,0,9.3,2.1,12.5,5.8c2.8,3.2,4.2,7.2,3.9,11.2C281.3,193.1,274.3,199.7,265,199.7L265,199.7z"/>
	<path id="XMLID_29_" class="st0" d="M250.6,197.2c-8.8,0-15.7-6.9-15.7-15.6c-0.1-8.9,6.7-16,15.4-16.1l0.3,0
		c4.4,0,8.7,1.8,11.7,4.9c2.9,3.1,4.5,7,4.3,11.2c-0.3,9-6.9,15.5-15.6,15.5C250.8,197.2,250.7,197.2,250.6,197.2z"/>
	<path id="XMLID_27_" class="st0" d="M237.1,196.7c-4.1,0-7.9-1.6-10.8-4.5c-2.8-2.8-4.4-6.4-4.4-10.4c0-8.2,6.9-15.1,15.1-15.1h0.1
		c8.3,0,15.1,6.5,15.2,14.8c0,4.2-1.5,8-4.3,10.8C245.1,195.1,241.3,196.7,237.1,196.7L237.1,196.7z"/>
	<path id="XMLID_24_" class="st0" d="M224.7,197.8c-7.8,0-14.3-6.3-14.5-14.1c-0.1-3.8,1.4-7.6,4.1-10.4c2.7-2.8,6.4-4.5,10.1-4.6
		l0.3,0c8,0,14.5,6.5,14.5,14.4c0,8-6.4,14.5-14.3,14.7L224.7,197.8z"/>
	<path id="XMLID_19_" class="st0" d="M213.5,200.7c-3.7,0-7.4-1.7-10-4.4c-2.6-2.7-4.1-6.4-3.9-10.2c0.2-7.4,6.4-13.4,13.8-13.4h0.1
		c7.8,0,13.8,6.2,13.9,13.9C227.4,194.4,221.4,200.7,213.5,200.7L213.5,200.7z"/>
	<path id="XMLID_50_" class="st0" d="M169.6,203.3c-0.5-1.1-1-2.1-1.5-3.2c-1-2-1.9-4-2.9-5.8c-4.6-8.9-9.4-16.2-14.5-22.4
		c-7.1-8.7-15-16.3-23.5-22.7c-10.7-8.1-22.4-14.6-34.7-19.3c-9.9-3.8-19.9-6.5-29.9-8.1c-4.6-0.7-9.9-1.6-14.8-1.6
		c-5.1-0.1-9.3-1.8-12.9-5.2c-5.3-5-10.8-10.1-16.2-14.9c-2.3-2.1-4.6-4.2-6.9-6.3l-0.1-0.1c-0.8-0.7-2.8-2.5-4-5.5L3.4,77.2
		l11.4-2.5c3.5-0.8,6.7-0.9,9.5-1l0.4,0c2.1-0.1,4.3-0.1,6.4-0.1c8.7,0,17.2,0.6,25.3,1.8c10.4,1.5,20.6,3.8,30.3,6.8
		c10,3.1,20.1,7.4,29.9,12.8c5.5,3,10.9,6.5,16,10.3c5,3.8,8.9,7.1,12.4,10.3c3.4,3.1,6.3,6.4,9.1,9.6l0.2,0.2
		c9.1,10.4,16.9,22.6,23.1,36.4c4.6,10.2,8.2,21.5,10.9,33.5c0.1,0.6,0.2,1.1,0.3,1.5l0.1,0.5L169.6,203.3z"/>
	<path id="XMLID_49_" class="st0" d="M171.5,196.7c-1.9-5.7-2.6-11.2-3.3-16.5l-0.1-0.8c-1.4-9.9-1.7-19.1-1-28.1
		c0.6-7.9,1.8-15.4,3.6-22.6c1.5-6.2,3.6-12.3,6-18.2c1.8-4.4,4.1-8.9,7.1-14.1c4.3-7.4,9.4-14.5,15.7-21.8c3.5-4,7.4-8,12.4-12.5
		c5.1-4.6,10.8-9.1,17.5-13.7c6.5-4.5,13.5-8.6,20.6-12.1c4.2-2.1,8.1-3.8,11.9-5.2c2.7-1,5.5-1.5,8.2-1.5c10,0,18.3,6.8,20.8,17
		c2.1,8.6-0.5,16.6-7.1,22c-2.7,2.2-5.5,3.3-7.4,4c-10.8,3.9-20.8,9.1-29.7,15.4c-2.8,2-5.6,4-8.2,6.2c-4.2,3.4-7.6,6.2-10.7,9.4
		c-3.9,4-7.3,7.9-10.4,11.8c-4.6,5.8-8.6,11.9-12,18.3c-3.5,6.6-6.5,13.6-9,21.5c-3.7,11.7-5.5,24.3-5.3,38.3L171.5,196.7z"/>
	<path id="XMLID_48_" class="st0" d="M163.7,201.3c-0.5-0.5-0.9-0.9-1.1-1.2c-1.6-2-3.9-3.8-6.4-5.8l-1.2-0.9
		c-0.7-0.6-1.4-1.2-2.2-1.8c-1.7-1.5-3.2-2.7-4.7-3.5c-1.9-1-3.7-2.3-5.2-3.4c-0.3-0.2-0.9-0.6-1.2-0.8c-2.6-0.8-4.5-2.2-5.6-3
		c-0.1-0.1-0.3-0.2-0.4-0.3c-0.7-0.3-1.3-0.6-1.8-0.9c-0.4-0.2-0.9-0.4-1.1-0.5c-2.5-0.5-4.3-1.6-5.3-2.4c-0.9-0.3-1.7-0.7-2.5-1
		c-1.2-0.5-2.4-1-3.4-1.3c-1.6-0.4-3.1-1-4.5-1.4c-1.7-0.6-3.3-1.1-4.6-1.3c-2.2-0.3-4.3-0.8-6.4-1.2c-2.1-0.4-4.1-0.8-6.1-1.1
		c-6.5-0.9-11.4-1.4-16-1.4c-0.5,0-1.1,0-1.6,0c-7.8,0.2-14.5,0.8-20.4,1.9c-0.8,0.1-1.6,0.3-2.5,0.4c-2.8,0.5-5.4,0.9-7.7,1.6
		c-1.8,0.6-3.7,1.2-5.5,1.8c-2,0.7-4,1.3-6,1.9c-1.6,0.5-3.4,1.4-5.3,2.3c-2.2,1-4.6,2.2-7.3,3.1c-2.3,0.8-4.6,1.1-6.9,1.1
		c-3.6,0-7.2-1-10.2-2.9c-0.3-0.2-0.5-0.4-0.8-0.5c-2.8-1-5.1-3.2-6.1-5.9c-0.2-0.5-0.5-1.1-0.8-1.7c-1.4-2.7-3.4-6.9-2.9-12.4
		c0.7-7.2,4.5-12.9,10.9-16.5c4.3-2.4,8.7-3.9,12.6-5.2l1.5-0.5c8.1-2.8,16.3-4.4,25.3-6c6.7-1.2,14-1.8,22.8-1.8c2.5,0,5,0,8.2,0.1
		c5.1,0.1,9,0.5,12.8,1.1c3.4,0.6,6.7,1.4,9.9,2.1c1.6,0.4,3.1,0.7,4.7,1.1c4.3,1,8.3,2.5,10.9,3.5l1.4,0.6c2.2,0.9,4.4,1.8,6.6,2.8
		c2.8,1.2,5.2,2.6,7.5,4c0.9,0.5,1.7,1,2.6,1.5c2.9,1.6,5.6,3.4,8.2,5.2c6.4,4.8,11.7,9.4,16.2,14.1l0.4,0.5
		c3.4,3.6,6.9,7.2,10.1,11.6c0.9,1.2,1.7,2.3,2.5,3.5c1.3,1.8,2.5,3.6,3.8,5.1c0.5,0.7,1,1.4,1.5,2.2l10.1,4l-6.9,6.9l2.9,13
		l-11.4-4.5l-8.3,8.3L163.7,201.3z"/>
	<path id="XMLID_47_" class="st0" d="M35.3,264.1c-2.2,0-4.4-0.4-6.7-1.1c-6.2-1.9-11-6.5-13.1-12.6c-2.1-6-1.3-12.5,2.3-17.8
		c4.7-7,10.3-12.8,14.6-17c8.9-8.7,18.6-16.1,28.7-22c11.2-6.5,22.9-11.2,34.7-13.9c8-1.8,16.2-2.7,24.3-2.7c7,0,14.2,0.7,21.2,2.1
		c13.4,2.6,26,7.3,38.5,14.4l-7.5,18.4c-5.8-1.6-10.7-2.8-15.5-3.5c-5.2-0.8-10.3-1.2-15.4-1.2c-3.2,0-6.5,0.2-9.7,0.5
		c-9.3,0.9-18.5,3.1-27.2,6.4c-8.3,3.1-16.3,7.3-23.9,12.5c-11.2,7.7-20.9,17.2-28.9,28.3C47.4,261,41.8,264.1,35.3,264.1z"/>
	<path id="XMLID_46_" class="st0" d="M177.1,193c1.2-3.1,3-5.5,4.4-7.3l0.5-0.7c6.3-8.5,12.8-15.6,20-21.8
		c10.3-8.9,21.6-15.8,33.8-20.4c13.6-5.2,28.2-7.8,43.5-7.8c3.7,0,7.6,0.2,11.5,0.5c12.8,1,25.7,3.8,38.2,8.1
		c4.2,1.5,9.1,3.3,14.1,6c0.9,0.5,1.5,1,1.8,1.2l0.2,0.1l14.1,10.7l-21.5,8.5c-3.8,1.5-7.5,3-11.2,4.4c-1.4,0.5-2.8,1.1-4.2,1.6
		c-2.1,0.8-4.2,1.6-6.2,2.4c-1.6,0.6-3.2,1-4.9,1c-1.4,0-2.8-0.2-4.1-0.7c-12.1-4-24.6-6-36.9-6c-2.1,0-4.2,0.1-6.3,0.2
		c-21.3,1.2-40.5,7.8-57.3,19.7c-4.4,3.2-8.7,6.8-13.1,11L177.1,193z"/>
	<path id="XMLID_45_" class="st0" d="M164.5,166.8c-1.7-2.1-2.4-4.1-2.9-5.4l-0.2-0.4c-3.4-8.9-5.7-16.5-7.2-23.9
		c-1.9-9.7-2.7-18.6-2.2-27.4c0.7-14.1,4-27.7,9.9-40.6c4.2-9.2,9.6-17.9,16.5-26.7c7-8.9,15.5-17.2,25.8-25.3
		c2.4-1.8,4.7-3.4,7-4.9c0.7-0.5,1.4-0.9,2.1-1.4c1.1-0.7,2.1-1.2,2.8-1.5c0.2-0.1,0.4-0.2,0.7-0.3L235.2,0l-8.1,40.1
		c-0.1,0.6-0.3,1.2-0.4,1.8c-0.3,1.3-0.5,2.5-0.7,3.6c-0.6,3.9-2.5,7.2-5.7,9.7c-5.9,4.7-11.4,10.2-16.5,16.5
		c-7.3,9.1-13.1,19.1-17.2,29.8c-0.2,0.6-0.5,1.4-0.7,2.3c-0.4,1.4-0.8,2.9-1.5,4.6c-0.4,1.1-0.8,2.5-1.1,4.1
		c-0.3,1.2-0.6,2.4-0.9,3.7c-0.6,1.9-1,4.2-1.3,6.9c-0.9,6.8-1.2,12-0.9,16.7c0.1,1.2,0.1,2.5,0.2,3.7c0.1,3.6,0.3,6.9,1,9.9
		c0,0.2,0.1,0.4,0.2,0.6c0.5,1.7,1.3,5,0.4,8.9l-4.7,19.5L164.5,166.8z"/>
	<path id="XMLID_44_" class="st0" d="M156.2,138c-3.6-0.7-6-2.6-7.4-3.7c-0.2-0.1-0.3-0.3-0.5-0.4c-5.1-3.7-9-7.1-12.3-11
		c-7.1-8.2-11.9-17.8-14.3-28.6c-2-9.1-2.3-18-2.5-26.6l0-0.8c-0.1-2-0.1-4-0.1-6c-0.1-5.4-0.2-10.6-0.8-15.6
		c-0.8-7.1-2.4-12.6-5-17.3c-1.8-3.3-4.1-6.6-7.5-10.5l11.1-15.9c5.2,2,10,4.6,14.3,7.9c7.8,5.8,13.4,12.4,17.2,20
		c2.5,5,4.3,10.7,5.4,17.3c0.8,4.7,1.3,9.7,1.4,15.7c0.1,2,0.1,4,0.2,6.1c0.1,5.4,0.3,11,0.5,16.4c0.6,12,3,22,7.1,30.7
		c0.6,1.2,1.3,2.5,2.1,3.9c0.4,0.6,0.7,1.3,1.1,1.9c1.8,2.8,2.3,5.7,1.7,8.8l-2.1,9.7L156.2,138z"/>
	<path id="XMLID_43_" class="st0" d="M304.3,254.9c-1.2,0-2.1-0.2-2.7-0.4l-3.2-0.7c-6.2-1.3-12.5-2.7-18.8-4
		c-2.9-0.6-5.4-2.2-7.2-4.5c-4.6-6-10.2-11.4-17-16.7c-4-3.1-8.7-6-14.2-8.9c-8.3-4.3-17.4-7.2-27.1-8.6c-3.8-0.6-7.7-0.8-11.6-0.8
		c-4.5,0-9.1,0.4-13.8,1.1l-3.5,0.6l-6.8-18.4c3.8-2.3,7.6-3.6,11-4.7l0.4-0.1c6.8-2.2,13.7-3.8,20.4-4.5c3.9-0.4,7.8-0.7,11.6-0.7
		c3.9,0,7.8,0.2,11.6,0.7c4.1,0.5,8.3,1.3,13.4,2.6c6.9,1.8,13.8,4.6,21.3,8.7c6.8,3.6,13.2,8.1,19.6,13.6c5.4,4.6,10.4,9.7,14.7,15
		c4.2,5.1,7.3,9.4,9.8,13.7l0.1,0.1c0.2,0.3,0.5,0.9,0.9,1.5c2.1,4.1,1.5,8.9-1.6,12.2C309.9,253.8,307.2,254.9,304.3,254.9z"/>
	<path id="XMLID_42_" class="st0" d="M83.7,287.9c-8.1,0-14.8-4.6-17.4-12c-1.2-3.5-1.3-7.3-0.1-11c3.5-11.1,8.8-21.5,16.3-31.9
		c3.4-4.8,6.9-8.9,10.6-12.5c5-5,10.5-9.4,16.5-13.1c0.5-0.3,1-0.6,1.5-1c1.4-0.9,3-2,4.8-2.9c11.3-5.9,23.4-9.2,36-10
		c2-0.1,4-0.2,5.9-0.2c5.8,0,11.8,0.5,17.8,1.5c1,0.2,1.8,0.4,2.3,0.6l0.3,0.1l-2.5,19.6c-8.8,0.3-16.7,1.8-24.1,4.5
		c-5.1,1.9-9.3,3.9-13,6.2c-1.5,0.9-3,2-4.6,3.2l-1.5,1.1c-3.9,2.8-6.9,5.2-9.5,7.8c-1,0.9-1.9,2.1-3,3.2c-0.7,0.8-1.4,1.6-2.2,2.4
		c-2.1,2.2-3.9,4.8-6,7.8c-4.8,7-8.6,15.1-11.3,23.9c-2.3,7.7-8.6,12.6-16.4,12.8C84.1,287.9,83.9,287.9,83.7,287.9z"/>
	<path id="XMLID_41_" class="st0" d="M179,321c-2.7,0-5.2-0.6-7.5-1.7c-2.4-1.2-4.2-2.8-5.4-4c-8.3-8.2-14.6-18.1-18.6-29.3
		c-5-14-5.6-28.3-1.6-42.7c2.9-10.5,8.2-20.6,16.2-30.9c1.9-2.4,3.8-4.6,5.6-6.8c0.5-0.6,1-1.2,1.6-1.8c2-2.4,4.8-3.8,7.9-4.2l4-0.5
		l10.3,7.8l-4.9,8.4c-2.5,4.2-4.8,8.2-6.5,12.3c-3.7,9.1-5.3,17.7-4.7,26.4c0.6,10.1,3.6,18.9,9.3,26.9c2.9,4.1,5.8,7.4,9.1,10.2
		c4.3,3.6,6.1,9.2,4.8,14.9C196.5,314.4,188,321,179,321z"/>
	<path id="XMLID_40_" class="st0" d="M109.5,306.9c-2.1-3.2-2.3-6.3-2.4-7.7l0-0.3c-0.9-8.4-0.6-17.3,0.7-26.4
		c1.4-9.2,3.8-18,7.4-26c5.9-13.5,14.7-24.7,25.9-33.3c8.4-6.4,18-11.3,29.5-15c1.8-0.6,3.5-0.7,4.8-0.8l38.2-2.4l-32.1,20.7
		c-1.1,0.7-2.3,1.5-3.4,2.2c-1.8,1.1-3.4,2.1-5,3.2c-4.7,3.2-9,7-12.8,11.4c-3.8,4.4-7.2,9.3-9.9,14.7c-3,5.7-5.2,11.9-6.9,18.7
		c-1.5,5.9-1.9,12.1-2,17.9c-0.1,3.8-1.3,6.9-3.7,9.7c-2.5,3-5.1,6.1-7.6,9.1c-1.1,1.3-2.1,2.6-3.2,3.9c-0.4,0.5-0.8,0.9-1.2,1.3
		l-0.4,0.4l-8.7,9.6L109.5,306.9z"/>
	<path id="XMLID_39_" class="st0" d="M227.9,304.9c-4.4-0.7-8.1-2.5-11-3.9l-0.3-0.1c-12.5-6.2-20.8-16.5-24.6-30.7
		c-1.6-6.1-2.6-12.2-3.5-18.1c-0.3-2-0.6-3.9-0.9-5.9c-2.1-12.5-5.1-20.8-10-27.6c-0.7-0.9-1.4-1.9-2.3-3c-0.5-0.6-0.9-1.2-1.5-1.9
		l-22.5-29.5l34.2,14.2c3.9,1.6,7.5,3.6,11.3,6.1c11.3,7.7,18.7,18.8,22.2,33.2c1.3,5.6,2.2,11.1,3,16.5c0.3,2.1,0.6,4.2,1,6.4
		c0.9,5.7,2.2,11.7,4.7,16.7c1.9,3.7,4.2,6.6,7.1,9c0.9,0.7,1.5,1.4,1.8,1.7l0.1,0.1l6.9,7.2l-7.4,6.9l-3.6,3.4L227.9,304.9z"/>
	<path id="XMLID_38_" class="st0" d="M248.8,276.9c-0.6,0-1.1,0-1.7-0.1c-7.7-0.7-13.2-5.9-14.2-13.5c-0.9-6.4-2.8-12.5-5.6-18.1
		c-2.3-4.5-5.1-8.5-8.4-12c-4-4.2-8.1-7.6-12.6-10.2c-6.7-3.9-13.9-6.5-21.3-7.7c-0.6-0.1-1.2-0.2-2-0.3l-1.2-0.2l1.1-19.8
		c2.3-0.2,4.7-0.2,6.9-0.2c11.5,0,22,1.9,31.9,5.9c6.5,2.6,12.8,6.5,18.7,11.4c12.3,10.4,20.6,24.4,24.8,41.6l0.1,0.4
		c0.7,2.7,1.8,7.3-0.3,12.5C262.5,272.8,256.1,276.9,248.8,276.9z"/>
	<path id="XMLID_37_" class="st0" d="M102.2,93.3c-4.1,0-7.8-2.3-9.9-6c-0.4-0.8-0.9-1.6-1.5-2.4c-0.5,0.3-1,0.6-1.5,0.9
		c-0.2,0.1-0.4,0.3-0.6,0.4l-0.1,0.1c-1,0.7-3.4,2.2-6.7,2.2c-2.6,0-5.2-1-7.1-2.7c-1.1-1-6.2-6.2-1.9-14.2c0.4-0.8,0.8-1.5,1.2-2.3
		c-0.5-0.3-1.1-0.6-1.6-0.9c-1.6-0.9-3-1.8-4.6-3.1L48.1,49.4l25.2-2c1.3-0.1,2.6-0.2,3.8-0.3c0.7-0.1,1.4-0.1,2.1-0.2
		c0-1.2,0-2.3,0-3.4c-0.1-1.3-0.2-4.7,2.3-8l6.6-8.7l8.1,7.2c2.2,2,3.7,4.1,4.9,6c0.1,0,0.1-0.1,0.2-0.1c1-0.6,2-1,2.6-1.3
		c1.9-1.4,4.1-2.1,6.4-2.1c2.4,0,4.8,0.8,6.6,2.4c2.9,2.4,5.4,7.3,2.7,13l-0.8,1.7c-0.3,0.7-0.7,1.5-1,2.2c1.2,0.7,2.5,1.5,3.7,2.4
		c2.6,1.6,4.3,3.8,5.1,6.5l2.4,8.2l-7.8,3.6c-2.6,1.2-5.1,1.2-5.9,1.2c-0.2,0-0.7,0-0.7,0c-0.7,0.1-1.4,0.1-2.1,0.2
		c-0.1,1.9-0.2,3.9-0.3,5.7l-0.4,8.1l-8,1.3C103.3,93.2,102.7,93.3,102.2,93.3z"/>
	<path id="XMLID_36_" class="st0" d="M162.4,70.6c-0.4,0.3-0.9,0.6-1.4,0.9l-0.6,0.3l-16.1,6.4l1.8-16.5c0-0.3,0.1-0.6,0.1-0.9
		c0,0-29.4-10.3-29.4-10.3l29.8-8.8l-5.9-30.6l22.5,21.4l23.7-20.9c0,0-7.4,30.8-7.4,30.8c0.2,0.1,0.3,0.1,0.5,0.2l25.4,10.8
		c0,0-26.6,8.1-26.7,8.1c0,0.2,0,0.5,0.1,0.7l1.7,25.2L162.4,70.6z"/>
	<path id="XMLID_35_" class="st0" d="M273.9,100.1l-19.6,17.5l3.4-26.6c0-0.3,0.1-0.5,0.1-0.8l-29.1-10.1l29.4-8.8l-5.3-25.8
		L274,61.9c0.2,0.1,0.4,0.3,0.6,0.4c0,0,24.2-21.1,24.2-21.1s-8,31.1-8,31.1c0.2,0.1,23,11.4,23,11.4l-23.4,7.1l6.1,30.6
		L273.9,100.1z"/>
	<path id="XMLID_33_" class="st0" d="M57,248.6l-27.9-9.6l28.3-8.8l-5.7-29.6l21.8,20.7l18.3-16c0,0-2.7,25.5-2.7,25.6l22,7.7
		c0,0-22.1,10.6-22.2,10.6l1.1,5.2l-12.5,8.6l-4.9-4.7L50,278.3L57,248.6z"/>
	<path id="XMLID_30_" class="st0" d="M226.2,272.1l-15.6,12.7l0.8-21.8c-0.1,0-18.1-12-18.1-12l17.9-5.3L207,224l19.5,13.6
		l14.9-12.9c0,0-0.1,22-0.1,22l13.2,8.3l-13.3,8.4l4,21.5L226.2,272.1z"/>
	<path id="XMLID_28_" class="st0" d="M130.7,299.8c-0.2-0.5-0.3-1-0.4-1.5l-19.5-6l19.4-11.2l-1.5-23.4l16.1,14.7l10.1-8.4l3.6,16
		c0.1,0.3,0.1,0.6,0.2,1l19.3,6.8l-19.5,10.5l-1.1,11.6l-11.6-3.4c-0.5-0.2-1-0.3-1.5-0.5l-10,4.5L130.7,299.8z"/>
	<polygon id="XMLID_26_" class="st0" points="177.3,281.8 149.3,284.8 169.1,266.9 158.4,253 179,254.1 191.1,236.2 195.6,255.7 
		213.4,258.6 201.7,270.2 207.4,283.1 193,282.7 187.4,295.1 	"/>
	<path id="XMLID_22_" class="st0" d="M13.8,212.2l-11.6-1.5l8.2-13c0.1-0.2,0.2-0.3,0.3-0.6l-7.6-23l20.6,12.3l9.4-4.6l3.4,9.4
		l16.7,2.9l-13.3,12.3l3.5,10.7l-14.5-0.8l-11,12.9L13.8,212.2z"/>
	<path id="XMLID_11_" class="st0" d="M173.9,192.2c0.3-1.2,0.5-2.3,0.8-3.4c0.6-2.5,1.2-5.2,1.9-7.8c2.3-8.5,5.1-16.2,8.6-23.4
		c5.2-10.9,11.8-20.7,19.5-29.1c5.6-6.2,12-11.8,19.6-17.2c0.4-0.3,1.1-0.9,2-1.4c0.6-0.5,1.4-1,2.2-1.4c1-0.7,1.9-1.2,2.6-1.6
		c0.1-0.1,0.3-0.2,0.4-0.2c2.1-1.4,4.6-3,7.7-4.2c5.3-3,10.8-5.1,15.6-6.9c12-4.4,24.7-7.4,37.9-8.7c5.3-0.5,9.9-0.8,14.2-0.8
		c2.8,0,5.5,0.1,8,0.3c11.3,0.9,19.1,10.1,18.7,21.7c-0.4,11.5-9,20.1-20.1,20.1c0,0-0.4,0-0.6,0l-2.1-0.1c-3.2-0.1-6.2-0.2-9.3-0.2
		c-2.9,0-5.4,0.1-7.7,0.2c-11.4,0.8-22.6,3.2-33.3,7c-7.8,2.8-15.2,6.3-22.2,10.6c-10.1,6.2-19.1,13.7-26.7,22.5
		c-7.5,8.7-13.5,18.4-17.9,28.8c-1.1,2.9-3.1,5-5.8,6.4l-19,9.4L173.9,192.2z"/>
	<path id="XMLID_240_" class="st1" d="M178.5,198.9c-1.6-3.3-3-6.3-4.5-9.2c-4.5-8.5-9.5-16.7-15.6-24.1
		c-7.5-9.1-15.8-17.3-25.2-24.4c-11.4-8.6-23.8-15.5-37.2-20.7c-10.3-4-21-6.9-32-8.6c-5.4-0.8-10.7-1.7-16.2-1.8
		c-2.4,0-4.3-0.7-6.2-2.5c-7.6-7.2-15.4-14.2-23.1-21.3c-0.5-0.5-1.2-0.9-1.5-1.8c2.7-0.6,5.4-0.7,8-0.7c10-0.3,20,0.1,29.9,1.6
		c9.7,1.4,19.3,3.5,28.7,6.5c9.8,3.1,19.1,7.1,28.1,12c5.1,2.8,10.1,6,14.7,9.5c4,3,8,6.2,11.6,9.6c3.1,2.8,5.8,6,8.6,9.1
		c9,10.1,15.9,21.6,21.4,33.9c4.5,10.1,7.9,20.7,10.3,31.6C178.4,197.8,178.4,198.1,178.5,198.9z"/>
	<path id="XMLID_239_" class="st2" d="M181,193.6c-1.7-5.1-2.3-10.3-3-15.5c-1.2-8.6-1.6-17.3-0.9-26c0.5-7,1.6-14,3.3-20.9
		c1.4-5.8,3.3-11.4,5.6-16.8c1.8-4.5,4.1-8.7,6.5-12.9c4.2-7.3,9.1-14,14.6-20.3c3.6-4.1,7.5-8,11.6-11.6c5.2-4.7,10.7-9,16.5-12.9
		c6.1-4.3,12.6-8.1,19.3-11.4c3.6-1.8,7.3-3.4,11-4.8c7.1-2.6,13.9,0.7,15.8,8.4c1.1,4.6,0.2,8.7-3.7,11.9c-1.4,1.1-2.9,1.8-4.6,2.4
		c-11.4,4.2-22.1,9.6-32,16.6c-3,2.1-6,4.3-8.8,6.7c-4,3.3-7.9,6.5-11.5,10.2c-3.9,4-7.6,8.2-11.1,12.5c-4.9,6.2-9.3,12.8-13,19.8
		c-4,7.4-7.1,15.2-9.7,23.2C182.5,165.6,180.9,179.5,181,193.6z"/>
	<path id="XMLID_238_" class="st2" d="M172.7,195.7c-1-0.4-1.8-1.2-2.4-1.9c-2.6-3.2-5.9-5.6-9-8.1c-2.7-2.2-5.2-4.6-8.4-6.3
		c-1.4-0.7-2.8-1.7-4.1-2.7c-1.2-0.9-2.5-1.8-4-2.2c-1.8-0.5-3.1-2.1-4.8-2.8c-1.7-0.7-3.3-1.8-5.2-2.1c-1.2-0.2-1.8-1.2-2.9-1.6
		c-2.5-0.9-5-2.1-7.5-2.8c-3.4-0.9-6.7-2.5-10.1-3c-4.2-0.6-8.3-1.7-12.6-2.3c-6.4-0.9-12.8-1.6-19.3-1.4c-7.4,0.2-14.7,0.7-22,2
		c-3.8,0.7-7.7,1.2-11.4,2.4c-3.8,1.2-7.6,2.5-11.5,3.7c-4.4,1.4-8.4,3.9-12.8,5.4c-2.8,0.9-5.9,1-8.6-0.8c-0.8-0.5-1.5-1.3-2.5-1.4
		c-0.1,0-0.4-0.1-0.4-0.2c-1.2-3.1-3.4-5.8-3-9.5c0.4-4.1,2.4-6.8,5.8-8.7c3.9-2.2,8.2-3.5,12.5-5c7.7-2.7,15.8-4.2,23.8-5.6
		c9.6-1.7,19.2-1.8,28.9-1.5c3.8,0.1,7.6,0.4,11.4,1c4.7,0.8,9.4,2.1,14.1,3.1c3.2,0.7,6.2,1.8,9.2,3c2.6,1.1,5.2,2.1,7.8,3.3
		c3.3,1.5,6.3,3.4,9.4,5.1c2.4,1.3,4.8,2.8,7,4.5c5.3,4,10.4,8.2,15,13c3.4,3.6,6.8,7.1,9.8,11.1c2.2,3,4.2,6.1,6.6,9
		C172,193.1,172.4,194.4,172.7,195.7L172.7,195.7z"/>
	<path id="XMLID_236_" class="st3" d="M174.9,202.2c-5.7-1.6-11.1-3-16.7-3.8c-9.1-1.4-18.3-1.7-27.5-0.7c-10.2,1-20.1,3.3-29.7,7
		c-9.2,3.5-17.8,8.1-26,13.6c-12.3,8.4-22.7,18.7-31.4,30.8c-3.4,4.7-7,6.1-12.1,4.5c-6.5-2.1-9.3-9.6-5.5-15.3
		c3.8-5.7,8.4-10.7,13.3-15.4c8.1-7.9,16.9-14.8,26.7-20.5c10-5.8,20.6-10.2,31.9-12.8c13.7-3.1,27.5-3.3,41.3-0.6
		C151.7,191.4,163.5,195.8,174.9,202.2z"/>
	<path id="XMLID_235_" class="st4" d="M339,158.8c-5.6,2.2-10.9,4.3-16.2,6.4c-3.5,1.4-7,2.7-10.4,4.1c-0.8,0.3-1.4,0.3-2.2,0.1
		c-15.2-5-30.9-7.2-46.9-6.3c-22.9,1.2-43.8,8.2-62.6,21.5c-5.1,3.6-9.8,7.7-14.3,12c0.9-2.2,2.3-3.9,3.7-5.8
		c5.5-7.4,11.6-14.2,18.5-20.3c9.2-8,19.4-14.3,30.8-18.6c16.3-6.2,33.2-8.1,50.6-6.7c12.3,1,24.1,3.6,35.7,7.6
		c4.3,1.5,8.6,3.2,12.6,5.4C338.5,158.4,338.6,158.5,339,158.8z"/>
	<path id="XMLID_234_" class="st5" d="M221.4,17.9c-1.4,7-2.8,13.6-4.1,20.2c-0.4,2-0.9,3.9-1.2,5.9c-0.2,1.4-0.8,2.4-2,3.3
		c-6.7,5.3-12.7,11.4-18,18c-7.9,9.8-14.2,20.7-18.7,32.5c-0.8,2.2-1.2,4.6-2.1,6.7c-1.2,2.9-1.6,5.9-2.4,8.8
		c-0.8,2.7-1.3,5.6-1.7,8.4c-0.8,6.1-1.3,12.3-1,18.5c0.3,5.1,0.2,10.3,1.4,15.4c0.4,1.5,1,3,0.6,4.8c-0.8-0.9-1.1-2-1.5-3.1
		c-2.8-7.2-5.2-14.6-6.7-22.3c-1.6-8.2-2.5-16.6-2-24.9c0.6-12.9,3.7-25.2,9-36.9c4.1-8.9,9.3-17,15.3-24.7
		c7-8.9,15.2-16.6,24.1-23.6c2.7-2.1,5.7-4,8.6-5.9C219.7,18.7,220.4,18.4,221.4,17.9z"/>
	<path id="XMLID_233_" class="st5" d="M113.3,11c4.3,1.6,8.2,3.8,11.9,6.5c6,4.5,10.9,9.8,14.3,16.5c2.3,4.6,3.7,9.5,4.5,14.6
		c0.8,4.7,1.2,9.5,1.3,14.3c0.2,7.6,0.3,15.1,0.7,22.7c0.6,12,2.9,23.6,8.1,34.5c1.1,2.2,2.4,4.4,3.6,6.6c0.3,0.5,0.7,0.9,0.5,1.6
		c-1.7-0.3-2.8-1.5-4.1-2.4c-3.8-2.8-7.5-5.8-10.6-9.4c-6.1-7-10.1-15.1-12.1-24.2c-1.9-8.4-2.1-17-2.3-25.5
		c-0.2-7.5-0.1-15-0.9-22.5c-0.9-7.3-2.5-14.3-6.1-20.9C119.7,18.8,116.7,14.8,113.3,11z"/>
	<path id="XMLID_232_" class="st5" d="M183.9,202.2c2.9-1.8,6.1-2.8,9.3-3.8c6-2,12.1-3.4,18.4-4.1c7-0.8,14-0.8,21,0
		c4.1,0.5,8,1.3,12,2.4c6.7,1.8,13,4.5,19.1,7.8c6.4,3.5,12.4,7.7,17.9,12.4c4.9,4.2,9.4,8.7,13.5,13.7c3.2,4,6.3,8,8.9,12.4
		c0.2,0.3,0.4,0.6,0.6,1c0.1,0.3,0.4,0.6,0.1,0.9c-0.2,0.2-0.5,0.1-0.8,0c-7.4-1.6-14.8-3.1-22.1-4.7c-0.6-0.1-1-0.4-1.3-0.8
		c-5.4-7-11.8-13.1-18.8-18.5c-4.9-3.8-10.2-7-15.7-9.8c-9.5-4.9-19.6-8.1-30.2-9.6c-9.5-1.4-19-1.2-28.4,0.3
		C186.2,201.9,185,202,183.9,202.2z"/>
	<path id="XMLID_231_" class="st2" d="M175.4,205.1c-9.5,0.4-18.5,1.9-27.1,5.1c-5.2,1.9-10.2,4.2-14.8,7.1
		c-2.3,1.4-4.5,3.1-6.6,4.6c-3.8,2.7-7.4,5.5-10.7,8.7c-2,1.9-3.7,4.1-5.6,6.1c-2.6,2.8-4.8,5.9-6.9,9c-5.7,8.2-9.8,17.2-12.6,26.7
		c-1.1,3.7-3.6,5.6-7.1,5.7c-3.9,0.1-7.1-1.9-8.3-5.4c-0.5-1.5-0.5-3.1,0-4.7c3.3-10.5,8.5-20.2,14.9-29.1c2.9-4,6-7.8,9.5-11.3
		c4.5-4.4,9.4-8.3,14.7-11.7c1.9-1.2,3.7-2.5,5.7-3.5c10-5.2,20.7-8.2,32-8.9c7.3-0.4,14.4,0,21.6,1.2
		C174.5,204.7,174.8,204.9,175.4,205.1z"/>
	<path id="XMLID_230_" class="st1" d="M178.2,209.4c-2.7,4.7-5.5,9.3-7.6,14.4c-4.1,9.9-6.1,20.1-5.5,30.8
		c0.7,11.7,4.3,22.4,11.1,32.1c3.1,4.5,6.6,8.6,10.8,12.1c1.5,1.3,1.9,3.1,1.5,5.1c-1.1,5-7.9,8.8-12.7,6.5c-1.1-0.5-2-1.3-2.8-2.2
		c-7.4-7.3-12.7-15.9-16.2-25.6c-4.4-12.1-4.8-24.3-1.3-36.7c2.8-10.2,8-19.2,14.4-27.5c2.2-2.8,4.6-5.5,6.9-8.2
		C177.2,209.7,177.7,209.5,178.2,209.4C178.2,209.4,178.2,209.4,178.2,209.4z"/>
	<path id="XMLID_229_" class="st2" d="M117.8,301.5c-0.8-1.3-0.8-2.5-0.9-3.6c-0.8-8-0.5-16,0.7-23.9c1.2-8.1,3.3-15.9,6.6-23.4
		c5.1-11.7,12.6-21.6,22.8-29.4c8-6.1,16.9-10.4,26.5-13.4c0.8-0.2,1.6-0.3,2.4-0.4c-2.9,1.9-5.8,3.6-8.6,5.5
		c-5.5,3.7-10.4,8.1-14.7,13.1c-4.4,5.1-8.2,10.7-11.3,16.7c-3.4,6.6-5.9,13.6-7.7,20.9c-1.6,6.6-2.1,13.3-2.3,20
		c0,1.4-0.4,2.4-1.3,3.5c-3.7,4.3-7.3,8.8-10.9,13.2C118.7,300.5,118.3,301,117.8,301.5z"/>
	<path id="XMLID_228_" class="st4" d="M229.4,295c-3-0.5-5.7-1.8-8.3-3.2c-10.2-5.1-16.4-13.4-19.4-24.3c-2-7.6-2.9-15.3-4.2-23
		c-1.9-11.3-4.9-22.3-11.7-31.8c-1.2-1.6-2.4-3.2-3.9-5.2c3.6,1.5,6.6,3.2,9.5,5.1c9.8,6.6,15.4,16,18.1,27.3
		c1.8,7.3,2.6,14.7,3.8,22.1c1.1,6.8,2.5,13.4,5.7,19.6c2.4,4.8,5.6,8.9,9.8,12.3C229,294.3,229.2,294.6,229.4,295L229.4,295z"/>
	<path id="XMLID_227_" class="st1" d="M183.5,204.9c12.1-0.8,23.5,0.6,34.4,5c5.9,2.4,11.1,5.7,16,9.8c11.4,9.6,18.1,22,21.5,36.3
		c0.5,2.2,1.2,4.5,0.3,6.9c-1,2.6-4.2,4.3-7.7,4c-2.9-0.3-4.8-1.8-5.2-4.9c-1-7.5-3.2-14.6-6.6-21.4c-2.7-5.2-6-10-10.1-14.3
		c-4.4-4.6-9.3-8.7-14.8-11.9c-7.7-4.5-16-7.5-24.9-8.9C185.6,205.3,184.9,205.2,183.5,204.9z"/>
	<path id="XMLID_226_" class="st2" d="M74.1,57.4c4.6-0.4,8.8-0.8,13.1-1c1.5-0.1,2-0.6,2-2.1c0-3.6,0-7.3,0-10.9
		c0-0.6-0.2-1.2,0.3-1.8c1.8,1.6,3,3.7,4.3,5.7c1.1,1.8,2.3,3.5,3.5,5.2c0.6,0.8,1.2,0.7,1.9,0.3c2.5-1.4,5-2.8,7.4-4.3
		c1-0.6,2.3-0.8,3.1-1.6c0.2-0.2,0.6-0.4,0.9-0.2c0.3,0.3,0.2,0.7,0,1c-0.7,1.6-1.5,3.2-2.2,4.7c-0.9,2-1.8,3.9-2.9,5.8
		c-0.7,1.3-0.3,1.9,0.8,2.6c3.2,1.9,6.6,3.5,9.6,5.7c0.4,0.3,0.9,0.4,1.1,1.1c-1,0.5-2,0.2-3,0.3c-3.2,0.3-6.4,0.7-9.6,0.8
		c-1.6,0.1-1.8,0.8-1.8,2.1c0.1,4.1-0.1,8.3-0.3,12.4c-0.6,0.1-1-0.3-1.3-0.8c-1.8-3.3-4.4-6.2-6.4-9.4c-0.6-1-1.4-1.2-2.3-0.6
		c-2.9,1.6-5.8,3.3-8.8,4.9c-0.1,0.1-0.2,0.2-0.4,0.3c-0.6,0.4-1.4,1-1.9,0.5c-0.6-0.5,0-1.4,0.3-2c1.6-3,3.1-6.1,4.5-9.2
		c0.6-1.4,0.1-2.1-0.9-2.7c-2.7-1.6-5.4-3.3-8.1-4.8C76.2,59,75.3,58.3,74.1,57.4z"/>
	<path id="XMLID_225_" class="st3" d="M156,62.8c0.3-2.3,1-4.5,1.6-6.8c0.3-1.2,0.1-1.9-1.2-2.2c-2.2-0.6-4.4-1.5-7-2.4
		c2.7-0.8,5-1.5,7.3-2.2c1.1-0.3,1.4-0.8,1.1-1.9c-0.5-2.3-0.9-4.7-1.5-7.4c2,1.9,3.9,3.5,5.5,5.3c0.9,0.9,1.4,0.8,2.2,0
		c1.7-1.7,3.6-3.2,5.7-5.1c-0.7,2.7-1.1,5.1-1.8,7.3c-0.4,1.4,0.1,1.9,1.3,2.2c2.2,0.6,4.5,1.3,6.8,2.3c-2.5,0.7-4.7,1.5-7,2.1
		c-1.4,0.3-1.5,1-1.3,2.2c0.5,2.2,0.9,4.4,1,6.8c-1.3-1.2-2.6-2.4-3.9-3.6c-2.2-2.1-2.2-2-4.6-0.2C158.9,60.3,157.7,61.8,156,62.8
		L156,62.8z"/>
	<path id="XMLID_224_" class="st3" d="M261.1,80.9c2.7-0.8,5-1.5,7.3-2.2c1-0.3,1.3-0.6,1-1.7c-0.6-2.3-1-4.6-1.5-7.2
		c2,1.6,3.6,3.1,5.1,4.7c0.9,1,1.6,1.1,2.7,0.1c1.6-1.6,3.4-3,5.5-4.8c-0.7,2.7-1.2,4.9-1.8,7.1c-0.3,1.2-0.2,1.8,1.1,2.1
		c2.2,0.6,4.3,1.4,6.4,2.5c-2.2,0.7-4.5,1.4-6.7,2c-1,0.3-1.2,0.7-1,1.6c0.5,2.3,0.9,4.7,1.5,7.5c-2.1-2-4-3.6-5.6-5.4
		c-0.8-0.8-1.2-0.6-1.8,0c-1.8,1.6-3.5,3.2-5.6,5c0.3-2.6,1-4.9,1.6-7.1c0.3-1.2,0.1-1.6-1.1-2C265.9,82.6,263.7,81.8,261.1,80.9z"
		/>
	<path id="XMLID_223_" class="st1" d="M304.3,197c0,4.4-3.3,7.8-7.8,7.8c-4.3,0-7.8-3.3-7.8-7.7c-0.1-4.3,3.6-8,8-7.9
		C301.3,189.4,304.5,193.1,304.3,197z"/>
	<path id="XMLID_222_" class="st4" d="M78.7,250c-1.5-1.4-3-2.8-4.4-4.3c-0.9-0.9-1.6-1-2.5,0c-1.4,1.4-3,2.7-4.9,4.3
		c0.6-2.5,1-4.6,1.6-6.6c0.3-1,0.1-1.5-1-1.8c-2-0.6-3.9-1.3-6.3-2.1c2.3-0.7,4.2-1.4,6.1-1.8c1.5-0.3,1.6-1,1.3-2.3
		c-0.5-1.9-0.8-3.9-1.2-6.2c1.8,1.7,3.5,3.2,5,4.8c0.6,0.7,1.1,0.6,1.7,0c1.6-1.5,3.2-2.9,5.1-4.5c-0.3,2.4-0.9,4.4-1.5,6.4
		c-0.3,1.2,0,1.5,1,1.8c2,0.6,4,1.4,6.1,2.1c-2.1,1-4.2,1.4-6.3,1.9c-1.1,0.3-1.3,0.8-1.1,1.8c0.5,2.1,0.9,4.1,1.3,6.2
		C78.9,249.9,78.8,250,78.7,250z"/>
	<path id="XMLID_221_" class="st1" d="M273.6,188.8c0-4.1,3-7.2,7-7.2c4.1,0,7.3,3,7.3,6.9c0,4-3,7.2-6.8,7.3
		C276.9,196,273.6,192.8,273.6,188.8z"/>
	<path id="XMLID_220_" class="st1" d="M271.7,183.7c0,3.8-2.7,6.4-6.6,6.4c-3.7,0-6.3-2.8-6.3-6.6c0-3.4,2.9-6.4,6.5-6.4
		C269.1,177.2,272.1,180.6,271.7,183.7z"/>
	<path id="XMLID_219_" class="st5" d="M231.1,263.4c-1.5-1-2.6-2.2-3.6-3.3c-0.8-0.8-1.3-1.1-2.2-0.1c-1.1,1.1-2.4,2-3.8,3.1
		c0.1-1.8,0.5-3.3,1-4.8c0.4-1.2,0-1.7-1.1-2c-1.5-0.4-3-0.8-4.5-1.8c1.6-0.5,3.1-1,4.6-1.4c1-0.3,1.5-0.6,1.2-1.9
		c-0.4-1.5-0.7-3.1-1-4.9c1.6,1.1,2.8,2.3,3.9,3.5c0.7,0.7,1.2,0.7,1.9,0c1.2-1.1,2.4-2.1,3.9-3.4c0,1.6-0.5,2.8-0.8,4
		c-0.5,2.3-0.6,2.3,1.7,3.1c1.2,0.4,2.4,0.6,3.6,1.4c-1.5,0.9-3.1,1.2-4.6,1.6c-1,0.3-1.2,0.7-1,1.6
		C230.5,259.8,230.8,261.5,231.1,263.4z"/>
	<path id="XMLID_218_" class="st1" d="M250.7,187.2c-3.4,0-5.8-2.4-5.9-5.6c0-3.3,2.4-6,5.5-6c3.4-0.1,6.2,2.6,6.1,5.8
		C256.4,184.6,254.4,187.3,250.7,187.2z"/>
	<path id="XMLID_217_" class="st5" d="M135.6,289.5c1.5-0.9,2.8-1.1,4-1.4c1.3-0.3,1.7-1,1.3-2.2c-0.4-1.2-0.6-2.5-0.7-4.1
		c1.2,1.1,2.3,2.1,3.3,3.1c0.6,0.6,1.2,0.8,1.9,0c0.9-0.9,2-1.7,3.2-2.7c0.3,1.5-0.3,2.7-0.6,3.9c-0.3,1.2,0.1,1.7,1.1,2.1
		c1.3,0.4,2.5,0.9,4.1,1.4c-1.5,0.8-2.8,1-4.1,1.3c-1.1,0.3-1.5,0.9-1.3,2.1c0.2,1.2,0.7,2.4,0.6,3.8c-1.4-0.4-2-1.7-3-2.5
		c-0.8-0.7-1.3-0.9-2.2-0.1c-1,0.8-1.8,1.9-3.1,2.5c-0.5-1.5,0.3-2.7,0.6-3.9c0.4-1.4-0.2-1.8-1.3-2.1
		C138.4,290.4,137.2,290,135.6,289.5z"/>
	<path id="XMLID_216_" class="st1" d="M242.3,181.3c0,3.1-2.1,5.2-5.2,5.3c-2.9,0-5.2-2.2-5.2-5.1c0-2.7,2.5-5.3,5.1-5.3
		C239.9,176.2,242.2,178.5,242.3,181.3z"/>
	<path id="XMLID_215_" class="st3" d="M192.4,265.3c-1,1-1.8,1.8-2.6,2.6c-0.6,0.5-0.7,0.9-0.2,1.6c0.8,1,1.7,1.9,2.2,3.1
		c-1.3,0-2.3-0.6-3.4-1c-1.1-0.4-1.5-0.1-1.8,0.9c-0.4,1-0.9,2-1.4,3.1c-0.8-1.1-0.7-2.4-1.1-3.5c-0.3-0.9-0.6-1.1-1.5-1
		c-1.1,0.2-2.3,0.3-3.9,0.4c1.3-1.1,2.1-2,3.1-2.8c0.7-0.5,0.7-0.9,0.1-1.6c-0.8-0.9-1.5-1.9-2.4-3.1c1.4,0.1,2.5,0.5,3.6,0.9
		c1,0.4,1.5,0,1.8-0.9c0.4-1.1,0.7-2.1,1.5-3.3c0.3,1.3,0.6,2.2,0.7,3.2c0.1,1.4,0.9,1.7,2.1,1.5
		C190.3,265.4,191.2,265.2,192.4,265.3z"/>
	<path id="XMLID_214_" class="st3" d="M175.1,246.2c1.4,0.4,2.4,0.7,3.3,1.1c1.1,0.5,1.5,0.1,1.9-0.9c0.3-1,0.8-1.9,1.2-2.9
		c0.6,0.9,0.7,1.8,0.8,2.6c0.2,1.4,0.8,2,2.3,1.7c0.8-0.2,1.7-0.2,2.9-0.3c-1.1,1-1.9,1.8-2.7,2.5c-0.6,0.5-0.6,1.1-0.2,1.7
		c0.7,0.9,1.4,1.8,2.3,3c-1.3-0.4-2.3-0.6-3.3-1c-1.1-0.4-1.8-0.1-2.1,1c-0.3,0.9-0.6,1.7-1.3,2.7c-0.2-0.9-0.4-1.6-0.6-2.3
		c-0.4-2.2-0.4-2.2-2.7-1.9c-0.7,0.1-1.4,0.3-2.2,0.2c0.4-1.1,1.5-1.5,2.1-2.3c0.6-0.7,1-1.2,0.2-2
		C176.5,248.4,176,247.4,175.1,246.2z"/>
	<path id="XMLID_213_" class="st1" d="M229.2,183.2c0,2.5-2,4.6-4.5,4.6c-2.4,0-4.5-2-4.6-4.4c-0.1-2.4,2.1-4.7,4.4-4.7
		C227.1,178.6,229.2,180.7,229.2,183.2z"/>
	<path id="XMLID_212_" class="st3" d="M174.8,234.7c0.4-1.1,1.3-1.6,2-2.2c0.8-0.6,0.9-1.1,0.2-1.8c-0.6-0.7-1.1-1.5-1.7-2.4
		c1.1-0.1,2,0.3,2.8,0.6c0.9,0.3,1.4,0.2,1.7-0.8c0.3-0.9,0.8-1.7,1.2-2.7c0.6,0.8,0.6,1.7,0.7,2.5c0.2,1.1,0.6,1.6,1.8,1.4
		c0.8-0.2,1.7-0.2,2.7-0.2c-0.5,1-1.2,1.5-1.9,2.1c-1,0.7-1,1.3-0.1,2.2c0.6,0.6,1,1.4,1.5,2.1c-0.2,0.1-0.2,0.2-0.3,0.1
		c-1.3-0.2-2.7-1.4-3.7-0.8c-0.9,0.6-1.2,2.2-1.9,3.8c-0.3-1.3-0.6-2.1-0.7-3.1c-0.1-1-0.5-1.4-1.6-1.2
		C176.7,234.6,175.8,234.6,174.8,234.7z"/>
	<path id="XMLID_211_" class="st2" d="M29.3,206.4c-0.8,0-1.2-0.5-1.7-0.8c-1.4-1.1-2.5-1.1-3.3,0.7c-0.2,0.5-0.7,0.9-1.2,1.5
		c-0.3-1.1-0.2-2,0-2.9c0.3-1.2-0.3-1.6-1.3-1.7c-0.9-0.1-1.8-0.2-2.8-0.4c0.1-0.1,0.1-0.2,0.2-0.3c1-0.8,2.8-0.9,3.1-2.1
		c0.3-1-0.6-2.3-1.2-3.8c0.9,0.5,1.6,0.8,2.1,1.3c1.2,1.1,1.9,0.7,2.7-0.5c0.4-0.6,0.7-1.3,1.5-1.7c0.4,1,0,1.9,0,2.8
		c-0.1,1,0.2,1.4,1.2,1.5c0.9,0.1,1.8,0.3,2.9,0.5c-0.8,0.7-1.5,1.1-2.3,1.5c-0.9,0.4-1.4,0.9-0.7,2C28.8,204.6,29,205.5,29.3,206.4
		z"/>
	<path id="XMLID_210_" class="st2" d="M34.8,199.2c-0.5-1.3,0.5-2.9-0.4-3.7c-0.8-0.7-2.2-0.6-3.6-0.9c0.6-0.4,0.9-0.6,1.3-0.8
		c2.2-1.4,2.2-1.4,1.1-3.8c-0.1-0.3-0.3-0.6-0.2-0.9c0.1,0,0.2,0,0.3,0c1.1,0.4,2,1.9,3.1,1.5c1-0.3,1.6-1.6,2.4-2.5
		c0.1,0.1,0.3,0.2,0.3,0.3c0.2,1.2-0.6,2.6,0.3,3.4c0.8,0.7,2.2,0.6,3.4,0.8c-0.9,1-2.7,1.1-3.1,2.2c-0.4,1,1,2.1,1,3.6
		c-0.8-0.4-1.5-0.7-2-1.1c-1-0.9-1.7-0.5-2.3,0.4C35.9,198.2,35.5,198.8,34.8,199.2z"/>
	<path id="XMLID_209_" class="st2" d="M53.1,191.2c-2.4-2-4.3-1.7-5.7,1.6c-0.4-1.7,0.5-3.3-0.3-4c-0.7-0.7-2.2-0.5-3.4-0.8
		c0.5-0.7,1.2-1,1.9-1.2c1.3-0.5,1.4-1.3,0.8-2.4c-0.3-0.6-0.5-1.2-0.9-1.9c1,0.1,1.6,0.6,2.1,1.1c1,0.8,1.7,0.7,2.4-0.4
		c0.4-0.6,0.9-1.2,1.6-2c0,1.6-0.4,2.9,0.1,3.8c0.5,1,2.2,0.5,3.3,0.9c0,0.6-0.5,0.6-0.8,0.8c-2.3,1.4-2.3,1.4-1.2,3.9
		C53,190.7,53,190.9,53.1,191.2z"/>
	<path id="XMLID_208_" class="st1" d="M213.4,182.6c2.3,0,4,1.6,4,3.8c0,2.3-1.6,4-3.8,4c-2.2,0-4-1.9-3.9-4.1
		C209.7,184.3,211.5,182.6,213.4,182.6z"/>
	<path id="XMLID_207_" class="st2" d="M64.3,176.4c0.3,0.2,0.2,0.5,0.2,0.8c0,2.8,0,2.8,2.7,3.2c0.2,0,0.5-0.1,0.7,0.3
		c-0.3,0.6-1,0.7-1.6,0.9c-1.3,0.5-1.8,1.1-0.9,2.4c0.3,0.5,0.6,1,0.5,1.7c-2.1-1.5-4.1-2.3-5.3,1.4c0.3-3.1-0.3-4.9-3.9-4.3
		c0.5-0.4,0.7-0.6,0.9-0.7c2.7-1.7,2.7-1.7,1.2-4.7c0.3-0.3,0.5,0,0.7,0.1c2.6,1.4,2.6,1.4,4.6-0.9C64,176.5,64.2,176.4,64.3,176.4z
		"/>
	<path id="XMLID_206_" class="st2" d="M77.7,172.4c0.5,1.6-0.4,2.9,0.6,3.6c0.8,0.5,1.9,0.5,3.2,0.9c-3.1,0.8-3.7,2.4-1.9,5.1
		c-2.3-2-4-2-5.3,1.2c-0.3-1.5,0.2-2.7-0.4-3.6c-0.7-0.9-2.1-0.3-3.2-1.1c2.7-0.7,3.5-2.2,1.7-4.6c0.3-0.1,0.4-0.1,0.5-0.1
		C74.9,175.4,76.5,175.3,77.7,172.4z"/>
	<path id="XMLID_205_" class="st2" d="M93.1,179.6c-2.1-2.5-3.6-1.6-4.8,0.8c-0.5-3.5-0.5-3.5-3.5-4.1c1-0.6,2.2-1,2.7-1.8
		c0.6-0.9-0.7-1.9-0.8-3.1c1.1,0.3,1.8,1.5,2.8,1.4c1-0.1,1.2-1.6,2.3-2.1c0.4,1-0.6,2.4,0.3,3c0.8,0.5,1.9,0.5,3.2,0.8
		c-0.5,0.4-0.8,0.7-1.2,0.8c-2,0.5-2,1.6-1,3.1c0.1,0.2,0.2,0.5,0.2,0.7C93.2,179.2,93.2,179.4,93.1,179.6z"/>
	<path id="XMLID_204_" class="st2" d="M99.1,175.6c2.7-1.9,2.7-1.9,1.9-4.4c0.4-0.3,0.7,0,0.8,0.2c1.6,1.4,2.6,0.7,3.4-0.9
		c0.1-0.1,0.2-0.2,0.4-0.3c0,0,0.1,0,0.4,0c-0.3,2-0.3,3.9,2.9,3.6c-2.2,1.1-3.2,2.3-1.4,4.5c-1.4-0.1-2-1.3-2.9-1.1
		c-0.9,0.2-1.3,1.4-2.1,2C102,176,102,176,99.1,175.6z"/>
	<path id="XMLID_203_" class="st2" d="M119.8,171.3c0.1,3.2,0.1,3.2,2.9,3.6c-0.7,0.7-1.9,0.8-2.3,1.7c-0.4,0.9,0.7,1.6,0.7,2.7
		c-1-0.1-1.6-1.2-2.5-1.1c-1,0.1-1.1,1.4-2,1.8c-0.4-2.8-0.4-2.8-3.4-3.4c2.2-0.9,3.4-2,1.6-4.3C118,173.3,118,173.3,119.8,171.3z"
		/>
	<path id="XMLID_202_" class="st2" d="M133.7,174.4c0.1,2.8,0.1,2.8,3.3,3.3c-2.8,0.6-3.5,2-2,4.1c-1.2,0-1.6-1.3-2.5-1.1
		c-0.9,0.2-1.1,1.3-2,1.8c-0.3-0.9,0.4-2-0.3-2.5c-0.6-0.5-1.6-0.5-2.7-0.8c1.8-0.8,3.3-1.7,1.5-3.8c1.3-0.2,1.8,1.2,2.6,0.9
		C132.6,175.9,132.7,174.8,133.7,174.4z"/>
	<path id="XMLID_201_" class="st2" d="M143,179.7c2,1.1,2,1.1,4.2-0.7c-0.2,2,0.2,3.4,2.6,3.1c-1.8,0.9-3.1,1.9-1.2,4.1
		c-1.7-1.2-3.2-1.7-4.3,1.1c-0.1-1.4,0-2.2-0.4-2.9c-0.4-0.8-1.5-0.2-2.5-0.9C143.8,182.9,143.5,181.3,143,179.7L143,179.7z"/>
	<path id="XMLID_2_" class="st4" d="M314,96.4c-6.8-0.6-13.6-0.2-20.4,0.4c-12.2,1.2-24,3.9-35.5,8.1c-5,1.9-10,3.8-14.7,6.5
		c-2.4,0.9-4.6,2.3-6.8,3.7c-1,0.6-2,1-2.8,1.7c-0.7,0.5-1.8,0.6-1.9,1.7c-0.7-0.2-1.2,0.3-1.7,0.6c-6.6,4.7-12.7,10-18.2,16
		c-7.3,8-13.2,17-17.9,26.7c-3.3,7-5.9,14.2-7.9,21.7c-1,3.5-1.7,7.1-2.6,10.9c0.7-0.4,0.8-0.8,1-1.2c4.8-11.6,11.4-22.1,19.6-31.6
		c8.4-9.7,18.1-17.8,29-24.5c7.6-4.6,15.7-8.5,24.1-11.5c11.6-4.1,23.6-6.6,35.9-7.5c6.7-0.5,13.4-0.2,20.1,0
		c5.8,0.2,10.2-4.4,10.4-10.5C323.8,101.4,320,96.9,314,96.4z"/>
	<path id="XMLID_198_" class="st1" d="M178.6,208.7c0,0.3-0.1,0.5-0.3,0.7c0,0,0,0,0,0C178.3,209.2,178.4,209,178.6,208.7
		L178.6,208.7z"/>
	<path id="XMLID_197_" class="st2" d="M173,196C173,196,173,196,173,196C173,196,173,196,173,196z"/>
	<polygon id="XMLID_1_" class="st3" points="156,62.8 156,62.8 156,62.8 	"/>
	<polygon id="XMLID_196_" class="st3" points="156,62.8 156,62.8 156,62.8 	"/>
	<polygon id="XMLID_195_" class="st2" points="143,179.7 142.9,179.6 143,179.7 	"/>
	<path id="XMLID_194_" class="st1" d="M178.6,208.7c0,0,0.1-0.1,0.1-0.1C178.6,208.7,178.6,208.7,178.6,208.7L178.6,208.7z"/>
	<path id="XMLID_193_" class="st2" d="M172.7,195.7c0.1,0.1,0.2,0.2,0.3,0.3c0,0,0,0,0,0C172.9,195.9,172.8,195.8,172.7,195.7
		C172.7,195.7,172.7,195.7,172.7,195.7z"/>
	<path id="XMLID_192_" class="st4" d="M229.5,294.9c0.1,0,0.3,0,0.2,0.2C229.7,295.3,229.5,295.2,229.5,294.9
		C229.4,295,229.5,294.9,229.5,294.9z"/>
</g>
</svg>
