<?xml version="1.0" encoding="utf-8"?>
<!-- Generator: Adobe Illustrator 19.0.0, SVG Export Plug-In . SVG Version: 6.00 Build 0)  -->
<svg version="1.1" id="Layer_1" xmlns="http://www.w3.org/2000/svg" xmlns:xlink="http://www.w3.org/1999/xlink" x="0px" y="0px"
	 viewBox="0 0 130 87.2" style="enable-background:new 0 0 130 87.2;" xml:space="preserve">
<style type="text/css">
	.st0{fill:#B3B3B3;}
	.st1{fill:#FFFFFF;}
	.st2{fill:#4D4D4D;}
	.st3{fill:url(#XMLID_59_);}
	.st4{fill:url(#XMLID_60_);}
	.st5{fill:url(#XMLID_61_);}
</style>
<g id="XMLID_29_">
	<path id="XMLID_30_" class="st0" d="M130,49.6v33.8c0,2.1-1.7,3.9-3.9,3.9H6.3c-2.1,0-3.9-1.7-3.9-3.9V49.6c0-2.1,1.7-3.9,3.9-3.9
		h9.8c2.1,0,3.9-1.7,3.9-3.9V25.3c0-0.8,0.3-1.7,0.8-2.3c6.4-8.4,16.5-15,28.5-18.3c5.6-1.5,11.6-2.4,17.8-2.4
		c6.2,0,12.2,0.8,17.8,2.4c11.1,3.1,20.6,8.9,27,16.4c0.6,0.7,0.9,1.6,0.9,2.5v18.2c0,2.1,1.7,3.9,3.9,3.9h9.5
		C128.3,45.7,130,47.5,130,49.6z"/>
	<path id="XMLID_50_" class="st1" d="M127.5,47.2V81c0,2.1-1.7,3.9-3.9,3.9H3.9C1.7,84.9,0,83.1,0,81V47.2c0-2.1,1.7-3.9,3.9-3.9
		h9.8c2.1,0,3.9-1.7,3.9-3.9V23c0-0.8,0.3-1.7,0.8-2.3c6.4-8.4,16.5-15,28.5-18.3C52.4,0.8,58.4,0,64.6,0c6.2,0,12.2,0.8,17.8,2.4
		c11.1,3.1,20.6,8.9,27,16.4c0.6,0.7,0.9,1.6,0.9,2.5v18.2c0,2.1,1.7,3.9,3.9,3.9h9.5C125.8,43.4,127.5,45.1,127.5,47.2z"/>
	<g id="XMLID_6_">
		<g id="XMLID_1_">
			<path id="XMLID_158_" class="st2" d="M32.6,31.9c-0.3-0.2-0.5-0.4-0.8-0.7c-1.4-1.4-2.8-2.8-4.2-4.2c-0.3-0.3-0.4-0.9,0-1.2
				c1.5-1.4,2.9-2.8,4.4-4.2c1.9-1.7,4-3.2,6.2-4.5c3.8-2.3,7.9-4.1,12.2-5.4c3.6-1.1,7.3-1.7,11.1-2c5.7-0.4,11.2,0.2,16.7,1.7
				c4.2,1.2,8.3,2.8,12.1,5.1c4.3,2.5,8.2,5.5,11.6,9.2c0.5,0.6,0.5,1,0,1.5c-1.5,1.5-3,3.1-4.5,4.6c-0.1,0.1-0.1,0.2-0.3,0.3
				c0.2,0,0.3,0,0.4,0c1.5,0,3,0,4.5,0c0.8,0,1.1,0.3,1.1,1.1c0,13.4,0,26.8,0,40.2c0,0.8-0.3,1.1-1.1,1.1c-6,0-11.9,0-17.9,0
				c-0.2,0-0.3,0-0.5,0c0,0.5,0,1,0,1.5c0,0.7-0.3,1-1,1c-11.9,0-23.9,0-35.8,0c-0.7,0-1.1-0.3-1.1-1c0-0.5,0-1,0-1.6
				c-0.2,0-0.3,0-0.5,0c-5.9,0-11.7,0-17.6,0c-0.9,0-1.2-0.3-1.2-1.2c0-13.4,0-26.7,0-40.1c0-0.9,0.3-1.1,1.1-1.1c1.5,0,3.1,0,4.6,0
				C32.3,32.1,32.4,32,32.6,31.9C32.5,32,32.6,32,32.6,31.9z M83.8,29.8c1,0,1.9,0,2.8,0c0.6,0,0.9,0.3,0.9,0.9
				c0,0.5-0.4,0.8-0.9,0.8c-2.4,0-4.9,0-7.3,0c-0.5,0-0.9-0.3-0.9-0.8c0-0.5,0.3-0.9,0.9-0.9c0.8,0,1.6,0,2.5,0c0.1,0,0.2,0,0.4,0
				c0-1.7,0-3.3,0-4.9c0-0.3-0.1-0.4-0.3-0.5c-4.7-2.2-9.6-3.4-14.8-3.7c-0.5,0-0.9,0-1.4,0c0,3,0,6,0,9.1c1,0,1.9,0,2.8,0
				c0.6,0,0.9,0.3,0.9,0.8c0,0.5-0.4,0.8-0.9,0.8c-2.4,0-4.9,0-7.3,0c-0.6,0-0.9-0.3-0.9-0.8c0-0.5,0.4-0.8,0.9-0.8
				c0.8,0,1.6,0,2.4,0c0.1,0,0.2,0,0.4,0c0-3.1,0-6.1,0-9.1c-0.1,0-0.2,0-0.2,0c-1.3,0.1-2.6,0.2-3.9,0.3c-4.2,0.5-8.2,1.6-12,3.4
				c-0.2,0.1-0.3,0.2-0.3,0.5c0,1.6,0,3.1,0,4.7c0,0.1,0,0.2,0,0.3c0.1,0,0.2,0,0.4,0c0.8,0,1.6,0,2.4,0c0.6,0,0.9,0.4,0.9,0.8
				c0,0.5-0.4,0.8-0.9,0.8c-2.5,0-4.9,0-7.4,0c-0.5,0-0.9-0.3-0.9-0.8c0-0.5,0.3-0.8,0.9-0.8c0.8,0,1.6,0,2.5,0c0.1,0,0.2,0,0.4,0
				c0-1.5,0-2.9,0-4.4c-0.1,0.1-0.2,0.1-0.3,0.2c-3.6,2-6.9,4.5-9.8,7.5c-0.1,0.1-0.2,0.4-0.2,0.5c0,8.6,0,17.3,0,25.9
				c0,0.1,0,0.2,0,0.4c19.6,0,39.2,0,58.8,0c0-0.1,0-0.2,0-0.3c0-8.7,0-17.3,0-26c0-0.2-0.1-0.4-0.2-0.5c-2.4-2.5-5.1-4.6-8-6.4
				c-0.7-0.4-1.4-0.8-2.1-1.2C83.8,26.9,83.8,28.4,83.8,29.8z M94.2,61.6c-19.6,0-39.2,0-58.7,0c0,3.7,0,7.4,0,11.2
				c3.4,0,6.8,0,10.2,0c0-0.1,0-0.2,0-0.3c0-0.6,0-1.2,0-1.8c0-0.9,0.3-1.2,1.2-1.2c11.9,0,23.7,0,35.6,0c0.1,0,0.1,0,0.2,0
				c0.6,0,0.9,0.3,1,0.9c0,0.7,0,1.4,0,2.1c0,0.1,0,0.2,0,0.4c3.5,0,7.1,0,10.6,0C94.2,69.1,94.2,65.3,94.2,61.6z M81.9,71.1
				c-11.5,0-23,0-34.5,0c0,1.5,0,2.9,0,4.3c11.5,0,23,0,34.5,0C81.9,74,81.9,72.5,81.9,71.1z M91.1,27.6c2.8-0.6,5.7-1.1,8.5-1.7
				c-2.6-2.6-5.4-4.9-8.5-6.9C91.1,21.9,91.1,24.7,91.1,27.6z M38.4,19c-3.1,2-5.9,4.3-8.5,6.9c2.9,0.6,5.7,1.1,8.5,1.7
				C38.4,24.7,38.4,21.9,38.4,19z M76.7,12.8c-3.5-0.9-6.9-1.4-10.5-1.5c1.4,2.5,2.9,5,4.3,7.5C72.6,16.8,74.6,14.8,76.7,12.8z
				 M52.8,12.8c2.1,2,4.2,4,6.2,6.1c1.4-2.5,2.8-5,4.3-7.5C59.7,11.4,56.3,11.9,52.8,12.8z M79.5,13.6c0.6,2.8,1.2,5.4,1.8,8.2
				c2.4-1.4,4.8-2.8,7.3-4.3C85.7,15.9,82.7,14.6,79.5,13.6z M50,13.6c-3.2,1-6.2,2.3-9.1,3.9c2.4,1.4,4.8,2.8,7.2,4.3
				C48.8,19,49.4,16.3,50,13.6z M33.7,55.1c0-4,0-7.9,0-11.9c-1.8,2-3.5,4-5.3,5.9C30.2,51.2,31.9,53.1,33.7,55.1z M33.7,71.4
				c0-4,0-7.9,0-11.9c-1.8,2-3.6,3.9-5.3,5.9C30.2,67.4,31.9,69.4,33.7,71.4z M95.9,71.5c1.8-2,3.6-4,5.3-6c-1.8-2-3.5-3.9-5.3-5.9
				C95.9,63.6,95.9,67.5,95.9,71.5z M95.9,43.3c0,4,0,7.9,0,11.9c1.8-2,3.6-4,5.3-5.9C99.4,47.3,97.7,45.3,95.9,43.3z M96.1,41.1
				c1.8,2,3.5,3.9,5.3,5.9c0-4,0-7.9,0-11.8C99.6,37.2,97.9,39.1,96.1,41.1z M28.2,35.1c0,4,0,7.9,0,11.9c1.8-2,3.5-4,5.3-5.9
				C31.7,39.1,29.9,37.1,28.2,35.1z M101.4,51.5c-1.8,2-3.5,4-5.3,5.9c1.8,2,3.5,3.9,5.3,5.9C101.4,59.3,101.4,55.4,101.4,51.5z
				 M28.1,63.2c1.8-2,3.5-3.9,5.3-5.9c-1.8-2-3.5-3.9-5.3-5.9C28.1,55.3,28.1,59.2,28.1,63.2z M64.8,12.1c-1.3,2.4-2.7,4.7-4,7.1
				c2.7-0.3,5.4-0.3,8.1,0C67.4,16.8,66.1,14.5,64.8,12.1z M79.6,21.7c-0.6-2.6-1.2-5.2-1.7-7.7c-2,1.9-3.9,3.8-5.8,5.7
				C74.7,20.1,77.2,20.8,79.6,21.7z M89.4,27c0-2.7,0-5.3,0-8c-2.3,1.3-4.5,2.7-6.9,4C85,24.1,87.3,25.4,89.4,27z M40.1,18.9
				c0,2.7,0,5.3,0,8c2.2-1.6,4.4-2.9,6.8-4C44.6,21.6,42.4,20.3,40.1,18.9z M57.4,19.6c-2-1.9-3.9-3.8-5.8-5.7
				c-0.6,2.6-1.1,5.1-1.7,7.7C52.4,20.8,54.8,20.1,57.4,19.6z M32.7,72.8c-1.5-1.7-3-3.4-4.6-5.2c0,1.8,0,3.4,0,5.2
				C29.7,72.8,31.1,72.8,32.7,72.8z M101.4,67.7c-1.5,1.8-3,3.4-4.6,5.1c1.6,0,3.1,0,4.6,0C101.4,71.1,101.4,69.5,101.4,67.7z
				 M95.9,33.8c0,1.7,0,3.4,0,5.1c1.5-1.7,3-3.4,4.6-5.1C98.8,33.8,97.4,33.8,95.9,33.8z M33.7,38.8c0-1.8,0-3.4,0-5.1
				c-1.5,0-3,0-4.5,0C30.7,35.4,32.2,37.1,33.7,38.8z M98.9,27.8C98.8,27.8,98.8,27.8,98.9,27.8c-2.2,0.4-4.4,0.8-6.6,1.3
				c1,0.9,1.9,1.8,2.8,2.7C96.3,30.4,97.6,29.1,98.9,27.8z M34.7,31.6c0.8-0.8,1.7-1.6,2.6-2.5c-2.2-0.4-4.3-0.9-6.5-1.3
				c0,0,0,0,0,0.1C32.1,29.1,33.4,30.3,34.7,31.6z"/>
		</g>
		<linearGradient id="XMLID_59_" gradientUnits="userSpaceOnUse" x1="46.4114" y1="50.7825" x2="46.4114" y2="31.7579">
			<stop  offset="0" style="stop-color:#FCEE21;stop-opacity:0"/>
			<stop  offset="1" style="stop-color:#FCEE21"/>
		</linearGradient>
		<polygon id="XMLID_2_" class="st3" points="57.4,59.9 35.4,59.9 42.9,31.5 50,31.5 		"/>
		<linearGradient id="XMLID_60_" gradientUnits="userSpaceOnUse" x1="64.7865" y1="50.7825" x2="64.7865" y2="31.7579">
			<stop  offset="0" style="stop-color:#FCEE21;stop-opacity:0"/>
			<stop  offset="1" style="stop-color:#FCEE21"/>
		</linearGradient>
		<polygon id="XMLID_4_" class="st4" points="75.8,59.9 53.8,59.9 61.3,31.5 68.4,31.5 		"/>
		<linearGradient id="XMLID_61_" gradientUnits="userSpaceOnUse" x1="82.919" y1="50.7825" x2="82.919" y2="31.7579">
			<stop  offset="0" style="stop-color:#FCEE21;stop-opacity:0"/>
			<stop  offset="1" style="stop-color:#FCEE21"/>
		</linearGradient>
		<polygon id="XMLID_5_" class="st5" points="93.9,59.9 71.9,59.9 79.4,31.5 86.5,31.5 		"/>
		<path id="XMLID_11_" class="st2" d="M119.4,50.4c0-0.9-0.7-1.5-1.5-1.5h-10.9c-0.9,0-1.5,0.7-1.5,1.5v21.9c0,0.9,0.7,1.5,1.5,1.5
			h10.9c0.9,0,1.5-0.7,1.5-1.5V50.4z M112.4,53.2c1.6,0,2.9,1.3,2.9,2.9S114,59,112.4,59s-2.9-1.3-2.9-2.9S110.7,53.2,112.4,53.2z
			 M112.4,71.2c-2.5,0-4.6-2.1-4.6-4.6c0-2.5,2.1-4.6,4.6-4.6c2.5,0,4.6,2.1,4.6,4.6C117,69.1,114.9,71.2,112.4,71.2z"/>
		<circle id="XMLID_3_" class="st2" cx="112.4" cy="66.6" r="2.8"/>
		<path id="XMLID_8_" class="st2" d="M24.4,50.4c0-0.9-0.7-1.5-1.5-1.5H11.9c-0.9,0-1.5,0.7-1.5,1.5v21.9c0,0.9,0.7,1.5,1.5,1.5
			h10.9c0.9,0,1.5-0.7,1.5-1.5V50.4z M17.5,53.2c1.6,0,2.9,1.3,2.9,2.9S19.2,59,17.5,59s-2.9-1.3-2.9-2.9S15.9,53.2,17.5,53.2z
			 M17.5,71.2c-2.5,0-4.6-2.1-4.6-4.6c0-2.5,2.1-4.6,4.6-4.6s4.6,2.1,4.6,4.6C22.2,69.1,20.1,71.2,17.5,71.2z"/>
		<circle id="XMLID_7_" class="st2" cx="17.5" cy="66.6" r="2.8"/>
	</g>
</g>
</svg>
