<?xml version="1.0" encoding="utf-8"?>
<!-- Generator: Adobe Illustrator 19.0.0, SVG Export Plug-In . SVG Version: 6.00 Build 0)  -->
<svg version="1.1" id="Layer_1" xmlns="http://www.w3.org/2000/svg" xmlns:xlink="http://www.w3.org/1999/xlink" x="0px" y="0px"
	 viewBox="0 0 100 100" style="enable-background:new 0 0 100 100;" xml:space="preserve">
<style type="text/css">
	.st0{fill:#009E38;}
	.st1{fill:#FFFFFF;}
</style>
<g id="XMLID_3_">
	<path id="XMLID_2_" class="st0" d="M93.3,100H6.7C3,100,0,97,0,93.3V6.7C0,3,3,0,6.7,0h86.6C97,0,100,3,100,6.7v86.6
		C100,97,97,100,93.3,100z"/>
	<g id="XMLID_1_">
		<path id="XMLID_160_" class="st1" d="M63.7,43c0-6.2,0-12.3,0-18.5c0-0.3,0.2-0.8-0.3-0.8c-0.5,0-0.6,0.5-0.6,0.9
			c0,3.6,0,7.1,0,10.7c0,0.3,0,0.7,0,1c0.1,1.8-0.6,2.5-2.4,2.3c-0.9-0.1-1.5-0.6-1.5-1.5c0-1.7,0-3.4,0-5c0-2.8,0-5.6,0-8.4
			c0-4.1,3.3-7.5,7.4-7.6c2.6-0.1,5.2-0.1,7.8,0c3.9,0.1,7,3.2,7,7.2c0,4.3,0,8.5,0,12.8c0,1.3-0.7,2.2-1.8,2.6
			c-1.3,0.4-2.3-0.3-2.4-1.6c-0.1-1.2-0.1-2.5-0.2-3.7c-0.1-2.7-0.2-5.5-0.2-8.2c0-0.4-0.1-0.7-0.1-1.1c0-0.2-0.2-0.4-0.3-0.4
			c-0.1,0-0.4,0.2-0.4,0.3c-0.1,0.3-0.2,0.6-0.2,0.9c0,12.1,0.1,24.2,0.1,36.3c0,1.5-0.9,2.4-2.5,2.4c-1.6,0-2.5-0.8-2.5-2.3
			c0-7,0-14,0-21c0-0.9-0.2-1.1-1.1-1.1c-0.7,0-0.9,0.3-0.9,1.1c0,5.3,0,10.6,0,15.9c0,1.7,0,3.4,0,5.2c0,1.7-0.7,2.3-2.3,2.3
			c-0.4,0-0.7,0-1.1-0.1c-0.8-0.1-1.4-0.8-1.4-1.5c0-0.2,0-0.5,0-0.7C63.7,55.1,63.7,49,63.7,43z"/>
		<path id="XMLID_159_" class="st1" d="M42.4,44.7c-0.3,0-0.6,0-0.9,0c-1.5,0-3.1,0-4.6,0c-0.5,0-0.7,0.2-0.7,0.7c0,0.2,0,0.4,0,0.6
			c0,5.1,0,10.1,0,15.2c0,1.4-0.5,1.9-1.9,1.9c-0.2,0-0.3,0-0.5,0c-1,0-1.6-0.6-1.6-1.6c0-2.9,0-5.8,0-8.7c0-2.6,0-5.1,0-7.7
			c0-0.2,0-0.3,0-0.5c-0.6,0-1.3,0-2,0c0,0.2,0,0.5,0,0.7c0,5.2,0,10.4,0,15.5c0,0.3,0,0.6,0,0.9c-0.1,0.7-0.7,1.3-1.4,1.3
			c-0.4,0-0.8,0-1.2,0c-0.8,0-1.4-0.6-1.4-1.4c0-0.2,0-0.3,0-0.5c0-5.1,0-10.1,0-15.2c0-0.2,0-0.3,0-0.5c-0.1-0.6-0.4-0.9-1-0.9
			c-1.2,0-2.3,0-3.5,0c-0.5,0-0.6-0.1-0.5-0.6c2.1-6.7,4.2-13.3,6.3-20c0.1-0.2,0.2-0.3,0.1-0.5c0-0.2-0.2-0.5-0.3-0.5
			c-0.2-0.1-0.4,0-0.6,0.2c-0.1,0.1-0.1,0.3-0.2,0.5c-1.4,3.9-2.8,7.8-4.3,11.8c-0.2,0.6-0.6,1.1-1.3,1.3c-0.6,0.1-1.2,0-1.6-0.5
			c-0.4-0.5-0.5-1.1-0.3-1.7c0.5-1.5,1.1-2.9,1.6-4.4c0.8-2.3,1.4-4.7,2.2-7c0.4-1.3,1-2.5,1.6-3.7c1.3-2.2,3.2-3.4,5.8-3.3
			c1.6,0.1,3.3,0,4.9,0c1.5,0,2.8,0.5,3.8,1.6c1,1,1.8,2.3,2.1,3.7c1.1,4.1,2.2,8.2,3.2,12.3c0.3,1.1-0.2,1.9-1.2,2.2
			c-0.9,0.2-1.8-0.3-2-1.3c-1-3.6-2-7.2-3-10.8c0-0.1-0.1-0.3-0.1-0.4c-0.1-0.3-0.3-0.6-0.7-0.4c-0.4,0.1-0.4,0.4-0.3,0.7
			c0.1,0.3,0.2,0.7,0.3,1c1.7,6.5,3.4,12.9,5.1,19.4C42.3,44.2,42.4,44.4,42.4,44.7z"/>
		<path id="XMLID_158_" class="st1" d="M32.4,88.4c1.3-6.4,2.6-12.8,3.9-19.3c0.2,0,0.3,0,0.5,0c1.8,0,3.6,0,5.4,0
			c0.3,0,0.5,0.1,0.5,0.5c1,5.7,2.1,11.4,3.1,17.2c0.1,0.5,0.2,1.1,0.2,1.6c1.2-6.4,2.4-12.8,3.6-19.2c2.1,0,4.1,0,6.2,0
			c-0.3,1.2-0.6,2.3-0.9,3.4c-1.9,7.4-3.8,14.8-5.7,22.2c-0.1,0.4-0.2,0.5-0.7,0.5c-2,0-3.9,0-6,0c-1.2-6.2-2.3-12.4-3.4-18.2
			c-1.2,5.8-2.6,12-3.9,18.2c-2.2,0-4.4,0-6.6,0c-2.1-8.7-4.1-17.4-6.2-26.1c2.2,0,4.3,0,6.4,0C30.1,75.6,31.3,82,32.4,88.4z"/>
		<path id="XMLID_157_" class="st1" d="M54.5,62.5c-2.1,0-4.1,0-6.2,0c0-19,0-38.1,0-57.1c2.1,0,4.1,0,6.2,0
			C54.5,24.4,54.5,43.4,54.5,62.5z"/>
		<path id="XMLID_156_" class="st1" d="M76.9,89.9c0.3,1.4,0.5,2.9,0.8,4.3c0.1,0.4-0.2,0.4-0.4,0.5c-1.3,0.3-2.6,0.7-4,0.8
			c-2.5,0.3-5.1,0.2-7.5-0.6c-4.8-1.6-7.5-4.9-8.3-9.8c-0.4-2.7-0.2-5.4,0.7-7.9c1.8-4.7,5.3-7.2,10.1-8.2c3-0.6,6-0.4,8.9,0.5
			c0.8,0.3,0.8,0.3,0.6,1.1c-0.3,1.3-0.7,2.6-1,4c-1.5-0.6-3-1-4.5-0.9c-1.2,0-2.4,0.1-3.5,0.4c-2.5,0.7-4,2.4-4.8,4.9
			c-0.7,2.2-0.6,4.5,0.1,6.7c0.9,2.8,3.5,4.7,6.7,4.9c1,0.1,2,0,3-0.1C74.9,90.4,75.8,90.1,76.9,89.9z"/>
		<path id="XMLID_155_" class="st1" d="M69.4,15.1c-2.7,0-5-2.2-5-5c0-2.7,2.3-5,5-5c2.8,0,5,2.3,5,5.1
			C74.4,12.9,72.2,15.1,69.4,15.1z"/>
		<path id="XMLID_154_" class="st1" d="M36.8,9.9c0,2.5-2,4.5-4.5,4.5c-2.5,0-4.5-2.1-4.5-4.6c0-2.5,2.1-4.5,4.6-4.5
			C34.8,5.3,36.8,7.4,36.8,9.9z"/>
	</g>
</g>
</svg>
