<?xml version="1.0" encoding="utf-8"?>
<!-- Generator: Adobe Illustrator 19.0.0, SVG Export Plug-In . SVG Version: 6.00 Build 0)  -->
<svg version="1.1" id="Layer_1" xmlns="http://www.w3.org/2000/svg" xmlns:xlink="http://www.w3.org/1999/xlink" x="0px" y="0px"
	 viewBox="0 0 400 400" style="enable-background:new 0 0 400 400;" xml:space="preserve">
<style type="text/css">
	.st0{fill:#E01B22;}
	.st1{fill:#FEFDFD;}
</style>
<g id="XMLID_1_">
	<path id="XMLID_98_" class="st0" d="M214.2,400c-9.3,0-18.6,0-28,0c0.4-1-0.5-0.7-0.8-0.7c-2.2-0.2-4.5-0.3-6.7-0.6
		c-24.7-2.8-48.3-9.6-70.3-21.3c-48.9-26-81.8-65.4-98.8-118.1c-5.5-17.2-8.4-35-8.8-53.1c0-0.5,0.6-1.5-0.7-1.5c0-3,0-6,0-9
		c1.3,0,0.7-1,0.7-1.5c0-5.1,0.5-10.3,1-15.4c2.7-24.9,9.6-48.6,21.4-70.6C49.2,59.3,88.6,26.4,141.3,9.5
		c17.2-5.5,34.8-8.3,52.9-8.8c0.5,0,1.5,0.6,1.5-0.7c3,0,6,0,9,0c0.5,0.7,0.5,0.7,1.5,0.8c19.3,0.5,38.1,3.7,56.4,9.8
		c38.6,12.9,70.5,35.4,95.4,67.5c20.1,25.9,33,55,38.7,87.3c1.1,6.5,2,13,2.5,19.5c0,0.4-0.6,1.5,0.8,1.2c0,9.3,0,18.6,0,28
		c-0.7,0.4-0.7,0.4-0.8,1.4c-1.2,16.1-4.3,31.9-9.4,47.2c-12.7,38-34.8,69.4-66.2,94.3c-26.2,20.7-55.9,33.9-88.8,39.7
		c-6.3,1.1-12.7,1.9-19.1,2.4C215.1,399.3,214.1,398.8,214.2,400z M200.3,9.3C95.4,9.2,10.4,93.8,9.3,198.1
		c-1.1,106.3,84.3,192.1,189,193.1c106.2,1,192-84.5,192.9-189.2C392.1,95.4,305.9,9.2,200.3,9.3z"/>
	<path id="XMLID_89_" class="st1" d="M200.3,9.3c105.6,0,191.8,86.2,190.9,192.7c-0.9,104.8-86.6,190.2-192.9,189.2
		c-104.7-1-190.1-86.8-189-193.1C10.4,93.8,95.4,9.2,200.3,9.3z M167,139.4c-29.4,0-58.8,0-88.2,0c-4.8,0-5.4,0.5-5.4,5.4
		c0,33.2,0,66.5,0,99.7c0,0.5,0,1.1,0,1.6c0.1,1.1-0.3,1.5-1.4,1.4c-1.6-0.1-3.2,0-4.7,0c-1.4,0-2.1,0.6-2,2.2c0.1,2.9,0,5.8,0,8.6
		c0,2.8,0.8,3.5,3.5,3.5c15.4,0,30.8,0,46.2,0.1c2,0,2.4-0.6,2.5-2.5c0.5-13.5,12.7-24.9,26.2-24.7c13.7,0.2,25.2,11.2,25.9,24.8
		c0.1,2.1,0.8,2.3,2.6,2.3c27.7-0.1,55.5,0,83.2,0c5.3,0,10.7,0,16,0c1.1,0,1.7-0.2,1.8-1.6c0.9-13.5,8.6-22.3,21.9-24.2
		c14.7-2.1,27.1,6.2,29.7,19.9c0.4,1.9-0.4,4.7,1.3,5.6c1.6,0.9,4.1,0.2,6.3,0.2c2.9,0,4.6-1.7,4.7-4.5c0.1-3,0.1-6,0-9
		c-0.1-3.1-2-4.9-5.1-4.9c-0.5,0-1,0-1.4,0c-1.2,0.1-1.7-0.3-1.7-1.6c0.1-4.4,0-8.8,0.1-13.2c0-1.7-0.5-2.8-1.9-3.8
		c-7-4.7-14-9.6-21-14.3c-1.3-0.9-2.4-2-3.2-3.4c-4.7-7.8-9.4-15.6-14.1-23.4c-0.7-1.2-1.6-2.3-1.9-3.8c-3.4-14-10.6-25.2-24-31.5
		c-2.8-1.3-3.8-2.6-3.5-5.5c0.3-3.3-0.3-3.7-3.6-3.7C226.2,139.4,196.6,139.4,167,139.4z M320.7,260.8c0-11.5-9.2-20.7-20.6-20.7
		c-11.3,0.1-20.5,9.3-20.5,20.5c0,11.5,9.1,20.7,20.5,20.7C311.5,281.5,320.7,272.3,320.7,260.8z M165,261
		c0.3-11.1-8.8-20.5-20.2-20.9c-11-0.3-20.6,8.7-21,19.9c-0.4,11.4,8.6,21,20.1,21.4C155.3,281.8,164.7,272.7,165,261z"/>
	<path id="XMLID_84_" class="st0" d="M167,139.4c29.6,0,59.2,0,88.8,0c3.3,0,3.8,0.4,3.6,3.7c-0.2,2.9,0.8,4.2,3.5,5.5
		c13.4,6.3,20.6,17.6,24,31.5c0.4,1.5,1.2,2.6,1.9,3.8c4.7,7.8,9.4,15.6,14.1,23.4c0.8,1.4,1.9,2.5,3.2,3.4c7,4.8,14,9.6,21,14.3
		c1.4,1,1.9,2.1,1.9,3.8c-0.1,4.4,0,8.8-0.1,13.2c0,1.3,0.5,1.7,1.7,1.6c0.5-0.1,1,0,1.4,0c3.1,0,5,1.9,5.1,4.9c0.1,3,0.1,6,0,9
		c-0.1,2.8-1.8,4.5-4.7,4.5c-2.1,0-4.6,0.7-6.3-0.2c-1.6-0.9-0.9-3.7-1.3-5.6c-2.6-13.6-15-22-29.7-19.9
		c-13.3,1.9-21,10.7-21.9,24.2c-0.1,1.3-0.6,1.6-1.8,1.6c-5.3,0-10.7,0-16,0c-27.7,0-55.5,0-83.2,0c-1.8,0-2.5-0.2-2.6-2.3
		c-0.7-13.7-12.2-24.6-25.9-24.8c-13.5-0.2-25.7,11.2-26.2,24.7c-0.1,1.9-0.5,2.5-2.5,2.5c-15.4-0.1-30.8-0.1-46.2-0.1
		c-2.7,0-3.5-0.8-3.5-3.5c0-2.9,0.1-5.8,0-8.6c0-1.5,0.7-2.1,2-2.2c1.6-0.1,3.2-0.1,4.7,0c1.1,0,1.5-0.4,1.4-1.4
		c-0.1-0.5,0-1.1,0-1.6c0-33.2,0-66.5,0-99.7c0-4.9,0.5-5.4,5.4-5.4C108.3,139.4,137.7,139.4,167,139.4z M143.6,229
		c23,0,41.7-18.7,41.7-41.7c0-22.9-18.7-41.6-41.8-41.6c-23,0-41.5,18.6-41.5,41.8C102,210.4,120.7,229,143.6,229z M198.2,182.1
		c0,8.1,0.1,16.2,0,24.2c0,1.9,0.5,2.5,2.4,2.4c12.1-0.1,24.2-0.1,36.3,0c1.7,0,2.1-0.5,2.1-2.2c-0.1-16.2,0-32.3,0-48.5
		c0-0.8-0.1-1.7,0.1-2.4c0.7-1.8-0.1-2-1.7-2c-11.8,0.1-23.5,0-35.3,0c-3.2,0-4,0.8-4,4.1C198.2,166,198.2,174.1,198.2,182.1z
		 M295.3,208.8c-4.4-8.1-8.7-15.7-12.9-23.4c-0.5-0.9-1.2-1-2-1c-7.1,0-14.1,0-21.2,0c-1.4,0-1.9,0.4-1.9,1.8
		c0.1,6.9,0.1,13.8,0,20.7c0,1.7,0.6,1.9,2,1.9c10-0.1,20,0,30,0C291.2,208.8,293.1,208.8,295.3,208.8z"/>
	<path id="XMLID_81_" class="st0" d="M320.7,260.8c0,11.5-9.2,20.7-20.6,20.6c-11.5-0.1-20.5-9.2-20.5-20.7
		c0-11.3,9.2-20.5,20.5-20.5C311.4,240.1,320.7,249.3,320.7,260.8z M311.3,260.9c0-6.1-4.9-11.2-11-11.3c-6.1-0.1-11.2,4.9-11.3,11
		c-0.1,6.2,4.9,11.3,11.1,11.3C306.2,272,311.2,267,311.3,260.9z"/>
	<path id="XMLID_78_" class="st0" d="M165,261c-0.4,11.7-9.7,20.7-21.1,20.4c-11.5-0.4-20.5-9.9-20.1-21.4c0.4-11.2,10-20.2,21-19.9
		C156.2,240.5,165.4,250,165,261z M144.5,271.9c6.1,0,11.1-4.9,11.1-11.1c0.1-6.1-5.1-11.3-11.2-11.3c-6.1,0-11.1,5.1-11.1,11.1
		C133.2,266.9,138.2,271.9,144.5,271.9z"/>
	<path id="XMLID_75_" class="st1" d="M143.6,229c-22.9,0-41.6-18.6-41.6-41.5c0-23.1,18.5-41.8,41.5-41.8
		c23.1,0,41.8,18.6,41.8,41.6C185.3,210.3,166.6,229,143.6,229z M134.4,168.6c0,2.5-0.1,5.1,0,7.6c0.1,1.4-0.3,1.9-1.8,1.8
		c-5.1-0.1-10.1,0-15.2-0.1c-1.4,0-1.7,0.4-1.7,1.7c0.1,5.1,0.1,10.1,0,15.2c0,1.4,0.4,1.9,1.8,1.8c5-0.1,10,0,15-0.1
		c1.4,0,1.9,0.4,1.9,1.8c-0.1,5,0,10-0.1,15c0,1.4,0.4,1.7,1.7,1.7c5.1-0.1,10.1-0.1,15.2,0c1.3,0,1.7-0.4,1.7-1.7
		c-0.1-5,0-10-0.1-15c0-1.4,0.3-1.9,1.8-1.8c5,0.1,10,0,15,0.1c1.4,0,1.9-0.4,1.8-1.8c-0.1-5.1-0.1-10.1,0-15.2
		c0-1.5-0.5-1.8-1.9-1.7c-5,0.1-10,0-15,0.1c-1.5,0-1.8-0.4-1.8-1.8c0.1-5.1,0-10.1,0.1-15.2c0-1-0.1-1.6-1.4-1.6
		c-5.3,0.1-10.5,0.1-15.8,0c-1.1,0-1.4,0.3-1.4,1.4C134.4,163.4,134.4,166,134.4,168.6z"/>
	<path id="XMLID_74_" class="st1" d="M198.2,182.1c0-8.1,0-16.2,0-24.2c0-3.3,0.8-4.1,4-4.1c11.8,0,23.5,0,35.3,0
		c1.6,0,2.3,0.2,1.7,2c-0.3,0.7-0.1,1.6-0.1,2.4c0,16.2,0,32.3,0,48.5c0,1.7-0.4,2.2-2.1,2.2c-12.1-0.1-24.2-0.1-36.3,0
		c-1.9,0-2.5-0.5-2.4-2.4C198.3,198.3,198.2,190.2,198.2,182.1z"/>
	<path id="XMLID_73_" class="st1" d="M295.3,208.8c-2.2,0-4.1,0-5.9,0c-10,0-20,0-30,0c-1.4,0-2.1-0.2-2-1.9
		c0.1-6.9,0.1-13.8,0-20.7c0-1.5,0.5-1.9,1.9-1.8c7,0.1,14.1,0,21.2,0c0.9,0,1.5,0.1,2,1C286.6,193,290.9,200.7,295.3,208.8z"/>
	<path id="XMLID_72_" class="st1" d="M311.3,260.9c0,6.1-5.1,11.1-11.2,11c-6.2-0.1-11.2-5.1-11.1-11.3c0.1-6.1,5.3-11.1,11.3-11
		C306.3,249.7,311.3,254.8,311.3,260.9z"/>
	<path id="XMLID_71_" class="st1" d="M144.5,271.9c-6.2,0-11.2-5-11.2-11.2c0-6,5.1-11.1,11.1-11.1c6.1,0,11.2,5.1,11.2,11.3
		C155.5,267,150.6,271.9,144.5,271.9z"/>
	<path id="XMLID_70_" class="st0" d="M134.4,168.6c0-2.6,0.1-5.2,0-7.8c0-1.1,0.4-1.4,1.4-1.4c5.3,0,10.5,0.1,15.8,0
		c1.3,0,1.4,0.6,1.4,1.6c0,5.1,0,10.1-0.1,15.2c0,1.4,0.3,1.9,1.8,1.8c5-0.1,10,0,15-0.1c1.4,0,1.9,0.2,1.9,1.7
		c-0.1,5.1-0.1,10.1,0,15.2c0,1.5-0.4,1.8-1.8,1.8c-5-0.1-10,0-15-0.1c-1.5,0-1.8,0.4-1.8,1.8c0.1,5,0,10,0.1,15
		c0,1.3-0.4,1.7-1.7,1.7c-5.1-0.1-10.1-0.1-15.2,0c-1.3,0-1.7-0.4-1.7-1.7c0.1-5,0-10,0.1-15c0-1.5-0.5-1.9-1.9-1.8
		c-5,0.1-10,0-15,0.1c-1.4,0-1.9-0.4-1.8-1.8c0.1-5.1,0.1-10.1,0-15.2c0-1.3,0.3-1.8,1.7-1.7c5.1,0.1,10.1,0,15.2,0.1
		c1.5,0,1.9-0.4,1.8-1.8C134.3,173.7,134.4,171.1,134.4,168.6z"/>
</g>
</svg>
