<?xml version="1.0" encoding="utf-8"?>
<!-- Generator: Adobe Illustrator 19.0.0, SVG Export Plug-In . SVG Version: 6.00 Build 0)  -->
<svg version="1.1" id="Layer_1" xmlns="http://www.w3.org/2000/svg" xmlns:xlink="http://www.w3.org/1999/xlink" x="0px" y="0px"
	 viewBox="-412.9 234 150.5 93.1" style="enable-background:new -412.9 234 150.5 93.1;" xml:space="preserve">
<style type="text/css">
	.st0{fill:#BFBFBF;}
	.st1{fill:#FFFFFF;}
	.st2{fill:#820000;}
</style>
<g id="XMLID_79_">
	<g id="XMLID_21_">
		<rect id="XMLID_20_" x="-377.4" y="258.7" class="st0" width="76.8" height="55.2"/>
		<rect id="XMLID_22_" x="-302.8" y="258.7" class="st0" width="27.1" height="55.2"/>
		<rect id="XMLID_37_" x="-402.9" y="258.7" class="st0" width="27.1" height="55.2"/>
		<polygon id="XMLID_39_" class="st0" points="-375.8,258.7 -402.9,258.7 -394.6,244 -384.8,244 		"/>
		<polygon id="XMLID_40_" class="st0" points="-275.7,258.7 -302.8,258.7 -294.5,244 -284.6,244 		"/>
		<g>
			<path class="st0" d="M-278.5,237.1h-15.7c-1.8,0-3.4,1-4.3,2.5l-6.9,12.2h-0.5c-0.4,0-0.8,0-1.2-0.1l-28.6-6.9
				c-0.8-0.2-1.6-0.2-2.3,0l-25.6,6.1c-2.1,0.5-4.3-0.4-5.4-2.2l-5.7-9.2c-0.9-1.5-2.5-2.4-4.2-2.4h-15.6c-1.8,0-3.4,1-4.3,2.5
				l-10.4,18.4c-0.4,0.7-0.6,1.6-0.6,2.4v61.6c0,2.7,2.2,4.9,4.9,4.9h137.3c2.7,0,4.9-2.2,4.9-4.9v-61.7c0-0.9-0.2-1.8-0.7-2.6
				l-11.1-18.3C-275.1,238.1-276.7,237.1-278.5,237.1z"/>
			<path class="st1" d="M-281.8,234h-15.7c-1.8,0-3.4,1-4.3,2.5l-6.9,12.2h-0.5c-0.4,0-0.8,0-1.2-0.1l-28.6-6.9
				c-0.8-0.2-1.6-0.2-2.3,0l-25.6,6.1c-2.1,0.5-4.3-0.4-5.4-2.2l-5.7-9.2c-0.9-1.5-2.5-2.4-4.2-2.4h-15.6c-1.8,0-3.4,1-4.3,2.5
				l-10.4,18.4c-0.4,0.7-0.6,1.6-0.6,2.4V319c0,2.7,2.2,4.9,4.9,4.9h137.3c2.7,0,4.9-2.2,4.9-4.9v-61.7c0-0.9-0.2-1.8-0.7-2.6
				l-11.1-18.3C-278.4,234.9-280,234-281.8,234z"/>
			<polygon class="st2" points="-340,252.7 -368.3,259.5 -311.7,259.5 			"/>
			<polygon class="st0" points="-375.8,313.9 -302.8,313.9 -300.6,313.9 -275.7,313.9 -275.7,258.7 -284.6,244 -294.5,244 
				-302.8,258.7 -375.8,258.7 -384.8,244 -394.6,244 -402.9,258.7 -402.9,313.9 -377.4,313.9 			"/>
		</g>
		<polygon id="XMLID_38_" class="st0" points="-269,318 -409,318 -405.4,313.1 -273,313.1 		"/>
	</g>
	<path id="XMLID_41_" class="st2" d="M-336.1,307.6h-6.9V296c0-1.9,1.5-3.5,3.5-3.5l0,0c1.9,0,3.5,1.5,3.5,3.5v11.6H-336.1z"/>
	<path id="XMLID_43_" class="st2" d="M-320.4,307.6h-6.9V296c0-1.9,1.5-3.5,3.5-3.5l0,0c1.9,0,3.5,1.5,3.5,3.5v11.6H-320.4z"/>
	<path id="XMLID_44_" class="st2" d="M-351.9,307.6h-6.9V296c0-1.9,1.5-3.5,3.5-3.5l0,0c1.9,0,3.5,1.5,3.5,3.5v11.6H-351.9z"/>
	<path id="XMLID_45_" class="st2" d="M-367.7,307.6h-6.9V296c0-1.9,1.5-3.5,3.5-3.5l0,0c1.9,0,3.5,1.5,3.5,3.5v11.6H-367.7z"/>
	<path id="XMLID_46_" class="st2" d="M-304.6,307.6h-6.9V296c0-1.9,1.5-3.5,3.5-3.5l0,0c1.9,0,3.5,1.5,3.5,3.5v11.6H-304.6z"/>
	<path id="XMLID_51_" class="st2" d="M-336.5,287.5h-6.1c-0.2,0-0.4-0.2-0.4-0.4v-6.9c0-1.9,1.5-3.5,3.5-3.5l0,0
		c1.9,0,3.5,1.5,3.5,3.5v6.9C-336.1,287.3-336.3,287.5-336.5,287.5z"/>
	<path id="XMLID_50_" class="st2" d="M-320.8,287.5h-6.1c-0.2,0-0.4-0.2-0.4-0.4v-6.9c0-1.9,1.5-3.5,3.5-3.5l0,0
		c1.9,0,3.5,1.5,3.5,3.5v6.9C-320.4,287.3-320.5,287.5-320.8,287.5z"/>
	<path id="XMLID_49_" class="st2" d="M-352.3,287.5h-6.1c-0.2,0-0.4-0.2-0.4-0.4v-6.9c0-1.9,1.5-3.5,3.5-3.5l0,0
		c1.9,0,3.5,1.5,3.5,3.5v6.9C-351.9,287.3-352.1,287.5-352.3,287.5z"/>
	<path id="XMLID_48_" class="st2" d="M-368.1,287.5h-6.1c-0.2,0-0.4-0.2-0.4-0.4v-6.9c0-1.9,1.5-3.5,3.5-3.5l0,0
		c1.9,0,3.5,1.5,3.5,3.5v6.9C-367.7,287.3-367.9,287.5-368.1,287.5z"/>
	<path id="XMLID_52_" class="st2" d="M-386.4,290.5h-6.9v-10.3c0-1.9,1.5-3.5,3.5-3.5l0,0c1.9,0,3.5,1.5,3.5,3.5v10.3H-386.4z"/>
	<path id="XMLID_53_" class="st2" d="M-285.8,290.5h-6.9v-10.3c0-1.9,1.5-3.5,3.5-3.5l0,0c1.9,0,3.5,1.5,3.5,3.5L-285.8,290.5
		L-285.8,290.5z"/>
	<path id="XMLID_47_" class="st2" d="M-305,287.5h-6.1c-0.2,0-0.4-0.2-0.4-0.4v-6.9c0-1.9,1.5-3.5,3.5-3.5l0,0
		c1.9,0,3.5,1.5,3.5,3.5v6.9C-304.6,287.3-304.8,287.5-305,287.5z"/>
	<rect id="XMLID_42_" x="-400.7" y="263.9" class="st2" width="22.2" height="4.2"/>
	<rect id="XMLID_55_" x="-300.4" y="263.9" class="st2" width="22.2" height="4.2"/>
	<rect id="XMLID_56_" x="-375.3" y="263.9" class="st2" width="10" height="4.2"/>
	<rect id="XMLID_57_" x="-361.1" y="263.9" class="st2" width="43" height="4.2"/>
	<rect id="XMLID_58_" x="-314" y="263.9" class="st2" width="10" height="4.2"/>
	<rect id="XMLID_54_" x="-379.6" y="272.3" class="st2" width="0.7" height="42.1"/>
	<rect id="XMLID_67_" x="-375.2" y="313.5" class="st2" width="71.2" height="0.7"/>
	<rect id="XMLID_86_" x="-375.2" y="309.4" class="st2" width="71.2" height="0.7"/>
	<rect id="XMLID_76_" x="-375.2" y="269.9" class="st2" width="71.2" height="0.7"/>
	<rect id="XMLID_70_" x="-400.7" y="258" class="st2" width="22.2" height="0.7"/>
	<rect id="XMLID_72_" x="-398.2" y="292.6" class="st2" width="17.2" height="0.7"/>
	<rect id="XMLID_73_" x="-297.9" y="292.6" class="st2" width="17.2" height="0.7"/>
	<rect id="XMLID_78_" x="-398.2" y="269.9" class="st2" width="17.2" height="0.7"/>
	<rect id="XMLID_77_" x="-297.9" y="269.9" class="st2" width="17.2" height="0.7"/>
	<rect id="XMLID_75_" x="-398.2" y="313.5" class="st2" width="17.2" height="0.7"/>
	<rect id="XMLID_74_" x="-297.9" y="313.5" class="st2" width="17.2" height="0.7"/>
	<rect id="XMLID_71_" x="-300.4" y="258" class="st2" width="22.2" height="0.7"/>
	<rect id="XMLID_63_" x="-363.6" y="272.3" class="st2" width="0.7" height="28.5"/>
	<rect id="XMLID_64_" x="-347.7" y="272.3" class="st2" width="0.7" height="28.5"/>
	<rect id="XMLID_65_" x="-331.9" y="272.3" class="st2" width="0.7" height="28.5"/>
	<rect id="XMLID_66_" x="-316" y="272.3" class="st2" width="0.7" height="28.5"/>
	<rect id="XMLID_60_" x="-400.7" y="272.3" class="st2" width="0.7" height="42.1"/>
	<rect id="XMLID_80_" x="-393.4" y="294.2" class="st2" width="0.7" height="18"/>
	<rect id="XMLID_81_" x="-387.3" y="294.2" class="st2" width="0.7" height="18"/>
	<rect id="XMLID_83_" x="-292.3" y="294.2" class="st2" width="0.7" height="18"/>
	<rect id="XMLID_82_" x="-286.3" y="294.2" class="st2" width="0.7" height="18"/>
	<rect id="XMLID_61_" x="-300.4" y="272.3" class="st2" width="0.7" height="42.1"/>
	<rect id="XMLID_62_" x="-278.8" y="272.3" class="st2" width="0.7" height="42.1"/>
	<circle id="XMLID_59_" class="st0" cx="-389.9" cy="266" r="2.2"/>
	<circle id="XMLID_69_" class="st0" cx="-289.3" cy="266" r="2.2"/>
</g>
</svg>
