<?xml version="1.0" encoding="utf-8"?>
<!-- Generator: Adobe Illustrator 19.0.0, SVG Export Plug-In . SVG Version: 6.00 Build 0)  -->
<svg version="1.1" id="Layer_1" xmlns="http://www.w3.org/2000/svg" xmlns:xlink="http://www.w3.org/1999/xlink" x="0px" y="0px"
	 viewBox="0 0 100 92.4" style="enable-background:new 0 0 100 92.4;" xml:space="preserve">
<style type="text/css">
	.st0{fill:#0E77BC;}
	.st1{fill:#D50000;}
	.st2{fill:#FDDA03;}
	.st3{fill:#0F78BC;}
	.st4{fill:#30A3DA;}
	.st5{fill:#32A4DA;}
</style>
<g id="XMLID_84_">
	<path id="XMLID_374_" class="st0" d="M46.9,41c-0.5-0.9-0.9-1.7-1.4-2.6c-3.1-5.9-6.5-11.6-10.2-17.2c-1.9-2.8-4.1-5.3-6.8-7.5
		c-0.2-0.2-0.4-0.4-0.7-0.6c-0.2-0.2-0.4-0.4-0.2-0.6c0.1-0.1,0.3-0.1,0.5-0.1c0.6,0,1.1,0.3,1.7,0.5c2,1,3.6,2.3,5,4
		c5.8,6.9,9.6,14.8,12.2,23.3c0.1,0.2,0,0.4,0.1,0.5C47.1,41,47,41,46.9,41z"/>
	<path id="XMLID_373_" class="st0" d="M51.8,43.7c0-0.1-0.1-0.2,0-0.3c2.5-7,6-13.3,12.1-17.8c3.1-2.3,6.5-3.9,10.5-4.1
		c0.8,0,2-0.2,2.1,0.5c0.1,0.8-1.2,0.7-1.8,0.9c-6.5,1.7-11.5,5.6-15.7,10.7c-2.4,2.9-4.5,6.1-6.5,9.4
		C52.3,43.3,52.2,43.6,51.8,43.7z"/>
	<path id="XMLID_372_" class="st1" d="M52.6,51c2.2-0.5,4.4-0.4,6.6-0.3c8.9,0.6,16.7,3.7,23.5,9.4c0.7,0.6,1.3,1.2,1.8,1.9
		c0.1,0.2,0.3,0.5,0.2,0.7c-0.2,0.3-0.5,0.1-0.7,0c-1-0.6-2-1.1-3-1.7c-7-4.4-14.4-7.5-22.5-9.1C56.5,51.5,54.5,51.2,52.6,51z"/>
	<path id="XMLID_371_" class="st2" d="M49.3,38.3c-1-2.4-1.6-4.8-2.1-7.2c-1.1-5-1.9-10.1-1.6-15.3c0.1-2.5,0.5-4.9,1.6-7.1
		c0.2-0.4,0.5-1.2,1-1c0.6,0.2,0.3,0.9,0.2,1.4c-1.1,6.1-0.4,12.2,0.1,18.3c0.3,3.2,0.6,6.4,0.8,9.6C49.4,37.4,49.3,37.8,49.3,38.3z
		"/>
	<path id="XMLID_370_" class="st3" d="M42.3,46.1c-3.7,0.6-7.5,1-11.2,1.6c-5.3,0.9-10.3,2.7-14.8,5.8c-0.2,0.1-0.4,0.3-0.7,0.4
		c-0.5,0.2-1.1,1-1.6,0.5c-0.4-0.5,0.3-1.1,0.7-1.6c3.1-3.5,7.2-5.3,11.6-6.4C31.6,45.1,37,45.4,42.3,46.1z"/>
	<path id="XMLID_369_" class="st2" d="M81.3,42.1C80,42.3,79,42,77.9,41.9c-7.3-0.6-14.2,0.8-20.8,3.9c-0.7,0.3-1.5,0.7-2.2,1
		c-0.4,0.2-1.1,0.6-1.4,0.1c-0.3-0.5,0.4-0.9,0.8-1.2c1.6-1.4,3.4-2.4,5.3-3.2c6.7-2.9,13.5-3.3,20.5-0.9
		C80.3,41.7,80.7,41.8,81.3,42.1z"/>
	<path id="XMLID_368_" class="st3" d="M43.5,44.3c-3.1-1.7-6.2-3.1-9.5-4.2c-5-1.5-10.1-1.7-15.3-1.3c-0.6,0-1.6,0.3-1.7-0.3
		c-0.1-0.7,0.9-0.9,1.4-1.1c5.7-1.8,11.3-1.2,16.7,1C38.3,39.8,41.1,41.7,43.5,44.3z"/>
	<path id="XMLID_367_" class="st3" d="M42.5,50.3c-1.1,1.2-2.5,2-3.8,2.8c-2,1.2-3.9,2.4-5.9,3.6c-3.8,2.4-6.9,5.4-9,9.5
		c-0.2,0.5-0.5,1.3-1,1.1c-0.7-0.2-0.3-1-0.3-1.6c0.3-2,1.2-3.6,2.4-5.2c1.3-1.7,2.9-3.2,4.6-4.4C33.6,53.4,38.1,52,42.5,50.3z"/>
	<path id="XMLID_366_" class="st4" d="M21.4,27.4c4.1,0.4,7.9,1.8,11.5,3.8c3.7,2.1,6.9,4.8,9.5,8.1c0.2,0.2,0.6,0.5,0.3,0.8
		c-0.3,0.3-0.6-0.1-0.8-0.3c-5.9-4.6-12.3-8.1-19.3-10.5c-0.5-0.2-1-0.4-1.5-0.6c-0.4-0.2-1-0.3-0.9-0.8
		C20.3,27.2,21,27.5,21.4,27.4z"/>
	<path id="XMLID_365_" class="st3" d="M54.1,56c0.7-0.2,1.4,0,1.9,0.2c7.7,2.6,12.6,8,15.1,15.7c0.1,0.5,0.2,0.9,0.2,1.4
		c0,0.4,0.2,1-0.3,1.2c-0.4,0.1-0.6-0.4-0.8-0.8c-0.4-0.8-0.8-1.6-1.2-2.4c-2.9-5.8-7-10.6-12.5-14C55.7,56.9,54.9,56.5,54.1,56z"/>
	<path id="XMLID_364_" class="st4" d="M55.8,43c1.5-2.4,3.1-4.5,5.3-6.3c4-3.3,8.5-5.3,13.6-5.5c1-0.1,1.9,0,2.9,0.3
		c0.3,0.1,0.7,0.2,0.7,0.6c0,0.4-0.4,0.5-0.8,0.5c-1.4,0.3-2.8,0.5-4.1,0.8c-6.3,1.4-11.7,4.6-16.5,9C56.6,42.6,56.4,43.1,55.8,43z"
		/>
	<path id="XMLID_363_" class="st3" d="M50,55.8c0.6,0.4,0.8,1,1,1.6c2.4,6.7,3.2,13.6,2.1,20.7c-0.1,0.8-0.3,1.6-0.7,2.3
		c-0.1,0.2-0.3,0.5-0.6,0.4c-0.2,0-0.3-0.3-0.4-0.5c-0.2-0.7-0.2-1.3-0.2-2c0-7.1-0.3-14.1-1.1-21.2C50.2,56.7,50.1,56.3,50,55.8z"
		/>
	<path id="XMLID_362_" class="st2" d="M45.9,54.5c-3.9,5.2-6.7,11-8.9,17.1c-0.3,0.8-0.7,1.5-1.1,2.3c-0.2,0.3-0.4,0.6-0.8,0.5
		c-0.3-0.1-0.3-0.5-0.3-0.8c0.1-0.6,0.1-1.2,0.2-1.8c1.2-6.5,4.1-12.1,9.2-16.4C44.8,55,45.2,54.6,45.9,54.5z"/>
	<path id="XMLID_361_" class="st4" d="M51.3,36.4c-0.5-5.8,0-11.4,2.9-16.6c0.6-1.1,1.4-2.2,2.4-3c0.3-0.2,0.7-0.6,1.1-0.3
		c0.4,0.3,0.1,0.8-0.1,1.1c-1.2,2.6-2.5,5.1-3.3,7.9c-1,3.4-1.9,6.8-2.8,10.3C51.5,35.9,51.4,36.1,51.3,36.4z"/>
	<path id="XMLID_360_" class="st4" d="M67.1,48.6c1.7-0.9,3.6-1.2,5.5-1.4c4.6-0.4,8.9,0.6,12.8,3.1c0.6,0.4,1.7,0.9,1.3,1.7
		c-0.4,0.8-1.4,0.1-2.1-0.1C79.1,49.7,73.2,48.6,67.1,48.6z"/>
	<path id="XMLID_359_" class="st2" d="M27.6,53.5c-1.4,0.8-2.7,1.6-4.1,2.5c-3.7,2.2-6.7,5.2-8.4,9.2c-0.2,0.5-0.4,1.4-1.1,1.2
		c-0.8-0.2-0.6-1.1-0.4-1.8c0.9-4.8,4-7.8,8.2-9.8C23.7,54,25.5,53.4,27.6,53.5z"/>
	<path id="XMLID_358_" class="st1" d="M28.5,43.6c-5.7,0.9-10.8,2.5-15.8,4.7c-0.6,0.3-1.3,0.4-1.9,0.6c-0.3,0.1-0.6,0.1-0.8-0.2
		c-0.2-0.3,0-0.6,0.2-0.8c0.3-0.3,0.7-0.7,1.1-1c5-3.4,10.4-4.6,16.4-3.6C27.8,43.4,28,43.5,28.5,43.6z"/>
	<path id="XMLID_357_" class="st4" d="M56.4,61.5c3.1,4.9,5.3,10,5.4,15.8c0,0.6,0,1.2-0.2,1.8c-0.1,0.2-0.2,0.5-0.5,0.5
		c-0.3,0-0.4-0.3-0.5-0.5c-0.4-1-0.6-2-0.8-3c-1-4.6-2.3-9.1-3.2-13.7C56.5,62,56.5,61.7,56.4,61.5z"/>
	<path id="XMLID_356_" class="st1" d="M45.9,60.3c0.3,2.5,0.2,4.7,0.2,6.9c-0.1,3.1-0.1,6.3-0.2,9.4c0,0.7,0.1,1.7-0.6,1.8
		c-0.8,0.1-0.9-0.9-1.1-1.6c-0.9-3.6-0.6-7.3,0.1-10.9C44.7,64.1,45.1,62.3,45.9,60.3z"/>
	<path id="XMLID_355_" class="st2" d="M65.7,58c0.4-0.2,0.7,0.1,0.9,0.3c4.4,2.2,8,5.3,10.9,9.3c0.4,0.6,0.7,1.2,1,1.8
		c0.1,0.3,0.2,0.7-0.1,0.9c-0.3,0.2-0.6,0-0.8-0.2c-0.4-0.2-0.7-0.5-1.1-0.8c-3.6-3.5-7.2-7-10.6-10.7C66,58.5,65.7,58.3,65.7,58z"
		/>
	<path id="XMLID_354_" class="st5" d="M33.8,61.2c-2.1,2.6-3.7,5.3-4.8,8.3c-0.5,1.3-0.9,2.7-1.3,4c-0.2,0.6-0.4,1.2-0.6,1.8
		c-0.1,0.4-0.3,0.9-0.8,0.8c-0.5-0.1-0.5-0.6-0.6-1c-0.1-0.4-0.1-0.9-0.1-1.3c0.3-5.1,2.5-9.2,6.7-12.1C32.8,61.4,33.1,61,33.8,61.2
		z"/>
	<path id="XMLID_353_" class="st4" d="M37.5,30.4c-3.1-2.8-6.8-4.4-10.3-6.4c-1.2-0.7-2.4-1.2-3.4-2.2c-0.3-0.2-0.6-0.5-0.4-0.9
		c0.2-0.3,0.6-0.3,0.9-0.2c5.1,1.5,9.8,3.8,12.8,8.5C37.5,29.6,37.4,29.6,37.5,30.4z"/>
	<path id="XMLID_352_" class="st1" d="M58.7,27.5c0-3.7,3-8,6.3-9.1c0.1,0,0.2-0.1,0.3-0.1c0.7-0.1,1.5-0.5,1.9,0.3
		c0.3,0.7-0.6,1-1.1,1.3c-2.6,1.7-4.5,4.2-6.6,6.6C59.3,26.8,59.1,27.1,58.7,27.5z"/>
	<path id="XMLID_351_" class="st2" d="M71.3,28.1c3-2.5,6.4-3.4,10.2-2.7c0.2,0,0.4,0.1,0.5,0.2c0.4,0.2,0.8,0.4,0.8,0.8
		c0,0.5-0.5,0.6-0.9,0.7c-1.3,0.2-2.6,0.3-3.8,0.4C75.8,27.8,73.6,27.9,71.3,28.1z"/>
	<path id="XMLID_350_" class="st2" d="M43.4,25.3c-1.4-3.1-3-5.8-4.6-8.6c-0.2-0.4-0.6-1-0.1-1.4c0.5-0.4,1,0,1.4,0.3
		C42.8,17.4,44.4,22,43.4,25.3z"/>
	<path id="XMLID_349_" class="st3" d="M86.8,67.2c0,0.1-0.1,0.3-0.2,0.4c-0.6,0.9-0.7,1.8-0.4,2.7c0.1,0.6,0,1-0.7,0.6
		c-0.9-0.5-1.8-0.6-2.8-0.4c-0.8,0.2-0.9-0.1-0.5-0.7c0.5-0.9,0.6-1.8,0.4-2.8c-0.1-0.4-0.1-0.9,0.6-0.6c1,0.6,2,0.7,3.1,0.5
		C86.5,66.8,86.8,66.8,86.8,67.2z"/>
	<path id="XMLID_348_" class="st1" d="M34.7,82.1c-0.1,0.1-0.3,0.3-0.4,0.4c-0.3,0.3-0.6,0.6-0.7,1c-0.4,1.3-0.4,1.3-1.4,0.4
		c-0.2-0.2-0.5-0.3-0.8-0.4c-1.2-0.3-1.2-0.4-0.4-1.2c0.3-0.3,0.4-0.6,0.5-0.9c0.3-1.2,0.3-1.2,1.1-0.4c0.4,0.4,0.9,0.5,1.5,0.7
		C34.4,81.7,34.7,81.7,34.7,82.1z"/>
	<path id="XMLID_347_" class="st1" d="M17.8,19.9c0.1,0.1,0.2,0.1,0.3,0.2c0.6,0.7,1.3,1.1,2.2,1.2c0.5,0.1,0.3,0.5,0,0.6
		c-0.9,0.5-0.7,2.1-1.4,2.3c-0.6,0.1-1.3-1.2-2.3-1.2c-0.2,0-0.6-0.2-0.3-0.5c0.7-0.7,1.1-1.4,1.3-2.4C17.6,20.1,17.7,20,17.8,19.9z
		"/>
	<path id="XMLID_346_" class="st1" d="M60.6,10.5c-0.1,0.1-0.2,0.3-0.4,0.4c-0.5,0.4-0.9,1-0.9,1.7c-0.1,0.6-0.3,0.8-0.8,0.3
		c-0.4-0.5-1-0.9-1.7-0.9c-0.7-0.1-0.8-0.4-0.3-0.8c0.5-0.4,0.9-1,0.9-1.7c0.1-0.7,0.4-0.8,0.8-0.2c0.5,0.6,1.1,0.9,1.8,1
		C60.3,10.2,60.5,10.3,60.6,10.5z"/>
	<path id="XMLID_345_" class="st3" d="M72.4,16.5c0.7-0.8,1.4-1.4,1.5-2.4c0-0.4,0.3-0.6,0.6-0.2c0.6,0.8,1.6,1,2.6,1.3
		c-0.7,0.8-1.4,1.4-1.5,2.5c0,0.5-0.4,0.4-0.6,0.1C74.3,16.9,73.4,16.8,72.4,16.5z"/>
	<path id="XMLID_344_" class="st5" d="M98.2,47.7c-0.9-0.1-1.6-0.9-1.5-1.8c0.1-0.9,0.9-1.6,1.8-1.5c0.9,0.1,1.6,0.9,1.5,1.8
		C99.9,47.1,99.1,47.8,98.2,47.7z"/>
	<path id="XMLID_343_" class="st1" d="M84.3,34.4c0-0.9,0.5-1.3,1.3-1.6c1.2-0.4,1.6-0.4,1.2,1c-0.2,0.8-0.6,1.4-1.4,1.6
		c-0.1,0-0.3,0.1-0.4,0.1c-1,0.5-1.1,0.1-0.8-0.7C84.3,34.7,84.3,34.5,84.3,34.4z"/>
	<path id="XMLID_342_" class="st5" d="M9.9,70.3c0,0.9-0.8,1.6-1.7,1.6c-0.9,0-1.6-0.8-1.6-1.7c0-0.9,0.8-1.6,1.7-1.6
		C9.2,68.7,9.9,69.4,9.9,70.3z"/>
	<path id="XMLID_341_" class="st4" d="M84.8,20.5c-0.9,0-1.6-0.7-1.6-1.6c0-0.9,0.7-1.6,1.6-1.6c0.9,0,1.7,0.7,1.7,1.6
		C86.4,19.7,85.7,20.5,84.8,20.5z"/>
	<path id="XMLID_340_" class="st4" d="M51.6,1.6c0,0.9-0.7,1.6-1.6,1.6c-0.9,0-1.6-0.7-1.7-1.6c0-0.8,0.8-1.6,1.6-1.6
		C50.8,0,51.6,0.7,51.6,1.6z"/>
	<path id="XMLID_339_" class="st4" d="M16.3,14.7c-0.9,0-1.6-0.7-1.6-1.6c0-0.9,0.7-1.6,1.6-1.6c0.9,0,1.6,0.7,1.6,1.6
		C18,13.9,17.2,14.7,16.3,14.7z"/>
	<path id="XMLID_338_" class="st4" d="M6.1,43.3c-0.9,0-1.6-0.7-1.6-1.6c0-0.9,0.7-1.6,1.6-1.6c0.9,0,1.6,0.8,1.6,1.6
		C7.8,42.6,7,43.3,6.1,43.3z"/>
	<path id="XMLID_337_" class="st4" d="M84.9,78.2c0,0.9-0.7,1.6-1.6,1.7c-0.9,0-1.6-0.7-1.7-1.6c0-0.8,0.7-1.6,1.6-1.7
		C84.1,76.6,84.9,77.3,84.9,78.2z"/>
	<path id="XMLID_336_" class="st4" d="M37.3,89.1c0.9,0,1.6,0.7,1.6,1.6c0,0.9-0.7,1.6-1.6,1.6c-0.9,0-1.6-0.7-1.6-1.6
		C35.7,89.8,36.4,89.1,37.3,89.1z"/>
	<path id="XMLID_335_" class="st1" d="M88.9,43.5c0.9,0.8,1.7,1.2,2.9,1.1c-0.5,0.8-1,1.5-1,2.4c0,0.4-0.3,0.4-0.5,0.2
		c-0.1,0-0.1-0.1-0.2-0.1c-0.4-0.9-2,0-1.9-1C88.3,45.4,89,44.6,88.9,43.5z"/>
	<path id="XMLID_334_" class="st1" d="M58.4,88.3c-0.9,0-1.7-0.3-2.5,0.1c-0.3,0.2-0.5,0-0.4-0.4c0-0.1,0-0.2,0-0.2
		c0.4-0.8-0.6-1.8-0.1-2.1c0.5-0.3,1.5,0.2,2.2-0.2c0.3-0.2,0.6-0.1,0.5,0.3C57.8,86.7,58.2,87.4,58.4,88.3z"/>
	<path id="XMLID_333_" class="st1" d="M71.5,81.5c0.3-0.3,0.4-0.5,0.6-0.7c0.6-0.7,1.8-0.9,2.6-0.7c0.3,0.1,0.6,0.2,0.3,0.6
		c-0.2,0.3-0.5,0.5-0.7,0.9c-0.2,0.3-0.1,0.7-0.4,1.1C73.3,82.1,72.6,81.7,71.5,81.5z"/>
	<path id="XMLID_332_" class="st3" d="M42.9,85.9c0.6-0.7,1.3-1.3,1.1-2.5c0.8,0.6,1.3,1.2,2.1,1.3c0.3,0,0.4,0.3,0.1,0.5
		c-0.6,0.5-0.8,1.2-1,2C44.6,86.6,43.9,86.1,42.9,85.9z"/>
	<path id="XMLID_331_" class="st3" d="M10.8,58.6c-0.9,0-1.6-0.1-2.1,0.4c0,0-0.1,0-0.1,0.1c-0.4,0.1-0.4-0.1-0.4-0.4
		c-0.2-1.8-0.2-2,0-2.1c0.3,0,0.7,0.1,1-0.1c0.3-0.2,0.6-0.3,1-0.5C10.1,56.9,10.3,57.7,10.8,58.6z"/>
	<path id="XMLID_330_" class="st3" d="M40.7,11.1c-0.9,0.2-1.6,0.1-2.2,0.6c-0.2,0.3-0.5,0.2-0.5-0.2c0-0.8-0.3-1.4-0.8-2.1
		c0.8-0.2,1.6-0.1,2.1-0.7c0.3-0.3,0.5-0.1,0.5,0.3C39.8,9.8,40.2,10.4,40.7,11.1z"/>
	<path id="XMLID_329_" class="st5" d="M20.7,82.8c-0.1,0.8-0.5,1.3-1.3,1.4c-0.7,0.1-1.5-0.7-1.4-1.4c0.1-0.8,0.6-1.3,1.4-1.3
		C20.2,81.5,20.6,82,20.7,82.8z"/>
	<path id="XMLID_328_" class="st1" d="M11.9,36.3c0.1-1.1,0.1-1.9-0.5-2.7c1,0,1.8,0,2.7-0.5c0,1-0.1,1.8,0.5,2.6
		C13.7,35.7,12.8,35.6,11.9,36.3z"/>
	<path id="XMLID_327_" class="st1" d="M15.5,71.4c0.8-0.1,1.5-0.1,2.1-0.6c0.2-0.2,0.5,0,0.4,0.2c-0.1,0.8,0.4,1.4,0.8,2.1
		c-0.8,0.1-1.5,0.1-2.1,0.7c-0.2,0.2-0.5,0-0.4-0.2C16.3,72.7,15.8,72.1,15.5,71.4z"/>
	<path id="XMLID_326_" class="st5" d="M93.8,66.5c-0.9,0-1.3-0.5-1.4-1.3c-0.1-0.7,0.6-1.4,1.4-1.4c0.8,0,1.3,0.6,1.3,1.4
		C95.1,66,94.6,66.4,93.8,66.5z"/>
	<path id="XMLID_325_" class="st4" d="M31.9,3.2c0.1-0.8,0.5-1.3,1.3-1.3c0.8,0,1.3,0.4,1.4,1.2c0.1,0.8-0.6,1.5-1.3,1.4
		C32.5,4.5,32,4,31.9,3.2z"/>
	<path id="XMLID_324_" class="st5" d="M6.5,27.1c-0.7,0-1.2-0.4-1.2-1.1c0-0.7,0.4-1.1,1.1-1.1c0.6,0,1,0.4,1.1,1.1
		C7.6,26.6,7.2,27,6.5,27.1z"/>
	<path id="XMLID_323_" class="st5" d="M95.9,31.1c-0.7-0.1-1.1-0.5-1.1-1.2c0-0.6,0.5-1,1.1-1c0.7,0,1.1,0.4,1.1,1.1
		C97,30.7,96.5,31.1,95.9,31.1z"/>
	<path id="XMLID_322_" class="st5" d="M71.2,6.1c-0.6-0.1-1-0.5-1-1.1c0-0.7,0.5-1,1.1-1C71.9,4,72.3,4.4,72.2,5
		C72.2,5.7,71.8,6,71.2,6.1z"/>
	<path id="XMLID_321_" class="st5" d="M66,90.1c0.7,0.1,1.1,0.4,1.1,1.1c0,0.7-0.4,1-1,1c-0.6,0-1-0.4-1-1
		C65,90.5,65.5,90.2,66,90.1z"/>
	<path id="XMLID_320_" class="st5" d="M1,48.9C1.6,49,2.1,49.3,2.1,50c0,0.6-0.4,1-1,1.1c-0.6,0-1-0.4-1.1-1C0,49.4,0.4,49,1,48.9z"
		/>
	<path id="XMLID_319_" class="st4" d="M65.6,57.9C65.5,57.9,65.5,57.9,65.6,57.9c-0.1,0.1-0.1,0-0.1,0
		C65.4,57.8,65.5,57.8,65.6,57.9C65.5,57.8,65.5,57.9,65.6,57.9z"/>
</g>
</svg>
