<?xml version="1.0" encoding="utf-8"?>
<!-- Generator: Adobe Illustrator 19.0.0, SVG Export Plug-In . SVG Version: 6.00 Build 0)  -->
<svg version="1.1" id="Layer_1" xmlns="http://www.w3.org/2000/svg" xmlns:xlink="http://www.w3.org/1999/xlink" x="0px" y="0px"
	 viewBox="-598.9 -26.7 504.8 579.5" style="enable-background:new -598.9 -26.7 504.8 579.5;" xml:space="preserve">
<style type="text/css">
	.st0{fill:#FDFDFD;}
	.st1{fill:#9199C4;}
	.st2{fill:#42497C;}
	.st3{fill:#CC3011;}
	.st4{fill:#606DA7;}
	.st5{fill:#9E2810;}
	.st6{fill:#FFC545;}
	.st7{fill:#DD1500;}
	.st8{fill:#F4F2ED;}
	.st9{fill:#CDE0E7;}
	.st10{fill:#140F35;}
</style>
<g>
	<path class="st0" d="M-438.2,431.7c-8.3,0-16.6,0-25,0c-2,0-4,0-5.8-1c0.1-2.7,0.2-5.3,0.2-8c-0.1-31.5-0.2-62.9-0.3-94.4
		c0-49.6,0-99.2,0.1-148.8c24.1-1,48.2-0.2,72.3-0.2c54.2-0.1,108.4,0,162.7-0.2c4.2,0,6.1,1.2,5.7,5.4c-0.2,1.1-0.5,2.3-0.5,3.4
		c-0.4,71.7-0.8,143.3-1.2,215c0,4.1,1.2,5.6,5.2,4.3c5.4-0.8,6.5,1.7,6,6.6c-0.5,5.2-0.3,10.5-0.4,15.8c-13.5,0-27,0-40.5,0
		c-0.1-0.6-0.2-1.3-0.4-1.9c0-26.9-0.1-53.9-0.1-80.8c0.1-8.8,0.4-17.6,0.1-26.4c-0.3-8.5-3-10.8-11.4-10.8c-52.1,0-104.1,0-156.2,0
		c-7.6,0-10.2,2.5-10.3,10.2c-0.1,9,0,18,0.1,26.9c0,27,0.1,54,0.1,81C-438,429.2-438.1,430.4-438.2,431.7z"/>
	<path class="st1" d="M-235,90.8c3.8,1.9,7.9,2.1,12.1,2.1c13.5-0.1,26.9,0.1,40.4-0.1c4-0.1,5.6,0.8,5.5,5.2
		c-0.3,11.5-0.1,23,0,34.4c0,3.1-0.9,4-4.1,4.7c-6.2,1.2-12.3-0.4-18.4-0.3c-1.8-1.1-3.9-0.9-5.9-0.9c-34.3-0.1-68.6-0.3-103-0.3
		c-65,0-130,0.1-194.9,0.1c-5.6,0-11.3-0.1-16.9,0.1c-2.8,0.1-3.8-1-3.8-3.8c0.1-12,0.1-23.9,0.1-35.9c0-2.9,1-4.6,4-4.1
		c10.9,1.9,21.8,0.3,32.7-0.1c6.7-0.3,13.5,2.3,20.2-0.2c9.9,1.2,19.9,0.6,29.8-0.2c3,1.7,6.1,0.1,9.2,0.1
		c62.6,0.1,125.1,0.1,187.7,0.1C-238.4,91.8-236.5,92.6-235,90.8z M-466.2,126.8c7.7,0,13-4.8,13-11.9c0.1-6.9-6-12.9-13.1-13
		c-7.5-0.1-12.7,4.9-12.7,12.4C-479,122.1-474.2,126.8-466.2,126.8z M-230.3,127.8c7.1,0.1,13-5.6,13.2-12.8
		c0.1-6.7-6.5-13-13.7-13.1c-7.1,0-12.9,5.4-13,12.3C-244,121.6-238,127.7-230.3,127.8z M-348.5,126.8c6.5,0,12.3-5.9,12.3-12.6
		c0-6.6-5.8-12.1-12.6-12.2c-6.7-0.1-12.1,5.6-12.1,12.5C-360.8,121-354.9,126.8-348.5,126.8z M-420,113.3
		c-0.2,7.4,5,13.3,11.7,13.5c7.1,0.1,12.9-5.3,13-12.3c0.1-6.6-5.5-12.4-12.3-12.5C-414.6,101.7-419.8,106.5-420,113.3z
		 M-290.9,126.8c7,0,12.4-5.4,12.3-12.2c-0.1-7.3-5.5-12.7-12.6-12.7c-6.4,0.1-12.5,6.4-12.6,13.1
		C-303.9,121.2-297.8,126.9-290.9,126.8z"/>
	<path class="st2" d="M-503.2,135.8c65,0,130-0.1,194.9-0.1c34.3,0,68.6,0.2,103,0.3c2,0,4-0.2,5.9,0.9c0.1,7,0.2,14,0.3,21
		c-0.5,6.9-0.5,7,6.4,7c3,0,4.1,0.7,4,3.9c-0.3,11.1,1.5,10-10.1,10.2c-2.4-0.4-4.8,0.2-7.1,0.9c-4.9-0.3-9.9-0.6-14.8,0.1
		c-4.4-1.4-6.4,1-7.6,4.7c0.5-4.3-1.5-5.5-5.7-5.4c-54.2,0.2-108.4,0.1-162.7,0.2c-24.1,0-48.2-0.7-72.3,0.2
		c-2.4-1.7-4.7,0.8-7.1,0.2c-6,0-11.9-0.1-17.9-0.1c-4-0.7-5.1,1.1-5.1,5c0.1,30.5,0.1,60.9,0,91.4c0,1.8,1,4.1-1.2,5.5
		c0-10.9,0.1-21.8,0.1-32.7c0-0.4,0-0.8,0.1-1.3c0-4.9,0-9.8,0-14.8c0.8-17.2,0.2-34.4,0.2-51.6c0-0.5-0.6-1-1-1.6
		c-8.9-0.5-8.2-0.6-9.1-9.4c-0.8-7.5,3.8-6.3,8-6.7c0.7,0,0.8-0.3,0.6-0.9c-0.1-1.7-0.2-3.4-0.3-5.1c0.9-6.4,0.7-12.6-1.9-18.7
		c0-0.4,0.1-0.9,0.1-1.3C-503.3,137.1-503.3,136.4-503.2,135.8z M-223,142.9c-1.4,1.9-1.1,4.1-1,6.3c0.1,2.2,1,3.3,3.1,2
		c4.4-2.6,9.4-4.3,12.8-8.3C-213,141.1-218,141.3-223,142.9z M-492.9,142.9c1.2,4,5.4,4.6,7.9,7.1c1.5,1.5,3.4,3.1,5.5,1
		c2.8-2.7,9-1.8,8.4-8C-478.4,141.3-485.6,141.2-492.9,142.9z M-345.8,161.7c6.4-2.8,12.9-5.5,20-8.6c-6.8-3.3-12.7-6.2-18.6-9
		c-0.9-0.4-1.6-0.2-1.9,0.7C-347.1,150.5-348,156.1-345.8,161.7z M-358,160.7c2.6-1.7,6,2.9,7.7-0.4c1.2-2.4,0.3-5.9,0.3-8.9
		c0-1.8-0.1-3.7,0-5.5c0-2-0.7-2.9-2.7-1.9c-5.9,2.8-11.8,5.6-18.4,8.7c4,1.8,7.1,3.3,10.3,4.7c1.4,0.7,3.4,0.9,3,3.3
		c-3.5,0.8-5.9-1.7-8.7-3c-7.7-3.4-18.5-1.4-24.8,4.8c9.7,0,19.3,0,28.9,0C-360.8,162.6-358.6,163.4-358,160.7z M-460.6,177
		c0.1,0.2,0.1,0.3,0.2,0.5c76.3,0,152.7,0,229,0c0-0.2,0-0.3,0-0.5C-307.8,177-384.2,177-460.6,177z M-296.1,162.5
		c0-5.6,0-10.8,0-15.9c0-1.8-0.2-3.6-2.8-2.5c-6.1,2.7-12.2,5.5-19.3,8.8C-310,156-303.7,160.2-296.1,162.5z M-378.7,152.8
		c-7.2-3.2-13.4-5.9-19.5-8.6c-2.3-1-2.9-0.1-2.8,2.1c0.1,4.1,0.1,8.3-0.1,12.4c-0.2,3.3,1.2,3.7,3.8,2.5
		C-391.5,158.6-385.6,156-378.7,152.8z M-426.7,152.7c6.7,3.1,12.6,5.7,18.4,8.4c2.5,1.2,3.6,0.7,3.5-2.2c-0.1-4.1,0-8.3,0-12.4
		c0-2.2-0.6-3.5-3.2-2.2C-413.9,147.1-419.9,149.7-426.7,152.7z M-292.3,162.2c7.4-3.5,13.8-6.5,21.2-10c-6.7-3-12.3-5.6-17.9-8
		c-2-0.9-3.5-0.8-3.4,2.1C-292.2,151.3-292.3,156.3-292.3,162.2z M-264.1,152.3c3.7,1.7,6.6,3.1,9.5,4.6c3.1,1.5,6.1,2.9,9.9,4.8
		c0-5.5,0-10.1,0-14.7c0-2.1-0.2-3.7-3.1-2.2C-252.9,147.2-258.2,149.5-264.1,152.3z M-251.9,162.4c-5.2-3.4-10.3-8.3-16-7.8
		c-5.6,0.5-10.8,4.5-16.2,7c0.1,0.2,0.3,0.5,0.4,0.7C-273.1,162.4-262.5,162.4-251.9,162.4z M-413.3,162.7c-14.9-9.2-25.7-9-34.5,0
		C-436.5,162.7-425.4,162.7-413.3,162.7z M-434.9,152.7c-6.1-2.7-11.3-4.9-16.3-7.2c-2.1-0.9-3-0.8-3,1.8c0.1,3.6,0.1,7.3,0,10.9
		c-0.1,2.5,0.7,2.8,2.9,1.8C-446.3,157.7-441.1,155.5-434.9,152.7z M-448.2,143.1c5.1,3.4,10,4.8,14.6,6.8c1.2,0.5,2.4,1.3,3.8,0.7
		c5.2-2.3,10.4-4.6,17-7.5C-425.3,143.1-436.3,143.1-448.2,143.1z M-305.2,162.6c-12.7-8.8-23.4-8.6-32.3,0
		C-327,162.6-316.5,162.6-305.2,162.6z M-338.6,142.9c13.4,9,22.6,8.9,32.4,0C-316.8,142.9-327.2,142.9-338.6,142.9z M-391.9,142.9
		c13.6,9,22.9,8.9,32.3,0C-370.2,142.9-380.6,142.9-391.9,142.9z M-241,162.4c3.9-2,6.9-3.3,9.7-5c3-1.8,2.9-4.3,0.4-6.4
		c-2.4-2-5.3-3.4-7.9-5.1c-1.8-1.3-2.2-0.5-2.2,1.3C-240.9,151.9-241,156.6-241,162.4z M-253.7,143.3c-9.5,0-18.8,0-28,0
		C-272.4,151.9-263,150.9-253.7,143.3z M-457.4,153.1c-0.1,0-0.2,0-0.3,0c0-2.3,0.1-4.7,0-7c-0.1-1,0-2.8-1.9-1.8
		c-2.7,1.3-6.2,2-5.7,6.4c0.3,2.6,0.2,5.3,0,8c-0.2,3.2,1.7,3.3,4.1,3.4c2.7,0.1,3.5-0.9,3.4-3.4
		C-457.7,156.7-457.5,154.9-457.4,153.1z M-207,146.7c-4.6,2.6-8.4,4.8-12.5,7.2c3.5,2.3,6.5,4.1,9.3,6.1c0.8,0.5,1.3,1.6,2.4,1.2
		c1.4-0.4,0.7-1.7,0.8-2.5C-207,155-207,151.4-207,146.7z M-472.8,162.5c-9.8-7.5-10.3-7.5-18.6,0
		C-485.2,162.5-479.3,162.5-472.8,162.5z M-484.1,154c-3.6-2.2-5.9-5-9.7-6.2c0,4,0,7.5,0,11.8C-490.5,157.8-487.6,156.1-484.1,154z
		 M-213,162.4c-2-2.7-4.4-3.8-6.7-4.9c-1.3-0.6-2.7-2.6-4.3-0.6c-1.3,1.7-1.2,3.7-0.3,5.6c0.9,2.2,3,1.7,4.3,1.1
		C-217.9,162.8-215.8,163.1-213,162.4z M-478.7,154.5c3.1,1.1,4.8,5.6,8.1,4.1c1.4-0.6,1.6-5.9-0.1-7.2
		C-473.7,148.9-475.7,153.3-478.7,154.5z M-236.9,143.3c2.3,1.6,4.4,3.5,7.4,4C-229.2,140.1-234.2,143.8-236.9,143.3z"/>
	<path class="st3" d="M-235,90.8c-1.4,1.7-3.4,1-5.1,1c-62.6,0-125.1,0.1-187.7-0.1c-3,0-6.1,1.6-9.2-0.1c0.1-0.9,0.6-1.5,1.3-2
		c22.5-14.4,43.9-30.1,65.7-45.4c5.9-4.1,12.4-7.6,16.9-13.5c0,0,0,0,0,0c1.1,0.1,1.7-0.5,2.1-1.5c2-2.3,3.6-0.3,5.2,0.5
		C-308.9,50.1-272,70.5-235,90.8z"/>
	<path class="st4" d="M-476.2,179.9c2.4,0.6,4.7-1.9,7.1-0.2c0,49.6-0.1,99.2-0.1,148.8c0,31.5,0.2,62.9,0.3,94.4
		c0,2.7-0.1,5.3-0.2,8c-2,0-3.9,0-5.9,0c0-4.6-0.4-9.2-0.1-13.8c0.4-5.4-1.4-9.2-6-11.9c0-1.8,0-3.6,0-5.4c1.9,1,2.7,3.6,5.5,3.9
		c0-9.7,0-19.2,0-28.9c-2.8,1.2-3.7,3.7-5.4,5.4c-1.4-0.9-1.8-2.8-3.6-3.2c6.4-7.3,6.4-7.3-0.5-14.8c-1.4-1.6-2.7-3.4-4.3-4.8
		c-1.6-1.4-1.8-4.4-4.8-4.3c-1.2,1.2-0.9,2.7-0.9,4.2c0,6.5,0,13.1,0.1,19.6c-1.9,0-3.7,0.1-5.6,0.1c0.1-1.9,0.1-3.7,0.2-5.6
		c0-0.6,0-1.1,0-1.7c-1-28.8-0.3-57.6-0.3-86.4c0-0.5,0.2-1,0.4-1.4c2.2-1.4,1.2-3.6,1.2-5.5c0.1-30.5,0.1-60.9,0-91.4
		c0-3.9,1-5.7,5.1-5c0,6.1,0,12.2,0,19.8C-487.4,192.3-481,186.8-476.2,179.9z M-494,305.8c-1.2,1-0.9,2.4-0.9,3.7
		c0,8.8,0,17.7,0,26.5c0,1.3-0.2,2.7,1,3.7c5.5-4.3,9.4-10.1,14.5-14.8c1.5-1.4,0.3-2.3-0.5-3.3c-3.7-4.7-7.3-9.4-11-14
		C-491.7,306.7-492.2,305.1-494,305.8z M-494.1,208.9c-1.1,1.1-0.9,2.4-0.9,3.8c0,9.5,0,18.9,0,28.4c0,1.3-0.2,2.7,1,3.7
		c5.8-4.5,10-10.5,15.4-15.5c1.6-1.5,0.2-2.7-0.7-3.8c-3.9-5-7.8-10-11.8-14.9C-491.7,209.7-492.2,207.9-494.1,208.9z M-494,256.9
		c-1.4,1.4-0.9,3.1-0.9,4.7c0,8.8,0,17.6,0,26.5c0,1.6-0.5,3.4,0.9,4.7c6.7-4.5,10.6-11.6,16.2-17.1c1.2-1.2-0.2-2.1-0.9-2.9
		c-3.9-4.7-7.8-9.4-11.9-13.9C-491.4,257.9-491.9,255.8-494,256.9z M-475.4,327.3c-6.1,5.7-11.3,11.1-16.1,16.7
		c-1.1,1.3-1.6,2.3-0.2,3.8c5.3,5.8,10.5,11.8,16.4,18.4C-475.4,352.9-475.4,340.7-475.4,327.3z M-475.3,279.2
		c-5.7,6.5-10.7,12.1-15.6,17.7c-0.9,1-1.9,2-0.7,3.4c5.2,6.4,10.4,12.9,16.3,20.2C-475.3,306.3-475.3,293.4-475.3,279.2z
		 M-475.4,270.2c0-13.2,0-25.3,0-38.5c-5.5,6.1-10.2,11.4-15,16.6c-1.2,1.3-1.4,2.4-0.2,3.9C-485.7,257.9-480.9,263.7-475.4,270.2z
		 M-475.2,186.8c-5.4,5.1-10.4,9.9-15.4,14.7c-0.7,0.7-1.6,1.4-0.7,2.5c5.2,6.3,10.3,12.5,16,19.4
		C-475.2,210.6-475.2,198.8-475.2,186.8z"/>
	<path class="st1" d="M-198.9,374.8c1.4,0,2.7,0,4.1,0c17,0,34,0,50.9,0c7.6,0.7,15.3,0.4,23,0c4.5-0.2,6.2,1.2,6.2,5.9
		c-0.2,17,0,34,0.1,50.9c-1.7,1.6-3.4,1.5-5.3,0.5c2.2-10.8,0.5-21.6,1.2-33.5c-12.3,10.9-23.1,21.5-33.7,32.3
		c-0.3,0.3-0.3,0.9-0.5,1.4c-3.1,1.1-6.1,0.4-9.1-0.5c-0.1-16.6-0.1-33.2-0.2-49.8c0-2.1,0.1-4.1-3-4c-2.7,0.1-2.6,2-2.6,3.9
		c0,16.9,0,33.9,0,50.8c-2.4-0.1-4.9-0.1-7.3-0.2c2.3-8,0.7-16.2,1.1-24.2c0.1-1.3,0.8-3.4-1-4c-1.3-0.4-2.2,1.2-3.1,2.1
		c-7.4,7.4-14.9,14.7-22.3,22.1c-1.2,1.2-2.6,2.2-2.5,4.1c-4.4,0.1-8.7,0.8-13.1-0.4c0-2.8,0-5.6-0.2-8.4
		c-0.4-7.7,0.8-15.4-0.6-23.1c0.1-8.6,0.3-17.1,0.4-25.7c3.3-0.9,6.7-0.4,10.1-0.4C-203.8,374.8-201.4,374.8-198.9,374.8z
		 M-157,412.7c0.4,0.3,0.8,0.6,1.3,0.8c10.8-10.3,21.5-20.5,33.3-31.8c-11.4,0-21.2,0-31,0c-2.5,0-3.6,1-3.6,3.5
		C-156.9,394.4-157,403.5-157,412.7z M-209.3,417.7c1.1-1.5,2.1-3.1,3.3-4.4c8.8-9.1,18.1-17.5,27.5-26c1.6-1.4,4.6-3.1,3.3-4.8
		c-1.5-2-4.9-1.2-7.4-0.3c-1.3,0.4-2.3,1.9-3.4,2.9c-7.2,7.1-14.2,14.5-21.7,21.3C-211,409.6-211.7,412.8-209.3,417.7z M-119.6,386
		c-12.1,11.8-23.8,23-35.4,34.3c-0.7,0.7-1.4,1.5-1.7,2.4c-0.4,1.1-0.7,2.5,0.3,3.3c1.3,1,2.1-0.4,2.8-1.1
		c10.7-10.4,21.4-20.8,32.2-31.1C-119.3,391.8-118.4,389.6-119.6,386z M-211,401.9c7.2-6.8,13.4-12.7,19.7-18.6
		c0.4-0.4,0.8-1.2,0.7-1.6c-0.2-1-1.3-0.9-2.1-0.9c-4,0-8-0.3-11.9,0.1c-3.2,0.3-6.2,1.8-6.4,5.7C-211.2,391.3-211,396.1-211,401.9z
		 M-174.5,390.1c-11.8,11.4-23.2,22.4-34.6,33.5c-0.7,0.7-1.1,1.7-1.5,2.6c-0.4,0.9-0.6,2.1,0.2,2.8c1,0.9,1.8-0.1,2.5-0.7
		c3.3-3.3,7-6.1,10.2-9.5c6.7-6.9,13.7-13.6,20.9-19.9C-174.1,396.4-173.6,394-174.5,390.1z"/>
	<path class="st1" d="M-584.2,431.8c0-12.8,0.1-25.5,0.1-38.3c0-3.8,0.2-7.6,0-11.4c-0.2-4.1,1.6-5.5,5.6-5.4
		c7,0.2,13.9,0.1,20.9,0.1c8.2,0.1,16.4,0.1,24.6,0.2c-0.3,10-0.7,19.9-0.8,29.9c0,8.6-0.7,17.2,0.5,25.8c-2.6-0.2-5.3,0.9-7.8-0.8
		c0-9.8,0-19.6-0.1-29.4c0-1.1,0.5-2.6-0.9-3.1c-1.3-0.5-2,0.9-2.8,1.6c-8.9,8.9-17.9,17.7-26.8,26.7c-1.4,1.4-3.2,2.4-3.5,4.6
		C-578.1,432.2-581.1,432-584.2,431.8z M-543,392.8c0.1,0.6,0.1,1.3,0.2,1.9c0.2-0.1,0.4-0.2,0.6-0.3
		C-542.4,393.9-542.7,393.4-543,392.8c-1.4-5.2-3.8-2.7-5.9-0.6c-9.8,9.7-19.5,19.5-29.4,29.2c-1.9,1.8-2,3.5-1.2,6.2
		c1.5-1.3,2.7-2.4,3.8-3.5c9.4-9.4,18.8-18.8,28.3-28.2C-546.1,394.5-545,392.9-543,392.8z M-580.9,405.2c0.5,2.5-1.4,6.2,1.1,7.5
		c2.3,1.2,3.5-2.8,5.7-3.8c0.2-0.1,0.3-0.1,0.4-0.3c7.3-6.8,14.6-13.6,21-21.3c1.2-1.4,2.7-3,0-4.4c-9.2-4.9-24.3-2.5-27,10.9
		C-580.5,397.6-581.5,401.4-580.9,405.2z"/>
	<path class="st1" d="M-500.5,376.7c1.9,0,3.7-0.1,5.6-0.1c0.3,0.1,0.7,0.1,1,0.2c3.2,0,6.3,0,9.5-0.1c1.8,0.4,2.2,2.3,3.6,3.2
		c-1.5,6.6-0.6,13.1-0.1,19.7c0,1.8,0,3.6,0,5.4c-0.2,8.9,0.6,17.9-0.6,26.8c-1.7,0.1-3.4,0.1-5.2,0.2c-0.1-8-0.1-15.9-0.2-23.9
		c0-0.9,0.4-2.2-0.9-2.5c-0.7-0.1-1.6,0.4-2.2,0.9c-8.7,8.5-17.7,16.8-25.8,26c-4.2,0.1-8.4,0.1-12.5,0.2
		c0.1-18.5,0.2-37.1,0.3-55.6c7.8-0.1,15.5-0.2,23.3-0.3C-503.4,376.8-501.9,376.7-500.5,376.7z M-524,405.3c0,3.3,0,6,0,8.6
		c0,0.8,0.2,1.8,0.7,2.2c1.1,0.7,1.8-0.4,2.4-1c9.1-9,18.1-18,27.2-27c1.1-1.1,2-1.8,0-3.4c-10.5-8.6-26.5-3.2-29.6,10
		C-524.2,398.3-523.9,402.1-524,405.3z M-523.3,430.4c6.4-6,12.7-11.9,19-17.7c5.2-4.9,10.4-9.8,15.6-14.7c1.6-1.5,2.6-3.5,0.8-5.2
		c-1.9-1.8-2.9,0.6-3.9,1.6c-10.1,9.9-20,20-30.1,29.9C-523.6,425.9-524.6,427.6-523.3,430.4z"/>
	<path class="st4" d="M-438.2,431.7c0.1-1.3,0.3-2.6,0.4-3.8c59.2,0,118.5,0,177.7,0c0.1,0.6,0.2,1.3,0.4,1.9
		c0.5,3.9-0.8,5.4-5.1,5.4c-55.5-0.1-111.1,0-166.6-0.1C-433.9,435-437.9,436.8-438.2,431.7z"/>
	<path class="st5" d="M-353,30.7c-4.5,5.9-11,9.4-16.9,13.5c-21.8,15.3-43.3,31.1-65.7,45.4c-0.8,0.5-1.2,1.1-1.3,2
		c-9.9,0.7-19.9,1.4-29.8,0.2c13.8-7.5,27.7-14.9,41.5-22.5c21-11.5,41.9-23,62.9-34.4C-359.4,33.3-356.7,30.9-353,30.7z"/>
	<path class="st4" d="M-575,432.3c0.3-2.2,2.2-3.3,3.5-4.6c8.9-8.9,17.8-17.8,26.8-26.7c0.8-0.8,1.4-2.2,2.8-1.6
		c1.3,0.5,0.8,2,0.9,3.1c0.1,9.8,0.1,19.6,0.1,29.4c-4.9,1.9-9.8,0.3-14.7,0.4C-562.1,432.3-568.6,432.3-575,432.3z"/>
	<path class="st4" d="M-153,432.4c0.1-0.5,0.2-1.1,0.5-1.4c10.5-10.8,21.3-21.4,33.7-32.3c-0.7,11.9,1,22.7-1.2,33.5
		C-131,432.2-142,432.3-153,432.4z"/>
	<path class="st4" d="M-202.9,432.7c-0.1-1.9,1.4-2.9,2.5-4.1c7.4-7.4,14.8-14.8,22.3-22.1c0.9-0.9,1.8-2.6,3.1-2.1
		c1.8,0.6,1.1,2.6,1,4c-0.4,8.1,1.3,16.3-1.1,24.2C-184.4,432.6-193.7,432.7-202.9,432.7z"/>
	<path class="st4" d="M-515.8,432.6c8.1-9.2,17.1-17.5,25.8-26c0.5-0.5,1.5-1,2.2-0.9c1.3,0.2,0.9,1.6,0.9,2.5
		c0.1,8,0.2,15.9,0.2,23.9C-496.4,432.2-506.1,432.4-515.8,432.6z"/>
	<path class="st0" d="M-167.8,432.8c0-16.9,0-33.9,0-50.8c0-1.9-0.1-3.8,2.6-3.9c3-0.1,3,1.9,3,4c0,16.6,0.1,33.2,0.2,49.8
		C-163.8,433.3-165.9,432.4-167.8,432.8z"/>
	<path class="st0" d="M-528.1,377.1c-0.1,18.5-0.2,37.1-0.3,55.6c-1.6,0-3.2,0-4.8,0c-1.1-8.6-0.5-17.2-0.5-25.8
		c0-10,0.5-19.9,0.8-29.9C-531.3,377.1-529.7,377.1-528.1,377.1z"/>
	<g>
		<path class="st6" d="M-249.2,19.5c-0.2,0-0.4,0-0.6-0.1c-1.1-0.2-3.2-1.4-3.3-3.2c-0.4-5.7-4.6-7.8-11.3-10.9
			c-0.7-0.3-1.2-1.1-1.2-1.9c0-0.8,0.5-1.5,1.2-1.8c7.1-2.9,10.9-4.7,11.3-10.4c0.2-2.2,1.7-3.2,3.1-3.2c1.8,0,3.5,1.5,4,3.5
			c1.1,5,3.9,7.7,8.7,8.6c2.1,0.4,3.4,1.9,3.2,3.8c-0.2,1.9-1.7,3.4-3.7,3.7c-5,0.8-7.6,3.5-8.1,8.4
			C-246.3,18.6-247.9,19.5-249.2,19.5z"/>
		<path class="st7" d="M-250-10c0.8,0,1.8,0.8,2,2c1.3,5.7,4.6,9,10.3,10.1c0.8,0.2,1.7,0.6,1.5,1.6c-0.1,1.2-1,1.8-2.1,2
			c-5.8,0.9-9.1,4.3-9.8,10.2c-0.1,0.7-0.4,1.6-1.2,1.6c-0.1,0-0.2,0-0.3,0c-0.7-0.1-1.7-0.9-1.7-1.4c-0.5-6.9-5.7-9.5-12.5-12.6
			c6.8-2.8,12-5,12.6-12.1C-251.1-9.6-250.6-10-250-10 M-250-14C-250-14-250-14-250-14c-2.8,0-4.9,2.1-5.1,5.1
			c-0.3,4.4-2.9,5.8-10.1,8.7c-1.5,0.6-2.5,2-2.5,3.6s0.9,3.1,2.4,3.7c6.8,3.1,9.8,4.9,10.2,9.2c0.2,2.8,3,4.6,4.9,5
			c0.3,0.1,0.7,0.1,1,0.1c2.3,0,4.8-1.6,5.2-5.2c0.5-4.1,2.3-6,6.5-6.7c3-0.5,5.1-2.6,5.4-5.5c0.3-2.9-1.6-5.4-4.8-6
			c-4.1-0.8-6.2-2.9-7.1-7.1C-244.7-11.8-247.3-14-250-14L-250-14z"/>
	</g>
	<g>
		<path class="st6" d="M-554.5,173.5c-0.2,0-0.4,0-0.6-0.1c-1.1-0.2-3.2-1.4-3.3-3.2c-0.4-5.7-4.6-7.8-11.3-10.9
			c-0.7-0.3-1.2-1.1-1.2-1.9c0-0.8,0.5-1.5,1.2-1.8c7.1-2.9,10.9-4.7,11.3-10.4c0.2-2.2,1.7-3.2,3.1-3.2c1.8,0,3.5,1.5,4,3.5
			c1.1,5,3.9,7.7,8.7,8.6c2.1,0.4,3.4,1.9,3.2,3.8c-0.2,1.9-1.7,3.4-3.7,3.7c-5,0.8-7.6,3.5-8.1,8.4
			C-551.6,172.6-553.2,173.5-554.5,173.5z"/>
		<path class="st7" d="M-555.4,144c0.8,0,1.8,0.8,2,2c1.3,5.7,4.6,9,10.3,10.1c0.8,0.2,1.7,0.6,1.5,1.6c-0.1,1.2-1,1.8-2.1,2
			c-5.8,0.9-9.1,4.3-9.8,10.2c-0.1,0.7-0.4,1.6-1.2,1.6c-0.1,0-0.2,0-0.3,0c-0.7-0.1-1.7-0.9-1.7-1.4c-0.5-6.9-5.7-9.5-12.5-12.6
			c6.8-2.8,12-5,12.6-12.1C-556.4,144.4-555.9,144-555.4,144 M-555.4,140C-555.4,140-555.4,140-555.4,140c-2.8,0-4.9,2.1-5.1,5.1
			c-0.3,4.4-2.9,5.8-10.1,8.7c-1.5,0.6-2.5,2-2.5,3.6s0.9,3.1,2.4,3.7c6.8,3.1,9.8,4.9,10.2,9.2c0.2,2.8,3,4.6,4.9,5
			c0.3,0.1,0.7,0.1,1,0.1c2.3,0,4.8-1.6,5.2-5.2c0.5-4.1,2.3-6,6.5-6.7c3-0.5,5.1-2.6,5.4-5.5c0.3-2.9-1.6-5.4-4.8-6
			c-4.1-0.8-6.2-2.9-7.1-7.1C-550.1,142.2-552.6,140-555.4,140L-555.4,140z"/>
	</g>
	<g>
		<path class="st8" d="M-416.9,18.9c-0.2,0-0.5,0-0.8-0.1c-1.4-0.3-3.9-1.8-4.1-3.8c-0.6-8.5-6.8-11.8-16.8-16.4
			c-0.7-0.3-1.2-1.1-1.2-1.9c0-0.8,0.5-1.5,1.2-1.8c10.3-4.2,16.1-7,16.8-15.7c0.2-2.8,2.1-3.8,3.6-3.8c2.2,0,4.3,1.9,4.9,4.4
			c1.7,7.5,5.9,11.6,13.2,13c3.1,0.6,4,2.7,3.8,4.5c-0.3,2.4-2.1,4.2-4.6,4.6c-7.6,1.2-11.5,5.3-12.4,12.9
			C-413.5,17.8-415.3,18.9-416.9,18.9z"/>
		<path class="st7" d="M-418.1-22.7c1.2,0,2.6,1.2,2.9,2.8c1.8,8.2,6.6,13,14.8,14.5c1.1,0.2,2.4,0.8,2.2,2.3
			c-0.2,1.7-1.5,2.6-3,2.9c-8.4,1.4-13.1,6.1-14.1,14.6c-0.1,1-0.5,2.4-1.7,2.4c-0.1,0-0.2,0-0.4,0c-1-0.2-2.4-1.3-2.5-2
			c-0.7-9.9-8.2-13.7-17.9-18.1c9.8-4,17.2-7.2,18-17.4C-419.6-22.1-418.9-22.7-418.1-22.7 M-418.1-26.7
			C-418.1-26.7-418.1-26.7-418.1-26.7c-2.5,0-5.3,1.8-5.6,5.7c-0.6,7.6-5.5,9.9-15.5,14c-1.5,0.6-2.5,2-2.5,3.6
			c0,1.6,0.9,3.1,2.4,3.7c10.2,4.6,15.1,7.6,15.6,14.7c0.2,3.1,3.5,5.2,5.7,5.6c0.4,0.1,0.8,0.1,1.1,0.1c2.3,0,5.2-1.5,5.7-5.9
			c0.7-6.6,4-10,10.7-11.1c3.5-0.6,5.9-3.1,6.3-6.4c0.3-2.8-1.3-5.9-5.4-6.7c-6.5-1.2-10.1-4.8-11.6-11.5
			C-412-24.1-414.9-26.7-418.1-26.7L-418.1-26.7z"/>
	</g>
	<g>
		<path class="st6" d="M-584.5,84c-0.8,0-1.5-0.6-1.8-1.3c-2.1-5.6-3.4-8.6-7.8-9.1c-1.9-0.2-2.8-1.5-2.9-2.8
			c-0.1-1.7,1.4-3.3,3.3-3.7c3.9-0.7,6-2.7,6.8-6.5c0.5-2,1.9-2.8,3.1-2.8c0.1,0,0.3,0,0.5,0c1.7,0.3,3,1.6,3.2,3.4
			c0.5,3.9,2.4,5.8,6.2,6.4c1.1,0.2,2,0.6,2.5,1.4c0.4,0.6,0.6,1.4,0.4,2.2c-0.3,1.1-1.4,2.8-3,2.9c-4.1,0.2-5.9,2.9-8.7,8.6
			C-583,83.6-583.7,84-584.5,84C-584.5,84-584.5,84-584.5,84z"/>
		<path class="st7" d="M-583.8,59.9c0.1,0,0.1,0,0.2,0c0.9,0.1,1.4,0.9,1.5,1.7c0.6,4.7,3.2,7.4,7.9,8.1c0.6,0.1,1.4,0.4,1.3,1.2
			c-0.1,0.5-0.7,1.3-1.2,1.4c-5.5,0.2-7.8,4.3-10.4,9.7c-2.1-5.5-3.7-9.7-9.4-10.4c-1.9-0.2-1-2.2,0.5-2.5c4.6-0.9,7.4-3.4,8.4-8
			C-584.8,60.5-584.5,59.9-583.8,59.9 M-583.8,55.9C-583.8,55.9-583.8,55.9-583.8,55.9c-2.5,0-4.5,1.7-5,4.3
			c-0.7,2.9-2.2,4.3-5.2,4.9c-2.8,0.5-5,3.1-4.9,5.7c0.1,2.5,2,4.4,4.6,4.7c2.9,0.3,3.9,1.9,6.1,7.8c0.6,1.5,2,2.5,3.5,2.6
			c0.1,0,0.1,0,0.2,0c1.5,0,2.9-0.9,3.6-2.2c2.7-5.6,4.1-7.3,7-7.5c2.8-0.1,4.5-2.8,4.9-4.4c0.3-1.3,0.1-2.7-0.7-3.8
			c-0.6-0.9-1.7-1.9-3.9-2.3c-2.9-0.4-4.1-1.7-4.5-4.7c-0.4-2.7-2.3-4.8-4.9-5.1C-583.3,55.9-583.5,55.9-583.8,55.9L-583.8,55.9z"/>
	</g>
	<g>
		<path class="st6" d="M-109.9,161.3c-0.8,0-1.5-0.6-1.8-1.3c-2.1-5.6-3.4-8.6-7.8-9.1c-1.9-0.2-2.8-1.5-2.9-2.8
			c-0.1-1.7,1.4-3.3,3.3-3.7c3.9-0.7,6-2.7,6.8-6.5c0.5-2,1.9-2.8,3.1-2.8c0.1,0,0.3,0,0.5,0c1.7,0.3,3,1.6,3.2,3.4
			c0.5,3.9,2.4,5.8,6.2,6.4c1.1,0.2,2,0.6,2.5,1.4c0.4,0.6,0.6,1.4,0.4,2.2c-0.3,1.1-1.4,2.8-3,2.9c-4.1,0.2-5.9,2.9-8.7,8.6
			C-108.3,160.9-109,161.3-109.9,161.3C-109.8,161.3-109.8,161.3-109.9,161.3z"/>
		<path class="st7" d="M-109.1,137.2c0.1,0,0.1,0,0.2,0c0.9,0.1,1.4,0.9,1.5,1.7c0.6,4.7,3.2,7.4,7.9,8.1c0.6,0.1,1.4,0.4,1.3,1.2
			c-0.1,0.5-0.7,1.3-1.2,1.4c-5.5,0.2-7.8,4.3-10.4,9.7c-2.1-5.5-3.7-9.7-9.4-10.4c-1.9-0.2-1-2.2,0.5-2.5c4.6-0.9,7.4-3.4,8.4-8
			C-110.1,137.9-109.8,137.2-109.1,137.2 M-109.1,133.2C-109.1,133.2-109.1,133.2-109.1,133.2c-2.5,0-4.5,1.7-5,4.3
			c-0.7,2.9-2.2,4.3-5.2,4.9c-2.8,0.5-5,3.1-4.9,5.7c0.1,2.5,2,4.4,4.6,4.7c2.9,0.3,3.9,1.9,6.1,7.8c0.6,1.5,2,2.5,3.5,2.6
			c0.1,0,0.1,0,0.2,0c1.5,0,2.9-0.9,3.6-2.2c2.7-5.6,4.1-7.3,7-7.5c2.8-0.1,4.5-2.8,4.9-4.4c0.3-1.3,0.1-2.7-0.7-3.8
			c-0.6-0.9-1.7-1.9-3.9-2.3c-2.9-0.4-4.1-1.7-4.5-4.7c-0.4-2.7-2.3-4.8-4.9-5.1C-108.6,133.3-108.8,133.2-109.1,133.2L-109.1,133.2
			z"/>
	</g>
	<path class="st0" d="M-481.6,431.8c1.2-8.9,0.5-17.9,0.6-26.8c4.5,2.7,6.4,6.5,6,11.9c-0.4,4.6,0,9.2,0.1,13.8
		C-476.9,432.4-479.4,431.3-481.6,431.8z"/>
	<path class="st2" d="M-216.7,400.8c1.4,7.7,0.2,15.4,0.6,23.1c0.1,2.8,0.1,5.6,0.2,8.4c-1.6-0.1-2.8-0.9-3.2-2.5
		c0.1-5.3-0.2-10.6,0.4-15.8c0.5-4.9-0.6-7.5-6-6.6c0.5-1.3,1.6-1.5,2.7-1.4c3.1,0.2,3.4-1.7,3.2-4c0.1-0.3,0.2-0.6,0.4-1
		c0.3,0,0.5,0,0.8-0.1C-217.5,400.8-217.1,400.8-216.7,400.8z"/>
	<path class="st1" d="M-112.5,432.1c1.7,0,3.4,0,5.1,0C-109.1,433-110.8,433-112.5,432.1z"/>
	<path class="st2" d="M-351,29.2c-0.3,1-0.9,1.6-2.1,1.5C-353,29.4-351.9,29.5-351,29.2z"/>
	<path class="st1" d="M-503.4,137.7c0,0.4-0.1,0.9-0.1,1.3C-503.5,138.6-503.4,138.1-503.4,137.7z"/>
	<path class="st1" d="M-260.1,427.8c-59.2,0-118.5,0-177.7,0c0-27-0.1-54-0.1-81c1.3-0.1,2.7-0.2,4-0.2c56.7,0,113.5,0,170.2,0
		c1.2,0,2.3,0.2,3.5,0.2C-260.2,374-260.1,400.9-260.1,427.8z M-333,387.1c-0.3,17.2,13.7,31.9,30.7,32.3c18,0.4,33-13.8,33.2-31.5
		c0.2-17.8-13.5-32-31.2-32.2C-318.3,355.5-332.8,369.4-333,387.1z M-396.3,419.7c17.3,0.6,31.8-13.4,32.2-31.2
		c0.5-19.2-13.3-31.6-37.1-31.2c-13.6,0.3-26.7,12.9-27.2,30.2C-428.9,405.6-415.4,419.1-396.3,419.7z"/>
	<path class="st6" d="M-260.2,347c-1.2-0.1-2.3-0.2-3.5-0.2c-56.7,0-113.5,0-170.2,0c-1.3,0-2.7,0.1-4,0.2c0-9-0.2-18-0.1-26.9
		c0.1-7.6,2.7-10.2,10.3-10.2c52.1,0,104.1,0,156.2,0c8.4,0,11.1,2.3,11.4,10.8C-259.9,329.4-260.2,338.2-260.2,347z M-330.8,336.1
		C-330.8,336.1-330.8,336.1-330.8,336.1c6.2,0.1,12.3,0,18.5,0.1c3.1,0.1,4.7-1.1,4.8-4.2c0-2.3,0.1-4.6,0-7c-0.1-3.1-2.2-5-4.9-4.1
		c-5,1.7-9.8,0.3-14.6-0.2c-8.4-0.9-16.7,2.2-25,0.2c-1.7-0.4-2.7,1.1-2.9,2.8c-0.2,2-0.3,4-0.4,6c-0.3,4.6,1.8,6.6,6.5,6.5
		C-342.8,335.9-336.8,336.1-330.8,336.1z M-283.1,336.3c4.4,0.1,8.2-3.8,8.2-8.2c0-4.3-3.1-7.4-7.6-7.6c-4.5-0.1-8.1,3.2-8.3,7.5
		C-290.8,332.4-287.3,336.2-283.1,336.3z M-377.3,328.5c0-4.1-3.6-7.5-7.8-7.4c-4,0.1-7.3,3.7-7.2,7.9c0.1,4.2,3,7,7.3,7
		C-380.7,336-377.3,332.7-377.3,328.5z M-407.9,328.8c0-4.1-3.1-7.4-7.1-7.5c-4.2-0.2-7.8,3.2-7.9,7.3c-0.1,4.2,3.3,7.5,7.7,7.4
		C-411.1,335.9-407.9,332.9-407.9,328.8z"/>
	<path class="st4" d="M-219,401.9c0.2,2.3-0.1,4.3-3.2,4c-1.2-0.1-2.3,0.1-2.7,1.4c-4,1.2-5.2-0.2-5.2-4.3
		c0.5-71.7,0.8-143.3,1.2-215c0-1.1,0.3-2.3,0.5-3.4c1.2-3.7,3.2-6.1,7.6-4.7c4.6,5.2,9.3,10.4,14.8,16.5c0-6.4,0-11.5,0-16.6
		c2.3-0.7,4.6-1.3,7.1-0.9c0,0.3-0.1,0.6-0.3,0.9c-0.8,0.7-0.8,1.5-0.4,2.4c0.1,61.4,0.2,122.8,0.4,184.2c0,2.8,0.2,5.6,0.3,8.5
		c-2.4,0-4.9,0-7.3,0c0-5.7,0-11.5,0-18.4c-2.4,3-3.9,5.4-6,7.1c-10.1,8.9-13.7,19.9-12,33.2C-223.7,400.6-223.3,402.7-219,401.9z
		 M-205.8,313.9c-0.2-2.2-0.3-4.4-0.5-7.6c-5.4,6.2-10.2,11.8-15,17.3c-0.7,0.8-0.7,1.5,0,2.2c5.2,5.6,9.3,12.2,15.5,17
		C-204.5,333.2-204.6,323.5-205.8,313.9z M-224,280.8c-0.2,0.3-0.6,0.5-0.6,0.8c-0.6,12.5-0.6,25,0,37.4c0,0.3,0.4,0.5,0.6,0.7
		c6.4-5.5,11.5-12.3,17-18.7c1.5-1.7-0.1-3.2-1.1-4.4c-3.7-4.3-7.4-8.6-11.3-12.7C-220.5,282.6-221.4,280.4-224,280.8z
		 M-223.6,371.5c6-7.2,11.3-13.5,16.5-19.8c0.7-0.8,1.1-1.6,0.3-2.7c-5.2-6.5-10.3-13.2-16.8-19.9
		C-223.6,343.6-223.6,356.9-223.6,371.5z M-206.3,207.8c-5.7,6.7-10.5,12.5-15.3,18.3c-1,1.2-0.4,2.1,0.4,3.1
		c4.7,5.4,9.5,10.9,14.9,17.2C-206.3,233.1-206.3,221.2-206.3,207.8z M-206.4,293.2c0-13,0-25,0-37.9c-5.4,6.4-9.9,11.9-14.6,17.2
		c-1.5,1.7-1,2.8,0.2,4.2C-216.2,282-211.6,287.3-206.4,293.2z M-223,221.3c4.7-5.4,8.1-10.2,12.3-14.2c4-3.8,4-6.7,0.1-10.5
		c-4.1-4.1-7.2-9.2-12.4-13.3C-223,196.2-223,208.1-223,221.3z M-223,268.8c5.1-5.9,9.5-10.9,13.8-15.9c0.8-1,2.2-1.9,0.9-3.4
		c-4.6-5.3-8.8-10.9-14.7-16.1C-223,245.5-223,256.6-223,268.8z"/>
	<path class="st3" d="M-528.1,377.1c-1.6,0-3.2-0.1-4.8-0.1c-8.2-0.1-16.4-0.1-24.6-0.2c0-57.1-0.1-114.2-0.1-171.3
		c0-1.8,0.2-3.6,0.3-5.5c17.2,0,34.4,0,51.6,0.1c0.2,10.8,0.5,21.6,0.5,32.4c0.2,48.1,0.3,96.2,0.4,144.3
		C-512.6,376.9-520.4,377-528.1,377.1z M-529.1,239c-0.4,2.5-2.5,1.8-4,1.8c-4.7,0.1-9.3,0.2-14,0c-3.1-0.1-4,1.1-4,4.1
		c0.1,24.5,0.1,49,0,73.4c0,3.9,1.7,5,5.3,5.6c8.2,1.5,16.3-0.6,24.4-0.2c7.5,0.3,8.2-0.6,8.2-8.3c0.1-22.3,0.1-44.6,0.1-67
		c0-9.3,0.3-7.4-7.3-7.7c-1.1,0-2.4,0.6-3.3-0.7c3.3-1.8,8.4,1.9,10.2-2.4c1.1-2.9,1.8-7.3-1.8-10.1c0.2-1.5,0.6-2.9,0.6-4.4
		c0.1-6.7-2.7-12-8.6-15.1c-6-3.2-12.1-3.1-17.8,1.1c-6.1,4.5-8.5,12.2-6,19C-544.4,235.8-538.5,239.3-529.1,239z"/>
	<path class="st4" d="M-505.7,200.1c-17.2,0-34.4,0-51.6-0.1c-0.8-7.2-0.8-7.2,6.2-7.2c13.1-0.1,26.2-0.3,39.4-0.2
		C-504.8,192.6-504.7,193-505.7,200.1z"/>
	<path class="st1" d="M-500.9,179.7c0.3,0.5,1,1,1,1.6c0,17.2,0.5,34.4-0.2,51.6c-1.2-4.9-0.5-9.9-0.5-14.8
		C-500.8,205.3-500.8,192.5-500.9,179.7z"/>
	<path class="st1" d="M-500.3,369.5c0,0.6,0,1.1,0,1.7C-500.8,370.6-500.8,370-500.3,369.5z"/>
	<path class="st1" d="M-500.2,247.7c0,0.4,0,0.8-0.1,1.3C-500.7,248.5-500.7,248.1-500.2,247.7z"/>
	<path class="st9" d="M-501.4,162.8c0.2,0.6,0.1,0.9-0.6,0.9C-501.8,163.4-501.6,163.1-501.4,162.8z"/>
	<path class="st3" d="M-143.9,374.8c-17,0-34,0-50.9,0c-0.1-56.4-0.2-112.7-0.3-169.1c0-2,0.1-4,0.2-6c17,0,34,0,51,0
		c0.1,7.1,0.2,14.3,0.1,21.4C-143.8,272.4-143.9,323.6-143.9,374.8z M-151.9,306.8c0.7-4,0.8-8-0.1-12c1.4-6.4,1-12.8,0.2-19.2
		c0.8-7.2,0.7-14.4,0-21.6c1.1-5.1,0.7-10.3,0.2-15.4c0.4-8.5,0.9-17-0.4-25.4c-0.5-3-1.9-4.9-4.5-6.1c-9.7-4.5-19-3.9-27.9,2.2
		c-1.7,1.2-2.3,2.6-2.3,4.6c0,6.3-0.4,12.7,0.6,18.9c-1.3,6.4-0.9,12.8-0.3,19.2c-0.6,6.2-0.6,12.4-0.1,18.6
		c-0.8,7.1-0.8,14.3-0.1,21.4c-0.5,5.5-0.5,11.1,0.1,16.6c-0.2,2.5-0.2,5-0.5,7.4c-0.6,5,2,7.1,6.5,7.4c5.2,0.2,10.3,0.3,15.5,0.3
		c12.9,0,15.2-2.6,13.7-15.5C-151.3,307.7-151.7,307.2-151.9,306.8z"/>
	<path class="st1" d="M-195.1,195.8c-1-2.5-0.2-3.8,2.6-3.8c15.3,0,30.5,0,45.8,0c4.9,0,3.4,3.3,3,6c-0.6-2.9-2.9-2.2-4.8-2.2
		C-164.1,195.8-179.6,195.8-195.1,195.8z"/>
	<path class="st4" d="M-195.1,195.8c15.5,0,31,0,46.4,0c1.9,0,4.2-0.7,4.8,2.2c-0.1,0.6-0.1,1.1-0.2,1.7c-17,0-34,0-51,0
		C-195,198.4-195,197.1-195.1,195.8z"/>
	<path class="st1" d="M-199.6,182.1c-0.4-0.9-0.4-1.7,0.4-2.4C-199.3,180.6-199.4,181.4-199.6,182.1z"/>
	<path class="st4" d="M-466.2,126.8c-8,0-12.8-4.7-12.8-12.6c0-7.4,5.2-12.4,12.7-12.4c7.1,0.1,13.2,6.1,13.1,13
		C-453.2,122-458.5,126.9-466.2,126.8z M-476.1,114.9c0.1,6,4.3,9.8,10.8,9.8c4.3,0,9.4-5.5,9.2-10.1c-0.1-5.3-5.3-9.9-11-9.8
		C-472.4,104.9-476.1,109-476.1,114.9z"/>
	<path class="st4" d="M-230.3,127.8c-7.7-0.1-13.7-6.2-13.5-13.6c0.1-6.9,5.9-12.3,13-12.3c7.1,0,13.8,6.4,13.7,13.1
		C-217.3,122.2-223.2,127.9-230.3,127.8z M-231.2,124.8c6,0.1,11.1-4.1,11.2-9.2c0.1-6.4-4.1-10.7-10.4-10.9
		c-6.4-0.2-10.5,3.6-10.5,9.9C-241.1,120.9-237.3,124.7-231.2,124.8z"/>
	<path class="st4" d="M-348.5,126.8c-6.5,0-12.4-5.8-12.4-12.4c-0.1-6.9,5.4-12.6,12.1-12.5c6.9,0.1,12.6,5.7,12.6,12.2
		C-336.2,120.9-341.9,126.8-348.5,126.8z M-348.9,123.8c5.5,0,9.9-3.9,10-9c0.1-5.8-4.1-10.1-10-10.1c-5.7,0-9,3.3-9.1,8.9
		C-358.1,119.6-354.4,123.8-348.9,123.8z"/>
	<path class="st4" d="M-420,113.3c0.2-6.8,5.4-11.6,12.4-11.4c6.8,0.2,12.5,5.9,12.3,12.5c-0.1,7-5.9,12.5-13,12.3
		C-415,126.6-420.2,120.7-420,113.3z M-407.7,123.8c5.7,0.1,9.5-3.7,9.6-9.6c0.2-5.4-4.1-9.4-10-9.4c-5.4,0-10,4.5-10,9.6
		C-417.9,119.5-413.3,123.8-407.7,123.8z"/>
	<path class="st4" d="M-290.9,126.8c-6.9,0-13-5.6-12.9-11.8c0.1-6.7,6.2-13.1,12.6-13.1c7.1-0.1,12.5,5.4,12.6,12.7
		C-278.4,121.4-283.9,126.8-290.9,126.8z M-301,114.5c0,6,4,10.1,9.8,10.2c4.9,0.1,10.1-5.2,10.1-10.4c0-5.4-4.3-9.6-9.9-9.6
		C-297,104.7-301.1,108.7-301,114.5z"/>
	<path class="st4" d="M-460.6,177c76.4,0,152.8,0,229.3,0c0,0.2,0,0.3,0,0.5c-76.3,0-152.7,0-229,0
		C-460.5,177.3-460.6,177.2-460.6,177z"/>
	<path class="st0" d="M-296.1,162.5c-7.7-2.3-13.9-6.5-22.1-9.6c7.1-3.3,13.2-6.1,19.3-8.8c2.6-1.1,2.8,0.7,2.8,2.5
		C-296,151.7-296.1,156.9-296.1,162.5z"/>
	<path class="st0" d="M-378.7,152.8c-7,3.1-12.8,5.8-18.7,8.4c-2.6,1.2-3.9,0.7-3.8-2.5c0.2-4.1,0.1-8.3,0.1-12.4
		c0-2.2,0.6-3.1,2.8-2.1C-392.1,146.9-385.9,149.6-378.7,152.8z"/>
	<path class="st0" d="M-426.7,152.7c6.8-3,12.8-5.7,18.8-8.5c2.6-1.2,3.2,0,3.2,2.2c0,4.1-0.1,8.3,0,12.4c0.1,2.9-1,3.4-3.5,2.2
		C-414.1,158.4-419.9,155.8-426.7,152.7z"/>
	<path class="st0" d="M-357.9,160.8c0.4-2.4-1.5-2.6-3-3.3c-3.1-1.5-6.3-2.9-10.3-4.7c6.6-3.1,12.5-5.9,18.4-8.7
		c2-1,2.7-0.1,2.7,1.9c0,1.8,0,3.7,0,5.5c0,3,0.9,6.5-0.3,8.9c-1.6,3.3-5.1-1.4-7.7,0.4L-357.9,160.8z"/>
	<path class="st0" d="M-292.3,162.2c0-5.9,0.1-10.9,0-15.9c-0.1-2.9,1.4-3,3.4-2.1c5.6,2.4,11.1,5,17.9,8
		C-278.5,155.7-284.9,158.7-292.3,162.2z"/>
	<path class="st0" d="M-346.2,144.8c0.4-1,1-1.2,1.9-0.7c5.9,2.9,11.8,5.7,18.6,9c-7.2,3.1-13.6,5.8-20,8.6
		C-345.9,156.1-346.1,150.5-346.2,144.8z"/>
	<path class="st0" d="M-476.2,179.9c-4.9,6.9-11.2,12.4-17.9,19.7c0-7.6,0-13.7,0-19.8C-488.1,179.8-482.1,179.8-476.2,179.9z"/>
	<path class="st0" d="M-264.1,152.3c5.9-2.7,11.2-5.1,16.4-7.6c2.9-1.4,3.1,0.1,3.1,2.2c0,4.6,0,9.2,0,14.7
		c-3.8-1.8-6.8-3.3-9.9-4.8C-257.5,155.4-260.5,154-264.1,152.3z"/>
	<path class="st0" d="M-251.9,162.4c-10.6,0-21.2,0-31.7,0c-0.1-0.2-0.3-0.5-0.4-0.7c5.4-2.5,10.6-6.5,16.2-7
		C-262.2,154.2-257.1,159.1-251.9,162.4z"/>
	<path class="st0" d="M-413.3,162.7c-12.1,0-23.3,0-34.5,0C-439,153.6-428.1,153.5-413.3,162.7z"/>
	<path class="st0" d="M-434.9,152.7c-6.2,2.7-11.3,5-16.4,7.3c-2.2,1-3,0.6-2.9-1.8c0.1-3.6,0.1-7.3,0-10.9c-0.1-2.6,0.9-2.7,3-1.8
		C-446.2,147.9-441,150.1-434.9,152.7z"/>
	<path class="st0" d="M-358,160.7c-0.5,2.7-2.7,1.9-4.4,1.9c-9.6,0.1-19.3,0-28.9,0c6.2-6.2,17.1-8.1,24.8-4.8
		c2.8,1.2,5.2,3.8,8.7,3C-357.9,160.8-358,160.7-358,160.7z"/>
	<path class="st0" d="M-448.2,143.1c12,0,22.9,0,35.4,0c-6.6,2.9-11.8,5.2-17,7.5c-1.4,0.6-2.6-0.2-3.8-0.7
		C-438.2,148-443.1,146.5-448.2,143.1z"/>
	<path class="st0" d="M-305.2,162.6c-11.3,0-21.8,0-32.3,0C-328.6,154-317.9,153.8-305.2,162.6z"/>
	<path class="st0" d="M-338.6,142.9c11.4,0,21.8,0,32.4,0C-316,151.8-325.2,151.9-338.6,142.9z"/>
	<path class="st0" d="M-391.9,142.9c11.3,0,21.7,0,32.3,0C-368.9,151.8-378.3,151.9-391.9,142.9z"/>
	<path class="st0" d="M-241,162.4c0-5.8,0-10.5,0-15.3c0-1.8,0.4-2.5,2.2-1.3c2.6,1.8,5.4,3.2,7.9,5.1c2.5,2.1,2.6,4.6-0.4,6.4
		C-234.1,159.1-237.1,160.4-241,162.4z"/>
	<path class="st0" d="M-471.1,142.9c0.6,6.2-5.6,5.3-8.4,8c-2.2,2.1-4,0.5-5.5-1c-2.5-2.5-6.8-3.1-7.9-7.1
		C-485.6,142.9-478.4,142.9-471.1,142.9z"/>
	<path class="st0" d="M-253.7,143.3c-9.3,7.6-18.6,8.5-28,0C-272.5,143.3-263.2,143.3-253.7,143.3z"/>
	<path class="st0" d="M-457.4,153.1c-0.1,1.8-0.3,3.7-0.2,5.5c0.1,2.5-0.7,3.6-3.4,3.4c-2.4-0.1-4.3-0.2-4.1-3.4
		c0.1-2.7,0.3-5.4,0-8c-0.5-4.4,3-5.1,5.7-6.4c1.9-0.9,1.8,0.8,1.9,1.8c0.1,2.3,0,4.7,0,7C-457.6,153.1-457.5,153.1-457.4,153.1z"/>
	<path class="st0" d="M-206,179.8c0,5.1,0,10.2,0,16.6c-5.5-6.1-10.1-11.3-14.8-16.5C-215.8,179.2-210.9,179.4-206,179.8z"/>
	<path class="st0" d="M-207,146.7c0,4.7,0,8.4,0,12c0,0.8,0.6,2.1-0.8,2.5c-1.1,0.4-1.6-0.7-2.4-1.2c-2.8-2-5.8-3.8-9.3-6.1
		C-215.4,151.5-211.6,149.3-207,146.7z"/>
	<path class="st0" d="M-208.1,142.9c-3.4,4-8.4,5.7-12.8,8.3c-2.1,1.2-3,0.2-3.1-2c-0.1-2.2-0.4-4.3,1-6.3
		C-218,142.9-213,142.9-208.1,142.9z"/>
	<path class="st0" d="M-472.8,162.5c-6.6,0-12.4,0-18.6,0C-483,155-482.6,155-472.8,162.5z"/>
	<path class="st0" d="M-484.1,154c-3.5,2-6.4,3.7-9.7,5.6c0-4.2,0-7.8,0-11.8C-490,149.1-487.7,151.8-484.1,154z"/>
	<path class="st9" d="M-213,162.4c-2.8,0.7-4.9,0.4-7,1.2c-1.2,0.5-3.3,1-4.3-1.1c-0.9-1.9-1-3.9,0.3-5.6c1.6-2,3,0,4.3,0.6
		C-217.4,158.6-215,159.7-213,162.4z"/>
	<path class="st9" d="M-478.7,154.5c3-1.1,5.1-5.5,8-3.2c1.7,1.4,1.5,6.6,0.1,7.2C-473.9,160.1-475.6,155.5-478.7,154.5z"/>
	<path class="st9" d="M-236.9,143.3c2.7,0.5,7.7-3.2,7.4,4C-232.5,146.8-234.6,145-236.9,143.3z"/>
	<path class="st10" d="M-471.1,142.9c-7.3,0-14.6-0.1-21.8-0.1C-485.6,141.2-478.4,141.3-471.1,142.9z"/>
	<path class="st4" d="M-346.2,144.8c0.1,5.6,0.3,11.2,0.4,16.9C-348,156.1-347.1,150.5-346.2,144.8z"/>
	<path class="st10" d="M-208.1,142.9c-5,0-9.9,0-14.9,0C-218,141.3-213,141.1-208.1,142.9z"/>
	<path class="st0" d="M-475.4,327.3c0,13.3,0,25.6,0,39c-5.9-6.7-11.1-12.6-16.4-18.4c-1.3-1.5-0.9-2.5,0.2-3.8
		C-486.7,338.4-481.5,333-475.4,327.3z"/>
	<path class="st0" d="M-475.3,279.2c0,14.2,0,27,0,41.3c-5.9-7.3-11.1-13.8-16.3-20.2c-1.2-1.5-0.2-2.4,0.7-3.4
		C-486,291.3-481.1,285.8-475.3,279.2z"/>
	<path class="st0" d="M-475.4,270.2c-5.5-6.5-10.3-12.3-15.2-18.1c-1.2-1.4-1-2.6,0.2-3.9c4.8-5.2,9.5-10.5,15-16.6
		C-475.4,244.8-475.4,256.9-475.4,270.2z"/>
	<path class="st0" d="M-494,256.9c2.1-1,2.6,1.1,3.4,2c4.1,4.5,8,9.2,11.9,13.9c0.7,0.8,2.1,1.7,0.9,2.9
		c-5.6,5.5-9.5,12.6-16.2,17.1C-494,280.8-494,268.8-494,256.9z"/>
	<path class="st0" d="M-475.2,186.8c0,12,0,23.8,0,36.7c-5.7-6.9-10.9-13.2-16-19.4c-0.9-1.1,0-1.9,0.7-2.5
		C-485.6,196.7-480.6,191.9-475.2,186.8z"/>
	<path class="st0" d="M-494.1,208.9c1.9-1,2.3,0.8,3,1.7c4,4.9,7.9,9.9,11.8,14.9c0.9,1.1,2.3,2.3,0.7,3.8c-5.3,5-9.6,11-15.4,15.5
		C-494,232.8-494,220.8-494.1,208.9z"/>
	<path class="st0" d="M-494,305.8c1.8-0.8,2.3,0.9,3,1.8c3.7,4.6,7.3,9.3,11,14c0.8,1,2,2,0.5,3.3c-5,4.7-9,10.5-14.5,14.8
		C-493.9,328.4-494,317.1-494,305.8z"/>
	<path class="st0" d="M-484.4,376.7c-3.2,0-6.3,0-9.5,0.1c0-8-0.1-15.9-0.1-23.9c3-0.1,3.2,2.9,4.8,4.3c1.6,1.4,2.9,3.2,4.3,4.8
		C-478.1,369.4-478.1,369.4-484.4,376.7z"/>
	<path class="st0" d="M-481,399.6c-0.5-6.6-1.4-13.1,0.1-19.7c1.8-1.6,2.7-4.1,5.4-5.4c0,9.8,0,19.2,0,28.9
		C-478.2,403.2-479,400.6-481,399.6z"/>
	<path class="st2" d="M-494,256.9c0,12,0,23.9,0,35.9c-1.4-1.4-0.9-3.1-0.9-4.7c0-8.8,0-17.6,0-26.5
		C-494.9,260-495.4,258.2-494,256.9z"/>
	<path class="st2" d="M-494.1,208.9c0,11.9,0.1,23.9,0.1,35.8c-1.2-1-1-2.4-1-3.7c0-9.5,0-18.9,0-28.4
		C-494.9,211.3-495.1,210-494.1,208.9z"/>
	<path class="st2" d="M-494,305.8c0,11.3,0.1,22.6,0.1,33.9c-1.2-1-1-2.4-1-3.7c0-8.8,0-17.7,0-26.5
		C-494.9,308.2-495.1,306.9-494,305.8z"/>
	<path class="st2" d="M-494,352.9c0,8,0.1,15.9,0.1,23.9c-0.3-0.1-0.7-0.1-1-0.2c0-6.5-0.1-13.1-0.1-19.6
		C-494.9,355.6-495.3,354-494,352.9z"/>
	<path class="st4" d="M-157,412.7c0-9.1,0-18.3,0-27.4c0-2.5,1-3.6,3.6-3.5c9.8,0.1,19.6,0,31,0c-11.8,11.2-22.5,21.5-33.3,31.8
		C-156.1,413.2-156.6,412.9-157,412.7z"/>
	<path class="st4" d="M-209.3,417.7c-2.4-5-1.7-8.1,1.8-11.3c7.5-6.8,14.5-14.2,21.7-21.3c1.1-1,2.1-2.5,3.4-2.9
		c2.5-0.8,5.9-1.7,7.4,0.3c1.2,1.7-1.8,3.5-3.3,4.8c-9.4,8.4-18.8,16.9-27.5,26C-207.2,414.7-208.2,416.3-209.3,417.7z"/>
	<path class="st0" d="M-219,401.9c-4.3,0.8-4.8-1.3-5.2-5.2c-1.7-13.3,1.9-24.3,12-33.2c2-1.8,3.5-4.2,6-7.1c0,6.9,0,12.7,0,18.4
		c-3.4,0-6.8-0.5-10.1,0.4c-0.2,0-0.4,0-0.6,0c-0.4-0.1-0.7-0.1-1.1-0.2c-1.2,0.5-0.9,1.3-0.4,2.1c0,1.5,0.1,3,0.1,4.5
		c-0.8,6.4-0.2,12.9-0.3,19.3C-218.7,401.2-218.9,401.5-219,401.9z"/>
	<path class="st4" d="M-119.6,386c1.2,3.6,0.3,5.8-1.8,7.8c-10.8,10.3-21.5,20.7-32.2,31.1c-0.8,0.7-1.6,2.2-2.8,1.1
		c-0.9-0.8-0.7-2.2-0.3-3.3c0.3-0.9,1-1.7,1.7-2.4C-143.4,409-131.8,397.7-119.6,386z"/>
	<path class="st4" d="M-211,401.9c0-5.9-0.1-10.6,0-15.4c0.2-3.9,3.2-5.4,6.4-5.7c3.9-0.4,7.9-0.1,11.9-0.1c0.8,0,1.8-0.1,2.1,0.9
		c0.1,0.5-0.3,1.2-0.7,1.6C-197.6,389.2-203.8,395.1-211,401.9z"/>
	<path class="st4" d="M-174.5,390.1c0.9,3.8,0.5,6.2-2.4,8.7c-7.2,6.4-14.2,13-20.9,19.9c-3.2,3.4-6.9,6.2-10.2,9.5
		c-0.7,0.7-1.5,1.6-2.5,0.7c-0.8-0.7-0.6-1.9-0.2-2.8c0.4-0.9,0.8-1.9,1.5-2.6C-197.8,412.6-186.3,401.5-174.5,390.1z"/>
	<path class="st10" d="M-218.3,381.5c0-1.5-0.1-3-0.1-4.5c0.2-0.4,0.4-0.7,0.6-1.1c0.3-0.3,0.6-0.6,0.9-0.8c0.2,0,0.4,0,0.6,0
		c-0.1,8.6-0.3,17.1-0.4,25.7c-0.4,0-0.7,0-1.1,0C-218.1,394.4-217.2,387.9-218.3,381.5z"/>
	<path class="st4" d="M-580.9,405.2c-0.5-3.9,0.4-7.7,1.2-11.4c2.7-13.4,17.8-15.8,27-10.9c2.7,1.4,1.1,3,0,4.4
		c-6.4,7.7-13.7,14.4-21,21.3c-0.1,0.1-0.3,0.2-0.4,0.3c-2.2,1-3.4,5-5.7,3.8C-582.3,411.4-580.5,407.8-580.9,405.2z"/>
	<path class="st4" d="M-543,392.8c-2.1,0.1-3.1,1.7-4.4,3c-9.4,9.4-18.8,18.8-28.3,28.2c-1.1,1.1-2.4,2.2-3.8,3.5
		c-0.8-2.7-0.7-4.3,1.2-6.2c9.9-9.6,19.6-19.4,29.4-29.2C-546.8,390-544.4,387.6-543,392.8L-543,392.8z"/>
	<path class="st4" d="M-543,392.8c0.3,0.5,0.6,1.1,0.9,1.6c-0.2,0.1-0.4,0.2-0.6,0.3C-542.8,394.1-542.9,393.4-543,392.8
		C-543,392.8-543,392.8-543,392.8z"/>
	<path class="st4" d="M-524,405.3c0.2-3.1-0.2-6.9,0.7-10.7c3.2-13.2,19.2-18.5,29.6-10c2,1.6,1.1,2.3,0,3.4c-9.1,9-18.1,18-27.2,27
		c-0.7,0.7-1.4,1.8-2.4,1c-0.5-0.4-0.7-1.4-0.7-2.2C-524.1,411.2-524,408.6-524,405.3z"/>
	<path class="st4" d="M-523.3,430.4c-1.3-2.8-0.3-4.5,1.3-6.1c10-10,20-20,30.1-29.9c1-1,2.1-3.4,3.9-1.6c1.8,1.7,0.9,3.7-0.8,5.2
		c-5.2,4.9-10.4,9.8-15.6,14.7C-510.6,418.5-516.8,424.4-523.3,430.4z"/>
	<path class="st4" d="M-218.3,381.5c1,6.4,0.2,12.8,0.5,19.2c-0.3,0.1-0.5,0.1-0.8,0.1C-218.5,394.4-219.1,388-218.3,381.5z"/>
	<path class="st10" d="M-333,387.1c0.3-17.7,14.8-31.6,32.7-31.4c17.7,0.2,31.4,14.4,31.2,32.2c-0.2,17.7-15.2,31.9-33.2,31.5
		C-319.3,419-333.3,404.3-333,387.1z M-273.8,387.8c0-16-11.5-28-26.7-28c-15.7,0-27.2,11.8-27.8,27.3c-0.6,15.3,13,28.3,27.4,28
		C-285.6,414.6-273.8,403.1-273.8,387.8z"/>
	<path class="st10" d="M-396.3,419.7c-19.1-0.6-32.6-14.1-32.1-32.2c0.5-17.3,13.6-29.9,27.2-30.2c23.8-0.5,37.6,12,37.1,31.2
		C-364.6,406.2-379,420.2-396.3,419.7z M-395.7,360.6c-16.8,0-28.5,11.3-28.5,27.4c0,15.7,12.2,28,27.7,27.9
		c15.6-0.1,28.4-12.5,28.5-27.5C-367.8,375-379.4,359.4-395.7,360.6z"/>
	<path class="st10" d="M-330.8,336.1c-6,0-12-0.2-18,0.1c-4.7,0.2-6.8-1.8-6.5-6.5c0.1-2,0.2-4,0.4-6c0.2-1.6,1.2-3.2,2.9-2.8
		c8.4,1.9,16.7-1.2,25-0.2c4.8,0.5,9.6,1.9,14.6,0.2c2.7-0.9,4.8,1,4.9,4.1c0.1,2.3,0,4.6,0,7c-0.1,3.1-1.7,4.3-4.8,4.2
		C-318.5,336.1-324.7,336.2-330.8,336.1C-330.8,336.1-330.8,336.1-330.8,336.1z"/>
	<path class="st4" d="M-283.1,336.3c-4.3-0.1-7.8-3.9-7.6-8.2c0.2-4.3,3.8-7.7,8.3-7.5c4.4,0.1,7.5,3.2,7.6,7.6
		C-274.8,332.5-278.7,336.4-283.1,336.3z"/>
	<path class="st4" d="M-377.3,328.5c0,4.2-3.4,7.5-7.6,7.5c-4.3,0-7.2-2.8-7.3-7c-0.1-4.3,3.2-7.8,7.2-7.9
		C-380.9,321-377.3,324.4-377.3,328.5z"/>
	<path class="st4" d="M-407.9,328.8c0,4.1-3.2,7.1-7.4,7.2c-4.4,0-7.8-3.2-7.7-7.4c0.1-4.1,3.7-7.4,7.9-7.3
		C-411,321.4-407.9,324.7-407.9,328.8z"/>
	<path class="st0" d="M-223.6,371.5c0-14.6,0-27.9,0-42.3c6.5,6.7,11.6,13.4,16.8,19.9c0.8,1,0.4,1.9-0.3,2.7
		C-212.4,358-217.6,364.3-223.6,371.5z"/>
	<path class="st0" d="M-224,280.8c2.5-0.4,3.4,1.8,4.7,3.1c3.9,4.1,7.6,8.4,11.3,12.7c1,1.2,2.6,2.7,1.1,4.4
		c-5.5,6.4-10.5,13.2-17,18.7C-223.9,306.8-224,293.8-224,280.8z"/>
	<path class="st0" d="M-206.3,207.8c0,13.4,0,25.3,0,38.5c-5.5-6.3-10.2-11.7-14.9-17.2c-0.8-0.9-1.4-1.9-0.4-3.1
		C-216.8,220.3-212,214.5-206.3,207.8z"/>
	<path class="st0" d="M-206.4,293.2c-5.2-6-9.8-11.2-14.4-16.5c-1.2-1.4-1.7-2.5-0.2-4.2c4.7-5.4,9.2-10.9,14.6-17.2
		C-206.4,268.2-206.4,280.2-206.4,293.2z"/>
	<path class="st0" d="M-223,221.3c0-13.2,0-25.1,0-38c5.2,4.1,8.4,9.1,12.4,13.3c3.8,3.9,3.8,6.7-0.1,10.5
		C-214.8,211.1-218.3,215.9-223,221.3z"/>
	<path class="st0" d="M-205.9,342.8c-6.1-4.8-10.2-11.4-15.5-17c-0.6-0.7-0.6-1.4,0-2.2c4.8-5.5,9.6-11.1,15-17.3
		c0.2,3.1,0.4,5.3,0.5,7.6C-205.9,323.5-205.9,333.2-205.9,342.8z"/>
	<path class="st0" d="M-223,268.8c0-12.2,0-23.3,0-35.4c5.9,5.2,10.1,10.8,14.7,16.1c1.3,1.5-0.1,2.4-0.9,3.4
		C-213.6,257.9-217.9,262.9-223,268.8z"/>
	<path class="st2" d="M-224,280.8c0,13,0,26,0,38.9c-0.2-0.2-0.6-0.5-0.6-0.7c-0.7-12.5-0.6-24.9,0-37.4
		C-224.5,281.3-224.2,281.1-224,280.8z"/>
	<path class="st2" d="M-205.9,342.8c0-9.6,0.1-19.3,0.1-28.9C-204.6,323.5-204.5,333.2-205.9,342.8z"/>
	<path class="st5" d="M-515.4,227.6c3.7,2.8,3,7.2,1.8,10.1c-1.7,4.3-6.9,0.6-10.2,2.4c0.9,1.3,2.2,0.7,3.3,0.7
		c7.6,0.3,7.3-1.6,7.3,7.7c0,22.3,0,44.6-0.1,67c0,7.7-0.7,8.7-8.2,8.3c-8.1-0.4-16.2,1.7-24.4,0.2c-3.6-0.7-5.3-1.8-5.3-5.6
		c0.1-24.5,0.1-49,0-73.4c0-3,0.9-4.2,4-4.1c4.7,0.2,9.3,0.1,14,0c1.5,0,3.5,0.7,4-1.8C-522.4,237.8-518.3,233.4-515.4,227.6z
		 M-515.1,262.2c0-9-8-17.2-16.8-17.2c-8.5,0-16,7.7-16.1,16.5c-0.1,9.2,7.1,17,15.9,17.1C-523.7,278.8-515.1,270.5-515.1,262.2z
		 M-531.3,285.7c-9-0.2-16.5,6.9-16.6,15.7c-0.2,9.4,7,16.9,16.4,17.3c8.2,0.3,16.3-8,16.5-16.9C-514.9,293-522.1,285.9-531.3,285.7
		z"/>
	<path class="st1" d="M-515.4,227.6c-2.9,5.8-7,10.2-13.8,11.4c-9.4,0.3-15.3-3.2-18-10.8c-2.5-6.9,0-14.5,6-19
		c5.7-4.2,11.8-4.3,17.8-1.1c5.9,3.1,8.7,8.4,8.6,15.1C-514.8,224.6-515.1,226.1-515.4,227.6z M-543,223.2c0,7.2,4,11.5,10.7,11.6
		c7,0.1,13.2-5.5,13.1-11.6c-0.1-6.5-5.8-12.1-12.2-12.2C-538.3,210.9-543,216-543,223.2z"/>
	<path class="st4" d="M-186.1,232.8c-1-6.3-0.5-12.6-0.6-18.9c0-2,0.6-3.5,2.3-4.6c8.9-6,18.2-6.6,27.9-2.2c2.6,1.2,4,3.1,4.5,6.1
		c1.3,8.5,0.8,16.9,0.4,25.4c-5.5,0.1-11-0.1-16.4,0.3C-174.9,239.3-181.1,238-186.1,232.8z M-169.2,235.7
		c6.9,0.1,12.5-5.6,12.6-12.7c0.1-7.5-6.1-13.9-13.4-13.9c-6.7,0.1-12.8,6.5-12.8,13.5C-182.7,229.9-176.9,235.6-169.2,235.7z"/>
	<path class="st4" d="M-151.7,254c0.7,7.2,0.8,14.4,0,21.6c-6.2,3.4-12.9,2.2-19.4,1.7c-5.9-0.4-11.5-1.4-15.3-6.6
		c-0.5-6.2-0.5-12.4,0-18.6c0.5-0.4,1.3-0.6,1.6-1.1c5.5-8,13.2-8.8,21.8-7.1C-157.1,244.9-154.8,249.8-151.7,254z M-169.3,248
		c-7.2-0.1-13.4,5.9-13.5,13.2c-0.1,7,6.3,13.4,13.4,13.4c6.9,0.1,13.1-6.1,13.2-13C-156.2,254.3-162,248.1-169.3,248z"/>
	<path class="st4" d="M-152,294.8c0.9,4,0.8,8,0.1,12c-0.6,0.8-1.3,1.5-1.8,2.3c-7.6,12.6-21.5,13.4-30.3,1.7
		c-0.7-1-1.3-1.9-2.5-2.3c-0.5-5.5-0.6-11.1-0.1-16.6c0.9-0.7,2-1.2,2.8-2c5.6-5.8,12.2-7.2,20.1-5.3
		C-157.7,286.1-155.4,290.9-152,294.8z M-157,302.4c0-7.4-5.5-13-12.8-13.1c-7.1-0.1-13.2,6.2-13.1,13.5c0.1,7.1,6.3,13.5,13.2,13.7
		C-163.2,316.6-156.9,309.7-157,302.4z"/>
	<path class="st5" d="M-152,294.8c-3.4-3.9-5.7-8.7-11.7-10.1c-7.9-1.9-14.4-0.5-20.1,5.3c-0.8,0.8-1.9,1.3-2.8,2
		c-0.7-7.1-0.7-14.3,0.1-21.4c3.8,5.2,9.4,6.2,15.3,6.6c6.6,0.5,13.2,1.7,19.4-1.7C-151,282-150.6,288.4-152,294.8z"/>
	<path class="st5" d="M-151.7,254c-3-4.2-5.3-9.1-11.2-10.2c-8.6-1.7-16.4-0.9-21.8,7.1c-0.3,0.5-1.1,0.8-1.6,1.1
		c-0.6-6.4-1-12.8,0.3-19.2c5,5.2,11.2,6.5,18.2,6.1c5.5-0.4,10.9-0.2,16.4-0.3C-151.1,243.7-150.6,248.9-151.7,254z"/>
	<path class="st3" d="M-186.5,308.6c1.2,0.4,1.8,1.3,2.5,2.3c8.8,11.7,22.7,10.8,30.3-1.7c0.5-0.8,1.2-1.6,1.8-2.3
		c0.2,0.4,0.6,0.9,0.6,1.3c1.5,12.9-0.7,15.5-13.7,15.5c-5.2,0-10.3,0-15.5-0.3c-4.5-0.2-7.1-2.4-6.5-7.4
		C-186.6,313.6-186.6,311.1-186.5,308.6z"/>
	<path class="st6" d="M-476.1,114.9c-0.1-5.9,3.6-10,9.1-10.1c5.7-0.1,10.8,4.5,11,9.8c0.1,4.6-4.9,10.1-9.2,10.1
		C-471.8,124.7-476,120.9-476.1,114.9z"/>
	<path class="st6" d="M-231.2,124.8c-6.1-0.1-9.8-4-9.8-10.2c0-6.3,4.1-10.1,10.5-9.9c6.3,0.2,10.5,4.5,10.4,10.9
		C-220.1,120.7-225.3,124.9-231.2,124.8z"/>
	<path class="st6" d="M-348.9,123.8c-5.5,0-9.2-4.2-9.1-10.2c0.1-5.6,3.4-8.9,9.1-8.9c5.8,0,10.1,4.3,10,10.1
		C-339.1,119.9-343.4,123.9-348.9,123.8z"/>
	<path class="st6" d="M-407.7,123.8c-5.6-0.1-10.2-4.3-10.3-9.4c-0.1-5.2,4.6-9.7,10-9.6c5.9,0,10.1,4.1,10,9.4
		C-398.2,120.1-402,123.9-407.7,123.8z"/>
	<path class="st6" d="M-301,114.5c0-5.8,4.1-9.8,10.1-9.7c5.6,0,9.9,4.2,9.9,9.6c0,5.1-5.2,10.5-10.1,10.4
		C-297,124.6-301,120.4-301,114.5z"/>
	<path class="st4" d="M-217.8,376c-0.2,0.4-0.4,0.7-0.6,1.1c-0.5-0.8-0.8-1.6,0.4-2.1C-217.9,375.3-217.9,375.6-217.8,376z"/>
	<path class="st2" d="M-217.8,376c-0.1-0.3-0.1-0.7-0.2-1c0.4,0.1,0.7,0.1,1.1,0.2C-217.2,375.4-217.5,375.7-217.8,376z"/>
	<path class="st2" d="M-273.8,387.8c0,15.3-11.8,26.9-27.1,27.2c-14.4,0.4-28-12.7-27.4-28c0.6-15.5,12.1-27.3,27.8-27.3
		C-285.3,359.7-273.8,371.8-273.8,387.8z M-300.6,365.8c-12.2-0.1-22.7,9.3-22.2,20.9c0.6,12.9,7.8,21.6,21,22
		c12.6,0.4,22.7-9.5,22.6-21.6C-279.3,375.8-289.2,365.9-300.6,365.8z"/>
	<path class="st2" d="M-395.7,360.6c16.3-1.2,27.9,14.4,27.8,27.8c-0.1,15-12.9,27.4-28.5,27.5c-15.5,0.1-27.7-12.2-27.7-27.9
		C-424.2,371.9-412.5,360.6-395.7,360.6z M-374,388.1c0-12.8-9.3-22.3-21.6-22.3c-13.1,0-23.3,9.4-23.3,21.6
		c0,12.9,9.5,22.5,22.2,22.4C-383.4,409.8-374,400.8-374,388.1z"/>
	<path class="st1" d="M-515.1,262.2c0,8.3-8.6,16.6-17,16.5c-8.8-0.1-16-7.9-15.9-17.1c0.1-8.8,7.6-16.5,16.1-16.5
		C-523.1,245-515.1,253.3-515.1,262.2z M-531.2,250.8c-9.5-0.8-12.2,5.9-12.5,12.1c-0.3,5.7,5.8,11.6,11.4,11.8
		c5.7,0.2,12.9-6.2,12.9-11.8C-519.5,257.8-523.6,249.7-531.2,250.8z"/>
	<path class="st1" d="M-531.3,285.7c9.2,0.2,16.5,7.3,16.2,16c-0.2,8.9-8.3,17.2-16.5,16.9c-9.4-0.3-16.5-7.9-16.4-17.3
		C-547.8,292.5-540.3,285.5-531.3,285.7z M-543.1,302.1c0,6.2,5.4,12.3,11,12.5c6,0.2,12.9-6.6,12.7-12.5
		c-0.2-6.2-5.8-11.8-11.9-11.9C-537.9,289.9-543.1,295.2-543.1,302.1z"/>
	<path class="st9" d="M-543,223.2c0-7.2,4.8-12.3,11.6-12.3c6.4,0,12.1,5.7,12.2,12.2c0.1,6.2-6.1,11.7-13.1,11.6
		C-539.1,234.7-543,230.4-543,223.2z M-531.5,226.9c2-0.5,3.4-1.8,3.3-3.7c-0.1-2.3-1.6-3.6-3.9-3.5c-2,0.1-3.3,1.5-3.3,3.6
		C-535.2,225.6-533.5,226.6-531.5,226.9z"/>
	<path class="st9" d="M-169.2,235.7c-7.7-0.1-13.6-5.8-13.6-13.1c0-7,6.1-13.5,12.8-13.5c7.4-0.1,13.6,6.3,13.4,13.9
		C-156.7,230.1-162.3,235.8-169.2,235.7z M-165.8,222.6c-0.3-2.4-1.8-4-4.3-3.9c-2.3,0.1-3.4,1.9-3.4,4.2c0,2.5,1.8,3.6,3.9,3.7
		C-167.2,226.6-166,225-165.8,222.6z"/>
	<path class="st9" d="M-169.3,248c7.2,0.1,13.1,6.3,13,13.6c-0.1,6.9-6.3,13-13.2,13c-7.1-0.1-13.4-6.4-13.4-13.4
		C-182.7,253.9-176.5,247.9-169.3,248z M-168.9,265.2c1.6-0.3,3.2-1.4,3.1-3.7c-0.1-2.6-1.9-3.8-4.3-3.8c-2.4,0-3.4,1.8-3.4,4
		C-173.4,264.2-171.7,265-168.9,265.2z"/>
	<path class="st9" d="M-157,302.4c0,7.3-6.3,14.2-12.7,14.1c-7-0.2-13.2-6.6-13.2-13.7c-0.1-7.3,6-13.6,13.1-13.5
		C-162.4,289.4-157,295-157,302.4z M-170,298.7c-2.1,0.4-3.3,1.8-3.5,4c-0.2,2.4,1.3,3.7,3.5,3.9c2.3,0.2,3.8-1.3,4-3.5
		C-165.9,300.6-167.5,299.2-170,298.7z"/>
	<path class="st10" d="M-300.6,365.8c11.3,0.1,21.3,10,21.4,21.4c0.1,12.1-10,22-22.6,21.6c-13.2-0.4-20.4-9.2-21-22
		C-323.2,375.1-312.8,365.7-300.6,365.8z"/>
	<path class="st10" d="M-374,388.1c0,12.7-9.4,21.7-22.7,21.7c-12.7,0-22.2-9.6-22.2-22.4c0-12.2,10.1-21.6,23.3-21.6
		C-383.2,365.8-374,375.3-374,388.1z"/>
	<path class="st9" d="M-531.2,250.8c7.6-1,11.7,7,11.8,12.1c0.1,5.6-7.2,12-12.9,11.8c-5.6-0.2-11.7-6.1-11.4-11.8
		C-543.4,256.7-540.7,250-531.2,250.8z M-528.1,262.9c0-2.4-1.3-3.8-3.5-4c-2.1-0.2-3.4,1.1-3.7,3.1c-0.3,2.1,0.8,3.6,2.9,3.9
		C-530.2,266.3-528.7,265.1-528.1,262.9z"/>
	<path class="st9" d="M-543.1,302.1c0-6.9,5.2-12.1,11.8-12c6.1,0.1,11.6,5.8,11.9,11.9c0.2,5.9-6.6,12.7-12.7,12.5
		C-537.7,314.4-543.1,308.3-543.1,302.1z M-531.7,298.5c-2,0.2-3.3,1.4-3.5,3.5c-0.2,2.4,1.1,3.8,3.4,4c2.2,0.1,3.4-1.4,3.6-3.3
		C-528,300.3-529.5,299-531.7,298.5z"/>
	<path class="st10" d="M-531.5,226.9c-2.1-0.4-3.7-1.3-3.8-3.7c-0.1-2.1,1.3-3.4,3.3-3.6c2.3-0.2,3.8,1.2,3.9,3.5
		C-528.1,225.2-529.4,226.4-531.5,226.9z"/>
	<path class="st10" d="M-165.8,222.6c-0.2,2.4-1.5,4-3.7,4c-2.1,0-3.9-1.1-3.9-3.7c0-2.3,1.1-4,3.4-4.2
		C-167.6,218.6-166.1,220.2-165.8,222.6z"/>
	<path class="st10" d="M-168.9,265.2c-2.8-0.2-4.5-1.1-4.5-3.5c-0.1-2.2,1-4,3.4-4c2.3,0,4.2,1.2,4.3,3.8
		C-165.7,263.8-167.3,264.9-168.9,265.2z"/>
	<path class="st10" d="M-170,298.7c2.5,0.6,4.1,1.9,4,4.4c-0.2,2.2-1.6,3.7-4,3.5c-2.2-0.2-3.7-1.5-3.5-3.9
		C-173.4,300.5-172.1,299.1-170,298.7z"/>
	<path class="st10" d="M-528.1,262.9c-0.6,2.3-2.1,3.4-4.4,3c-2.1-0.4-3.2-1.8-2.9-3.9c0.3-2,1.6-3.4,3.7-3.1
		C-529.4,259.1-528.1,260.5-528.1,262.9z"/>
	<path class="st10" d="M-531.7,298.5c2.2,0.5,3.7,1.8,3.5,4.1c-0.2,2-1.4,3.5-3.6,3.3c-2.3-0.1-3.6-1.6-3.4-4
		C-535.1,299.9-533.8,298.8-531.7,298.5z"/>
	<g>
		<path class="st8" d="M-132.9,348.2c-0.2,0-0.5,0-0.8-0.1c-1.4-0.3-3.9-1.8-4.1-3.8c-0.6-8.5-6.8-11.8-16.8-16.4
			c-0.7-0.3-1.2-1.1-1.2-1.9c0-0.8,0.5-1.5,1.2-1.8c10.3-4.2,16.1-7,16.8-15.7c0.2-2.8,2.1-3.8,3.6-3.8c2.2,0,4.3,1.9,4.9,4.4
			c1.7,7.5,5.9,11.6,13.2,13c3.1,0.6,4,2.7,3.8,4.5c-0.3,2.4-2.1,4.2-4.6,4.6c-7.6,1.2-11.5,5.3-12.4,12.9
			C-129.5,347.1-131.3,348.2-132.9,348.2z"/>
		<path class="st7" d="M-134.1,306.7c1.2,0,2.6,1.2,2.9,2.8c1.8,8.2,6.6,13,14.8,14.5c1.1,0.2,2.4,0.8,2.2,2.3
			c-0.2,1.7-1.5,2.6-3,2.9c-8.4,1.4-13.1,6.1-14.1,14.6c-0.1,1-0.5,2.4-1.7,2.4c-0.1,0-0.2,0-0.4,0c-1-0.2-2.4-1.3-2.5-2
			c-0.7-9.9-8.2-13.7-17.9-18.1c9.8-4,17.2-7.2,18-17.4C-135.6,307.3-134.9,306.7-134.1,306.7 M-134.1,302.7
			C-134.1,302.7-134.1,302.7-134.1,302.7c-2.5,0-5.3,1.8-5.6,5.7c-0.6,7.6-5.5,9.9-15.5,14c-1.5,0.6-2.5,2-2.5,3.6
			c0,1.6,0.9,3.1,2.4,3.7c10.2,4.6,15.1,7.6,15.6,14.7c0.2,3.1,3.5,5.2,5.7,5.6c0.4,0.1,0.8,0.1,1.1,0.1c2.3,0,5.2-1.5,5.7-5.9
			c0.7-6.6,4-10,10.7-11.1c3.5-0.6,5.9-3.1,6.3-6.4c0.3-2.8-1.3-5.9-5.4-6.7c-6.5-1.2-10.1-4.8-11.6-11.5
			C-128,305.2-130.9,302.7-134.1,302.7L-134.1,302.7z"/>
	</g>
	<g>
		<polygon class="st3" points="-236.9,464.6 -464.1,464.6 -498.4,486.3 -205.3,486.3 		"/>
		<polygon class="st3" points="-260,448.8 -439,448.8 -456.7,460 -243.7,460 		"/>
		<polygon class="st3" points="-154,521.5 -196.5,492.3 -507.9,492.3 -554,521.5 		"/>
		<polygon class="st6" points="-243.7,460 -456.7,460 -464.1,464.6 -236.9,464.6 		"/>
		<polygon class="st6" points="-205.3,486.3 -498.4,486.3 -507.9,492.3 -196.5,492.3 		"/>
	</g>
</g>
</svg>
