<?xml version="1.0" encoding="utf-8"?>
<!-- Generator: Adobe Illustrator 19.0.0, SVG Export Plug-In . SVG Version: 6.00 Build 0)  -->
<svg version="1.1" id="Layer_1" xmlns="http://www.w3.org/2000/svg" xmlns:xlink="http://www.w3.org/1999/xlink" x="0px" y="0px"
	 viewBox="-428 234.7 140.8 99.8" style="enable-background:new -428 234.7 140.8 99.8;" xml:space="preserve">
<style type="text/css">
	.st0{fill:#BFBFBF;}
	.st1{fill:#FFFFFF;}
	.st2{fill:#820000;}
</style>
<path class="st0" d="M-292.5,283.5c-1.4,16.7,4.4,20.8,2,28.7c-6.6,22-61.2,22.3-65.3,22.3c-5.6,0-57.2-0.5-64-22
	c-2.4-7.7,3-11.4,1.7-27c-1.4-16.7-8.2-20.1-6.3-27.3c5.1-19.7,61.5-19.8,67.5-19.8c7.3,0,64.2,0.2,69.5,20.3
	C-285.8,265.3-291.2,268-292.5,283.5z"/>
<path class="st1" d="M-295.7,279.8c-1.4,16.7,4.4,20.8,2,28.7c-6.6,22-61.2,22.3-65.3,22.3c-5.6,0-57.2-0.5-64-22
	c-2.4-7.7,3-11.4,1.7-27c-1.4-16.7-8.2-20.1-6.3-27.3c5.1-19.7,61.5-19.8,67.5-19.8c7.3,0,64.2,0.2,69.5,20.3
	C-288.9,261.6-294.4,264.3-295.7,279.8z"/>
<g id="XMLID_98_">
	<path id="XMLID_169_" class="st2" d="M-342.8,318.3c-4.8,0.6-10.3,1-16.3,1c-6.1,0-11.7-0.4-16.6-1c0-6.3,0-12.6,0-18.9h33v18.9
		H-342.8z"/>
	<ellipse id="XMLID_100_" class="st2" cx="-359" cy="299.4" rx="16.8" ry="16.4"/>
	<ellipse id="XMLID_99_" class="st2" cx="-359.4" cy="258.2" rx="55.7" ry="16"/>
	<path id="XMLID_216_" class="st0" d="M-416.4,265.3c0.4,0.3,0.7,0.5,1.1,0.8c2.2,1.7,4.6,2.9,7.2,3.9c5.7,2.3,11.6,3.8,17.7,4.9
		c4.7,0.9,9.5,1.5,14.3,1.9c4.1,0.4,8.2,0.6,12.4,0.7c2.8,0.1,5.6,0.1,8.4,0c4.5-0.1,9.1-0.3,13.6-0.7c7-0.6,14-1.6,20.9-3.3
		c5.2-1.3,10.3-2.8,15-5.3c1.4-0.8,2.7-1.6,4-2.6c0.1-0.1,0.2-0.2,0.3-0.2c0,0,0.1,0,0.2,0c0,0.5-0.2,0.9-0.3,1.4
		c-1.4,4.6-2.3,9.4-2.8,14.2c-0.3,2.9-0.5,5.9-0.6,8.9c-0.1,4.1,0.1,8.2,0.5,12.3c0.1,1.2,0.3,2.3-0.1,3.4c-0.5,1.3-1.3,2.4-2.3,3.3
		c-1.9,1.7-4.1,2.9-6.3,4c-5,2.3-10.4,3.6-15.8,4.7c-3.9,0.8-7.7,1.3-11.6,1.7c-3.2,0.3-6.4,0.6-9.6,0.7c-4.1,0.2-8.2,0.2-12.3,0.2
		c-4.2-0.1-8.4-0.3-12.5-0.7c-4.9-0.5-9.8-1.1-14.6-2.1c-4.8-1-9.5-2.2-14-4.2c-2.8-1.2-5.5-2.6-7.6-4.9c-1.1-1.2-1.9-2.5-2-4.1
		c0-0.4,0-0.7,0.1-1c0.5-2,0.5-4.1,0.6-6.1c0.1-2.2,0.2-4.3,0.1-6.5c-0.1-5.7-0.6-11.4-1.8-17c-0.5-2.5-1.1-5.1-1.9-7.5
		C-416.4,265.7-416.5,265.6-416.4,265.3z M-373.8,310.1c0,2.5,0,5.1,0,7.6c0,0.4,0.1,0.6,0.6,0.6c1.1,0.1,2.3,0.2,3.4,0.3
		c0.7,0.1,0.8,0,0.8-0.7c0-4.6,0-9.3,0-13.9c0-3.4,1.3-6.1,3.9-8.3c3.3-2.7,8.5-2.8,11.9-0.3c2.8,2.1,4.2,5,4.2,8.5
		c0,4.7,0,9.4,0,14.1c0,0.4,0.1,0.7,0.6,0.6c1.2-0.1,2.3-0.2,3.5-0.3c0.6,0,0.7-0.2,0.7-0.8c0-4.6,0-9.1,0-13.7
		c0-4.1-1.3-7.7-4.2-10.6c-3.4-3.5-7.6-5.1-12.5-4.4c-7.4,0.9-12.9,7.3-12.9,14.8C-373.8,305.8-373.8,307.9-373.8,310.1z
		 M-367.9,310.9c0,2.4,0,4.7,0,7.1c0,0.7,0,0.8,0.8,0.8c1.3,0.1,2.7,0.1,4,0.1c4,0.1,8,0,12-0.1c1,0,1-0.1,1-1c0-4.5,0-9,0-13.4
		c0-0.8-0.2-1.4-0.7-1.9c-0.4-0.4-0.8-0.8-1.2-1.1c-2.4-2-5.1-3-8.2-2.6c-3,0.4-5.4,1.9-7.3,4.2c-0.2,0.3-0.3,0.6-0.3,1
		C-367.9,306.2-367.9,308.5-367.9,310.9z M-334,282.3L-334,282.3c-0.1,0.3-0.1,0.6-0.1,0.9c-0.4,4.1-0.5,8.3-0.6,12.4
		c-0.1,4.5,0.1,9.1,0.4,13.6c0.2,2.4,0.4,4.9,0.6,7.3c0,0.4,0.2,0.6,0.6,0.5c0.5-0.1,1.1-0.2,1.6-0.3c0.5,0,0.5-0.2,0.5-0.7
		c-0.4-2.4-0.7-4.8-1-7.2c-0.4-3.2-0.7-6.4-1-9.6c-0.3-3.8-0.6-7.5-0.7-11.3C-333.9,286.1-333.9,284.2-334,282.3z M-384,282h-0.1
		c0,1.5,0,3,0,4.5c0,1.1-0.1,2.1-0.1,3.2c-0.2,3.4-0.4,6.9-0.7,10.3c-0.2,2.6-0.5,5.2-0.8,7.8c-0.3,2.8-0.7,5.6-1.2,8.4
		c-0.1,0.4,0,0.5,0.4,0.6c0.6,0.1,1.1,0.2,1.7,0.3c0.4,0.1,0.6-0.1,0.6-0.5c0.1-0.9,0.2-1.9,0.2-2.8c0.3-3.4,0.5-6.8,0.6-10.2
		c0.1-3.3,0.2-6.5,0.1-9.8C-383.4,289.8-383.6,285.9-384,282z M-316.1,278.1c-0.3,3.2-0.5,6.3-0.6,9.5c-0.1,3.8-0.1,7.7,0,11.5
		c0.1,4.1,0.4,8.1,0.7,12.2c0.1,1.4-0.2,1.5,1.3,0.8c0.4-0.2,1.1-0.2,1.2-0.6c0.2-0.4-0.1-0.9-0.1-1.4c-0.7-4.8-1.3-9.6-1.8-14.4
		c-0.3-3.7-0.6-7.4-0.7-11.1C-316,282.3-316.1,280.2-316.1,278.1z M-401.9,278.7c-0.1,2.1-0.1,4.3-0.2,6.4
		c-0.1,3.6-0.4,7.3-0.7,10.9c-0.3,3.3-0.7,6.6-1.1,9.8c-0.2,1.6-0.5,3.3-0.7,4.9c-0.1,0.6,0,0.9,0.6,1.1c0.5,0.2,0.9,0.4,1.4,0.6
		c0.3,0.2,0.5,0.1,0.5-0.3c0.1-0.8,0.1-1.7,0.2-2.5c0.3-3.5,0.5-7.1,0.6-10.6c0.1-4.4,0.1-8.8-0.1-13.3
		C-401.5,283.3-401.7,281-401.9,278.7z"/>
	<path id="XMLID_213_" class="st0" d="M-359,241c3.3,0,6.6,0.1,9.9,0.2c9.1,0.5,18.3,1.6,27.2,3.6c3.5,0.8,7,1.8,10.4,3.1
		c1.6,0.6,3.1,1.3,4.6,2.1c2.1,1.1,4.2,2.4,5.8,4.2c0.9,0.9,1.5,2,1.9,3.2c0.5,1.7,0.1,3.3-0.8,4.7c-1.3,2-3.2,3.5-5.2,4.7
		c-3.9,2.3-8.1,3.8-12.5,5c-4.5,1.3-9,2.2-13.5,2.9c-3.5,0.5-7,1-10.5,1.3c-4.1,0.4-8.2,0.6-12.3,0.7c-4.5,0.1-8.9,0.1-13.4-0.1
		c-3-0.1-6.1-0.3-9.1-0.6c-4.9-0.4-9.7-1.1-14.5-2c-4.7-0.9-9.3-2-13.8-3.6c-3.5-1.2-7-2.7-10-5c-1.4-1-2.6-2.2-3.4-3.8
		c-1-2-0.9-4,0.3-5.9c1.3-2.1,3.2-3.5,5.3-4.7c3.5-2.1,7.4-3.5,11.3-4.7c5.6-1.7,11.3-2.8,17-3.6c3.6-0.5,7.2-0.9,10.9-1.1
		c2.9-0.2,5.9-0.4,8.8-0.5C-362.8,241-360.9,241-359,241z M-358.8,270.3c1.3,0,2.7,0,4-0.1c4.8-0.1,9.6-0.4,14.4-0.8
		c3.8-0.3,7.6-0.8,11.4-1.5c5.4-0.9,10.8-2.1,15.9-4.2c2-0.8,3.8-1.8,5.4-3.1c0.5-0.5,1-1,1.4-1.6c1-1.6,0.8-3.5-0.7-5
		c-1.6-1.6-3.6-2.7-5.7-3.6c-4.1-1.8-8.4-2.8-12.8-3.7c-5-1-10-1.7-15.1-2.1c-3.8-0.3-7.7-0.6-11.5-0.6c-3-0.1-6-0.2-9-0.1
		c-4.1,0.1-8.1,0.2-12.2,0.5c-4.8,0.3-9.5,0.8-14.3,1.6c-5.1,0.8-10.1,1.8-14.9,3.5c-2.9,1-5.8,2.2-8.1,4.3c-2,1.8-2.4,4-0.5,6.2
		c0.5,0.6,1,1,1.6,1.4c2.6,1.8,5.4,2.9,8.4,3.8c5,1.6,10,2.5,15.2,3.3c5.6,0.8,11.3,1.3,17,1.6
		C-365.6,270.2-362.2,270.3-358.8,270.3z"/>
	<path id="XMLID_212_" class="st0" d="M-359.1,269.4c-2.5,0-5.2,0-7.8-0.1c-5-0.2-10-0.6-14.9-1.3c-0.2,0-0.5,0-0.5-0.2
		c0-0.2,0.2-0.3,0.4-0.3c2-1,4.1-1.6,6.3-2.1c3.3-0.7,6.7-1.1,10.1-1.3c3.4-0.2,6.8-0.3,10.2-0.2c4.6,0.2,9.2,0.6,13.7,1.6
		c2,0.5,4,1,5.8,2c0.1,0.1,0.4,0.1,0.3,0.3c0,0.2-0.3,0.1-0.4,0.1c-2.3,0.4-4.6,0.6-6.9,0.8C-348.2,269.2-353.6,269.4-359.1,269.4z"
		/>
	<path id="XMLID_211_" class="st0" d="M-373,262.1c-0.3-0.8-0.6-1.6-0.8-2.4c-1.6-4.5-3.1-9-4.7-13.4c-0.2-0.5-0.1-0.7,0.4-0.7
		c0.7,0,1.3-0.1,2-0.2c0.5-0.1,0.7,0.2,0.7,0.6c0.3,2.1,0.7,4.3,1,6.4c0.5,3.1,1,6.2,1.5,9.2c0,0.1,0,0.3,0,0.4
		C-373,262.1-373,262.1-373,262.1z"/>
	<path id="XMLID_210_" class="st0" d="M-345.1,262.1c0.1-0.7,0.2-1.3,0.3-1.9c0.8-4.7,1.5-9.4,2.3-14.1c0.1-0.8,0.1-0.8,0.9-0.7
		c0.6,0,1.2,0.1,1.8,0.2c0.5,0,0.5,0.2,0.4,0.6c-0.7,1.9-1.3,3.7-1.9,5.6c-1.1,3.3-2.3,6.6-3.4,9.8
		C-344.8,261.8-344.8,261.9-345.1,262.1z"/>
	<path id="XMLID_209_" class="st0" d="M-359.1,260.7c-0.1-0.9-0.2-1.8-0.3-2.6c-0.2-2.4-0.5-4.8-0.7-7.1c-0.2-1.9-0.4-3.8-0.6-5.7
		c0-0.3,0.1-0.5,0.4-0.5c0.8,0,1.7,0,2.5,0c0.3,0,0.4,0.2,0.4,0.5c-0.5,4.8-0.9,9.6-1.4,14.4c0,0.4-0.1,0.8-0.1,1.1
		C-359,260.7-359,260.7-359.1,260.7z"/>
	<path id="XMLID_208_" class="st0" d="M-383.9,263.6c-0.4-0.4-0.8-0.8-1.1-1.1c-3.3-3.5-6.6-7-9.9-10.6c-0.9-0.9-1.7-1.9-2.6-2.8
		c-0.3-0.3-0.3-0.4,0.1-0.5c0.6-0.1,1.2-0.3,1.8-0.4c0.4-0.1,0.7,0,0.9,0.4c1.9,2.7,3.8,5.3,5.8,8c1.6,2.2,3.1,4.3,4.7,6.5
		C-384,263.1-383.9,263.2-383.9,263.6z"/>
	<path id="XMLID_207_" class="st0" d="M-334.1,263.5c-0.1-0.2,0.1-0.3,0.2-0.5c3.5-4.9,7-9.7,10.6-14.6c0.1-0.3,0.3-0.4,0.7-0.3
		c0.6,0.2,1.3,0.3,1.9,0.4c0.4,0.1,0.4,0.2,0.2,0.5c-1.1,1.1-2.1,2.3-3.2,3.4c-1.6,1.7-3.2,3.5-4.9,5.2c-1.8,1.9-3.6,3.8-5.4,5.7
		C-334,263.5-334.1,263.5-334.1,263.5z"/>
</g>
</svg>
